<svg id="Layer_1" xmlns="http://www.w3.org/2000/svg" viewBox="0 0 459.5 45"><style>.st0{fill:#333}.st1{fill:#fff}</style><path class="st0" d="M61.9 1.4s-.1 0 0 0c-.1 0-.1 0 0 0zm0 .1h.1-.1zm35.4.1h.4-.4zm-34.1-.2H63s0 .1.2 0c-.1 0-.1 0 0 0zm-4.8.4c.1 0 .1 0 0 0zm1.6-.3c0 .1-.1.1.1.1.1-.1 0-.1-.1-.1zm3.4-.1zm-4.5.1h-.1.1s0-.1 0 0zm275.7.4c.1 0 0-.1-.1-.1l.1.1zM57.9 1.5c-.1 0-.1 0 0 0-.1 0-.1 0 0 0l-.1-.1c0 .1 0 .2.1.1zm56-.4c-.1 0-.1 0 0 0l-.3-.1-.1.1h.4zm-44.7.6c-.1.1 0 .1.1.1s0-.2-.1-.1zm24.1 0c-.1 0-.1.1 0 0 0 .1 0 0 0 0zm-24.4-.3h-.1c-.1 0-.1.1 0 .1s.1-.1.1-.1zm-5.4.1c0-.1 0-.1 0 0-.1-.1-.1-.1 0 0-.1-.1 0-.1 0 0zm-5.8.1v-.1h-.1c-.1.1 0 .1.1.1zm10.8.2l.1.1c0-.1 0-.1-.1-.1zm26.1 0c0-.1 0-.1-.1-.1 0 .1 0 .1.1.1zm-30.9-.1c0 .1 0 .1 0 0 0 .1 0 .1 0 0 0 .1 0 .1 0 0zm.7-.2c0-.1 0-.1 0 0l-.2-.1c0 .1.1.1.2.1zm391.8 40.7c-.1.2.2.2.2 0h-.2c.1 0 0 0 0 0zM95 1.7c-.1 0 .1 0 0 0 .1 0 .2-.1.3-.1l-.1-.1H95c-.1.2-.1.2 0 .2zm-29.6-.2c0-.1 0-.1 0 0l-.4-.1v.1c.1-.1.3-.1.4 0zm287 0c.1 0 .1 0 0 0 .1 0 0 0 0 0zM185.1 42.4c.1-.1.1-.1-.1-.2 0 .1 0 .2.1.2zM14.8 1.2zm0 0c.1 0 0 0 0 0s0 .1 0 0c.1 0 .1 0 0 0zm1.3-.1c-.1 0 0 0 0 0s-.1 0 0 0c0 0-.1.1 0 .1v-.1zM7 1.3zm8.6-.1c0-.1 0-.1-.1-.1 0 0 0 .1.1.1zm.2-.1c0 .1 0 .1 0 0-.1.1-.1.1 0 .1s.1 0 0-.1zm-9-.2c-.1.1-.1.2 0 .2s.1-.2 0-.2zm-1.1.3s0 .1 0 0l.1.1-.1-.1zM4.8.9c0 .1 0 .1.1.1L4.8.9zm1.1 0c-.1.1.2 0 0 0zm380.3.3c0-.1 0-.2-.1-.3l.1.3zm-371.1 0c.1 0 .2 0 .3-.2-.3 0-.3 0-.3.2zm41.4.5c-.1 0 0 0 0 0zm.2.1c.1-.1-.1 0 0 0zm-7-.1c-.1.1-.1.1.1.2 0-.1 0-.2-.1-.2zm7.3-.1c-.1-.1-.2 0-.3 0 0 0 0-.1.1-.1h-.2c0 .2.3.3.4.1zm-34.2-.3c0-.1-.1-.1 0 0-.1-.1-.1-.1 0 0l-.1-.1c-.1 0-.1 0-.2.1h.3zm34.6.5c-.1 0 0 0 0 0 .1 0 .1-.1.1-.1h-.3c0 .1 0 .2.2.1zm-41.3-.5zm1-.1s0 .1 0 0h.4c-.1-.1-.1-.4 0-.4-.2-.2-.4-.3-.2-.6 0 0-.1-.1-.2-.1-.2.4-.3 1 0 1.1zm-.4-.4s-.1 0 0 0c-.1-.1-.1-.1 0 0 0 .2-.3.6-.3.2-.1 0-.1.2-.1.3h.5c0-.2 0-.4-.1-.5zm4.5.4s0 .1 0 0c0 .1 0 0 0 0zm.8-.3zm.2 0c-.1 0-.1 0-.2-.1-.2.2-.1.6.2.1zM6.6.8c-.1 0-.1.1-.1.1.1 0 .3 0 .1-.1zm343.3.6c.1 0 .1 0 0 0l-.2-.1c.1.1.1.1.2.1zm-7.8-.8c-.1 0-.2.1-.3.1.2 0 .3 0 .3-.1zm12.9.8zm-5.8 0h-.2c0 .2.1.1.2 0zm10.1.2c0-.2-.1-.2-.2-.1 0 0 .1 0 .2.1-.1-.1 0-.1 0 0zm-.1.2l.1-.1c-.2 0-.2 0-.1.1zm-243.7-.7zm223.5 0s0-.1 0 0c0-.1 0-.1 0 0V.9h-.3c.1 0 .2.1.3.2-.1-.1-.1 0 0 0zm-39.9.1c.1-.1.2-.2.2-.3h-.8l-.1.1c0 .3.4.3.7.2zm61.5.6c0-.1 0-.1-.1-.1-.1.1 0 .1.1.1zm-25.3-.3v.2c0 .1.1.2.2.2 0 0 0-.1.1-.1h.1v-.1c0-.1 0-.1-.1-.2l-.1-.1h-.3c.1 0 .1 0 .1.1zm-.2.2c-.1.1 0 .1.1.1.2-.1.1-.2-.1-.1zm25.8 0c.1 0 .2-.1.3-.1 0-.1-.5.1-.3.1zm15.6-.4c.2 0 .4-.1.6-.1h-.6c.1 0 0 0 0 .1 0-.1-.1-.1 0 0-.1-.1-.1-.1 0 0-.1-.1-.1 0 0 0-.1 0-.1 0 0 0-.1 0 0 0 0 0zm-79.4-.1c.1 0 .1 0 0 0 .1-.1.1-.1 0 0 .1-.1.1-.1 0 0V1h-.2l.2.2zM12.5 42.7zM391.4 1.2h.3v-.1c-.1 0-.2-.1-.3-.1-.1 0-.1.1-.1.2h.1zm-3.9 0c.3-.1.5-.2.6-.5-.5-.2-.6.1-.6.5-.1-.1-.1-.1 0 0-.1-.1-.1 0 0 0-.1 0 0 0 0 0zm-10 0zm12.4-.7c.2 0 .3 0 .3-.1-.1 0-.2-.1-.2-.1s-.1 0-.1-.1v.3c-.1 0-.1 0 0 0-.1 0 0 0 0 0zm-20.3.6s.1 0 .1-.1c0 0-.1-.1-.2-.1l-.1-.1c-.1.1-.2.1-.2.2.1 0 .2 0 .2.1 0-.1.1 0 .2 0zm1.9.1s.1 0 0 0h.2-.2zm27.6 0h.3v-.1c0-.2-.1-.3-.2-.3h-.1v.1c-.1 0-.1.1-.1.1 0 .1 0 .1.1.2-.1 0-.1 0 0 0zm-1.7-.4s.1 0 .1.1V1c.3 0 .5-.2.5-.4-.2-.1-.5-.1-.6.2 0-.1 0-.1 0 0zm2.8.2c.2.1.3.1.4 0-.2-.1-.3-.1-.5-.2 0 0 0 .1.1.2zm-99.3.3v-.1c0-.1 0-.2-.1-.2h-.2v.2c0 .1 0 .1.1.2 0-.1.1-.1.2-.1zm-145.5-.2h-.2s-.1 0-.1.1c.2-.1.3-.1.3-.1zm-5.3 0h.4c-.2 0-.4.1-.6.1h.1c0-.1.1-.1.1-.1zm14.5-.9c0-.1 0-.1.1-.2h-.1c-.1.1-.1.1 0 .2-.1 0-.1 0 0 0zm.3-.1c0 .1 0 .1 0 0 .1.1.1.1 0 0 .1 0 .1-.1 0-.1h-.1c.1 0 .1.1.1.1zm6.4.1c.1 0 .2 0 .3.1.1 0 .2.1.3 0h.3c.1 0 .3.1.4 0h.1c.1 0 .3-.1.3-.3h-1.6c-.2 0-.2.1-.1.2-.1-.1-.1-.1 0 0-.1 0-.1 0 0 0zm-2.4.8h.3l.1-.1c-.1-.2-.3-.2-.5-.1-.1 0-.3 0-.5-.1V1h.6zm-19.5.1zM284.7.9l-.1-.1h-.2c-.1 0-.3.1-.5.2l.8-.1c.1 0 .1 0 0 0zm-157 .7s.1 0 0 0l.1-.1c0-.1.1-.1.1-.2v-.1h-.3v.1c-.1.2 0 .3.1.3zm-1-.3c-.2-.1-.3-.1-.4 0 .2.1.3.1.5.2 0 0 0-.1-.1-.2zm8.9-.2h-.4v.2c.1 0 .2.1.3.1.1-.1.1-.2.1-.3zm-6.7.6c.3.1.5.1.6-.1v-.2c-.5-.2-.6 0-.6.3-.1-.1-.1-.1 0 0-.1 0-.1 0 0 0-.1 0 0 0 0 0zm11.8-.6v.3-.3zM262.1.9h-1 1zm2.4 0c-.2 0-.3-.1-.7-.1h-.2c-.2 0-.2.1-.4.1h1.3zm4.9 0h-1.5 2-.5zm-3.7.2c.1 0 .1 0 .2-.1-.1.1-.1.1-.2.1zm13.5-.3c-.6 0-.6.1-1.1.1h-.5 2.3c-.2 0-.4-.1-.7-.1zM179.6.3c.1 0 .1 0 0 0 .3 0 .4-.1.4-.2V0h-.4v.1c.1.1 0 .1 0 .2zm96.7.6h-.7 1.2-.5zm-14.1.3h-.1.1zm-4.6-.3h-.2c-.1 0-.1.1-.1.1 0 .1.5.1.3-.1zm-8 0h-.3.6-.3zm8.7.2c.3 0 .5 0 .7-.2h.2v.2c.3 0 .4.1.6-.2h.3V1c.1.1.1 0 0-.1h-1.6l-.2.2c.1-.1.1-.1.1-.2h-.4c0 .1.1.2.3.2zm1.4-.2h-.3.3zm-1.8.1V.9h-.1c-.1.1-.1.1.1.1zm45.3.2c0 .1 0 .1 0 0l.1.1h.2v-.1c0-.1-.1-.2-.2-.2h-.1c-.1 0-.1.1 0 .2-.1-.1-.1-.1 0 0-.1 0-.1 0 0 0zm97.2 41.6s-.1.1 0 0v.4h.2c.1 0 .1-.1.1-.2s0-.1-.1-.2h-.2zm-44.7 1.5s0-.1 0 0c-.1-.1-.1 0 0 0l-.1.1h.1v-.1zm41-1.2c0 .1 0 .1 0 0 0 .1-.1 0 0 0-.1 0-.1 0 0 0-.1 0-.1-.1-.1-.1v.1h.1c0 .1.1.1 0 0 .1 0 .1 0 0 0zM356 44.2c0 .1 0 .1-.1.2h.1c.1-.1.1-.1 0-.2.1 0 .1 0 0 0zm-4.4-.8h-.3l-.1.1c.1.2.3.2.5.1.1 0 .3 0 .5.1v-.3h-.1c0 .1-.2.1-.5 0zm-.8.1c-.1 0-.1 0 0 0-.1-.1-.1-.2-.3-.2-.1 0-.1 0-.1.1h-.1c0 .2 0 .3-.1.4 0 .1-.1.2-.1.3v.2h.3c.3-.1.4-.5.4-.8zm57.2-.1c-.1.1-.2.2-.2.3h.8l.1-.1c0-.3-.4-.3-.7-.2zm-58.8.3c.1 0 .1 0 0 0l.1-.5h-.1c-.2 0-.3-.1-.4-.1v.1c0 .2.1.5.4.5zm60.8-.3c-.1 0-.1 0 0 0-.1.1-.1.1 0 0-.1.1-.1.1 0 0v.2h.2l-.2-.2zm-3.8-.1v.1c0 .1 0 .2.1.2h.2v-.2c0-.1 0-.1-.1-.2 0 .1-.1.1-.2.1zm-5.1-.2c-.1 0-.1 0 0 0-.1.1-.1.1-.3.1v.2h.1s.1.1.2.1v-.1c0-.1 0-.1.1-.1v-.1c0-.1-.1-.1-.1-.1zm2.8.3c0-.1 0-.1 0 0l-.1-.1h-.2v.1c0 .1.1.2.2.2h.1c.1 0 .1-.1 0-.2.1.1.1.1 0 0 .1 0 .1 0 0 0zm-132.2-.8zm-26.4.1c-.1 0-.1.2-.1.2v.1h.1v-.3c.1.1.1 0 0 0zm2 0h-.2v.2h.2v-.2zm-2.2.5c-.2-.1-.3-.1-.4 0v.3h.3v-.2c.1 0 .1 0 .1-.1zm-.4-.2zm9.1 0h-.4v.5h.3c.1-.1.1-.1.1-.2V43c.1 0 .1 0 0 0 .1 0 .1 0 0 0 .1 0 0 0 0 0zm-28.8.1s-.1 0 0 0l-.2-.2v.3h.2v-.1zm39 .2c-.1 0-.1.1-.1.1.1 0 .1-.1.1-.1s.1 0 0 0v.1s.1 0 0-.1c.1 0 .1 0 0 0 .1 0 .1 0 0 0zm76.9.8c-.3 0-.4.1-.4.2v.1h.4v-.3zm70.9-.5c-.1-.1-.1-.2-.1-.3 0-.1 0-.2-.1-.3h-.2c-.2.1-.2.2-.2.5v.1h.8-.2zm-62.5.7c-.1 0-.2 0-.3-.1-.1 0-.2-.1-.3 0h-.3c-.1 0-.3-.1-.4 0h-.1c-.1 0-.3.1-.3.3h1.6c.2-.1.2-.2.1-.2.1 0 .1 0 0 0zm-77.6-1.7c.1 0 0 0 0 0zm-12.4.5v.1c0 .1 0 .2.1.2 0 0 .1.1.2 0v-.1c0-.1 0-.2-.1-.2h-.2zM62.9 1.9zm27 0zm-13.7 0c-.1 0 .1 0 0 0zm279.7 0c-.1 0 0 0 0 0zM170.4 1c.1-.2.1-.3.1-.5 0-.1.1-.2.1-.3V0h-.3c-.3.2-.4.5-.4.8l.1.1V1h.4zm241.9 42c0 .1 0 .1 0 0 0 .2.1.2.1.2s.2 0 .2-.2h-.3zM353.7 1.8s.1 0 0 0c.1 0 .1 0 0 0zM171.3.7c0 .1 0 .1 0 0V1h.4c0-.1-.2-.2-.4-.3zm170.9 1.2c-.1 0 .1 0 0 0zM158.7 42.2s-.2 0 0 0zm-10.3.3s-.1 0 0 0c-.1 0 0 0 0 0zm-13.8-.3s-.1 0 0 0c-.1 0 0 .1 0 0zm10.3 0c.1-.1 0-.1 0 0zM100.3 1.8c0 .1 0 .1 0 0zm354.1 40.5s.1 0 0 0c.1 0 0 0 0 0 .1 0 .1.1 0 0 .1.1.1.1.3.1 0-.1-.1-.1-.3-.1zm-.3.1c.1 0 .2 0 0 0 0-.1 0-.1 0 0zm-12.2.2s-.1 0 0 0c-.1 0-.1 0 0 0zm2.1 0h.3c0-.1-.2-.1-.3 0zm-208 0l-.1-.1c0 .1 0 .1.1.1zM100 1.5s-.1.1 0 .1c0 0 .1-.1 0-.1.1 0 0 0 0 0zm325.5 41c.2.1.2 0 0 0zM172 42.2zM87.8 1.8zm127 41.3c-.1 0-.1.1-.1.1l-.1.1h.2c.1-.1.1-.1 0-.2.1 0 0 0 0 0zm-67.7-.9c-.1 0-.1 0 0 0zm-12.3.2c-.2.3.1.1 0 0zm42.2.1c0 .1 0 0 0 0l.1.1c0-.1 0-.1-.1-.1zm-37 .3h.2c-.1-.1-.2-.1-.2 0zm-.1-.5s-.1 0 0 0c-.1 0-.2.1-.3.1 0 .2.5 0 .3-.1zm.3 0c0 .1 0 .1.1.1.1-.2 0-.2-.1-.1zm1.3.2c0 .2.1.2.2.1 0-.1-.1-.1-.2-.1.1 0 0 0 0 0zM457.8 1.1c-.6 0-.6-.2-1.1-.2h-3.2c-.6 0-.6.1-1.1.1-.5 0-.6-.1-1-.1h-.1c-.6 0-.6-.1-1.1-.1h-4.5c-.6 0-.6.2-1.1.2-.5 0-.5-.2-1.1-.2-.6 0-.6.2-1.1.2h-.3c-.3-.1-.4-.2-.8-.2h-1.1c-.5 0-.5.1-.9.1h-.2c-.6 0-.6-.1-1.1-.1h-.2c-.3 0-.4.1-.6.1h-1.4c-.3 0-.5 0-.7-.1h-.4c-.6 0-.6.1-1.1.1h-.2c-.4 0-.4-.1-.9-.1h-2.2c-.6 0-.6.1-1.1.1h-1.1c-.3 0-.5 0-.7-.1h-2.6c-.6 0-.6-.2-1.1-.2-.4 0-.5.1-.8.1H420c-.4 0-.4-.1-.9-.1l.1.1c0 .1-.1.1-.2.1h-.1V1h-.9c-.5 0-.5-.1-1.1-.1-.6 0-.6.2-1.1.2h-.2c-.4 0-.4-.1-.9-.1h-6.4c-.6 0-.6.1-1.1.1h-1.4c-.1 0-.1 0-.2-.1-.1 0-.1-.1-.2-.1h-.2l-.1.1c-.1 0-.1.1-.1.1-.1.1-6.1.3-6.1.3l.1.1c.1 0 .1.1.2.1 0 .1-.1.1-.1.1-.1 0-.2 0-.2-.1-.1-.1-.2-.1-.2-.1.1 0 .1-.1.2-.2h-36.3v.1c0 .1-.2-.1-.4 0 .4.3-.3.1-.5.1.1.1.1.1.2 0 0 .3 0 .1-.2.2.1.1.2.1.3.1 0 0 0 .1-.1.1h-.9v-.1c-.1 0-.3 0-.4.1h-1.1c.6-.4-.3-.1-.2 0h-.3c0-.2.1-.4.1-.5-.2 0-1.1.1-1 .3-.3-.1-.1-.3-.5-.1 0-.3-.8-.1-1.1-.2 0 .3-.3.1-.4 0h-.9c-.1.1-.2.1-.3.2.2.4-.6.2-.8.1-.2-.2-.3-.1-.3-.2h-.3s-.1 0-.1.1c.1.2.2 0 .4.2.1.2.3.2.4.4h-.3c0-.1-.1-.1-.1-.2 0 0-.1 0 0 0-.2 0-.2.1-.1.2h-.2c.1-.1.2-.3.4-.4-.2 0-.4.1-.5-.2-.1 0-.2.1-.2.2-.1-.1 0-.1 0-.2h-.6v.2c-.1-.1-.1-.1 0-.1h-.2c-.3.3-.4.2-.7.3.1-.3.1 0 .3-.1 0-.1-.1-.1-.1-.1h-.2v.1c-.2-.2-.7.4-.9 0 .5.1.7 0 .6-.1H350c0 .1.1.3.1.3-.3.1-.5.5-.4-.1-.1 0-.1-.1-.1-.2h-.2c0 .2-.1.3-.2.4-.3.2-.4-.3-.2-.4h-1c0 .2-.1.2-.3.2v-.2h-.3v.1h-.1v-.1c0-.1.1-.1.1-.1h-4.1c-.1 0-.2.1-.3.1v-.1h-1.2c0 .1-.2.3-.3 0h-1.9c0 .1 0 .1-.1.1s-.1-.1-.1-.1h-2.5s-.1.1-.3.1v-.1h-.1c0 .1.1.1.3.1.1 0 .1 0 .2.1l-.1.1s-.1 0-.1.1v.1c-.3-.1-.4-.4-.7-.2.1 0 .1.1.2.2v.1h-1v-.1c-.1 0-.2.1-.2.1h-.2c0-.1.1-.2.1-.3-.1 0-.2.2-.3.3h-.2s0-.1-.1-.1c-.1-.1-.2-.1-.3-.1v.1h-.2l.2-.2c0-.1 0-.1.1-.2.1 0 .2.1.2.1 0-.1.2-.2.3-.2 0 0 .1 0 .1-.1v-.1c0-.1 0-.2-.1-.3v.1h-.3c-.3 0-.5 0-.7.1v.2h-.2s-.1 0-.1.1v-.1h-4.7v-.4c-.1 0-.2 0-.3.1 0 0-.1.1-.1.2h-20.5c-.2 0-.3 0-.3-.1h-.9l-.1.1c0 .1 0 .1.1.2h.1c0 .1 0 .1.1.2h-.3c0-.1 0-.1-.1-.1 0 0-.1-.1-.1-.2v-.1h.1c.1 0 .1 0 .1-.1h-.2.2v-.3h-.1s-.1-.1-.2-.1v.1c0 .1 0 .1-.1.1v.1h-1 .2c0 .1-.1.1-.1.1-.1 0-.1 0-.1.1-.1 0-.1-.1-.1-.2v-.1h-8.9c0-.1.1-.2.1-.3V.8h-.8c0 .1.1 0 .1 0h.1v.3h-.6l-.1-.1s-.1 0-.1.1H285c-1-.1-1.9 0-2.9 0h-1.5c-.1.1-.1.1-.2.1v-.1h-.6c-2.6 0-5-.1-7.6-.1-.8 0-1.5-.1-2.3 0-.8 0-1.6 0-2.3-.1l.1.1c-.7.3-1.6 0-2.3 0-1 .1-1.9.3-2.9.3-1.9-.1-3.8 0-5.7-.2-.5-.1-.3.2-.6-.2h-.1c-.2-.1-.3-.1-.7-.1-.6 0-.6.1-1.1.1h-.3 1.9s-.1.1-.1.2c-.4.2-1-.1-1.4 0-1.2.1-2.3-.1-3.5 0-1 .1-1.9 0-2.9-.1h-.7c-.5 0-1.2.1-1.6-.1h-2.6c-.3 0-.4.1-.8.1h-2.2c-.5 0-.5-.1-1.1-.1-.6 0-.6.1-1.1.1h-1.1c-.6 0-.6-.1-1.1-.1h-1.1c-.5 0-.5.1-1.1.1H232c-.5 0-.5-.1-1.1-.1h-1.1c-.5 0-.5.1-1.1.1h-3.5c-.5 0-.5-.1-1.1-.1h-.2c-.3 0-.4.2-.9.2h-5.4c-.6 0-.4-.1-.9-.1h-2.2c-.6 0-.6.2-1.1.2-.5 0-.5-.1-1.1-.1-.6 0-.6.1-1.1.1-.6 0-.6-.1-1.1-.1h-1.2c-.6 0-.6.1-1.1.1-.5 0-.5-.1-1.1-.1-.4 0-.5 0-.8.1h-2.6c-.3 0-.4 0-.5-.1-.1 0-.3-.1-.6-.1h-.4c-.2 0-.3.1-.7.1H200c-.6 0-.6.1-1.1.1-.5 0-.5-.1-1.1-.1s-.4-.1-.9-.1h-.3c-.3-.1-.4-.2-.8-.2-.5 0-.5.1-.9.1h-1.3c-.5 0-.6.1-1.1.1-.5 0-.5-.1-1.1-.1-.5 0-.5.1-1.1.1h-1.4c-.2 0-.3-.1-.5-.1h-.3c-.6 0-.6.1-1.1.1h-2.1c-.4 0-.5-.1-.7-.1h-.7c-.3 0-.4.1-.8.1h-1.4c-.3 0-.4-.1-.8-.1h-.6c-.1 0-.3.1-.5.1-.6 0-.6-.1-1.1-.1h-.3c-.3 0-.4.1-.8.1h-1.1c-.6 0-.6.1-1.1.1-.5 0-.5-.1-1.1-.1h-.9l-.1.1s-.4 0-1 .1c0 .1.1.2.1.2v.1c-.1 0-.3-.1-.4-.1h-.1V1h-1l-.1.1c-.1 0-.2 0-.2-.1-2.9.1-7.8.1-12.5.2h-.1c-6.9.1-13.4.1-13.4.1-.4.1-.8.1-1.1 0h-1.4c-.4.3-.2 0-1 .1-.4 0-.7.1-1.1.1.1-.1.2-.3.2-.4-.3.1-.5.2-.6.5-3.1.2-6.3 0-9.5.2-1.6.1-3.1-.2-4.6-.4H122c-.8.1-1.7.2-2.4 0h-12.9c-2.2 0-4.4.1-6.6.1l-.1.1c-.1 0-.2 0-.2-.1h-1.4c-.1.2-.3.1-.5.1.1.2.1 0 .2.2s.3 0 .4.1V2h-.8c-.2-.1-.3-.3-.5-.4 0 .3-.3.1-.5 0h-.6c0 .1-.4 0-.6 0 .1.1.1.1.2 0 0 .3 0 .1-.2.2.1.1.2.1.3.1 0 0 0 .1-.1.1H95v-.1c-.1 0-.3 0-.4.1h-1.1c.6-.4-.3-.1-.2 0H93v-.3c-.7.1-1.4.1-2 0h-2.1c-.1.1-.3.1-.5 0h-.5c.1.1.2.2.3.2h-.3c0-.1-.1-.1-.1-.2 0 0-.1 0 0 0-.2 0-.2.1-.1.2h-.2l.2-.2c-.6 0-1.2 0-1.8.1 0 .1-.1.1-.1.2 0 0 0-.1-.1-.1.1 0 .2 0 .3-.1h-1.8c-.2.1-.3.3-.3 0h-.5c-.1.1-.2 0-.3 0-.3 0-.6 0-.9-.1 0 .1-.1 0-.1 0h-.5c-.1.1-.1 0-.1 0H80c-1.8-.3-3.6.2-5.4-.1-.3-.1-.6-.1-1-.1v.1s-.1 0-.1-.1c-.9 0-1.8.1-2.7 0h.1c.3 0 .4.2.1.4-.1-.1 0-.1-.1-.2v.1c-.3-.1-.4-.4-.7-.2.1 0 .1.1.2.2v.1h-1v-.1c-.1 0-.2.1-.2.1H69v-.2c-.1 0-.2.2-.3.3h-.3v-.1l-.1.1h-.4l.2-.2c0-.1.1-.2.1-.4h-.6l-.1.1v-.1h-1c.1.1.1.2-.1.2 0 .1.1.2-.1.2-.1-.1-.1-.3-.1-.4H66v.1c-.2.1-.6.5-.2.5h-.3c0-.1 0-.1-.1-.1V2h-.3c0-.1-.1-.1-.2-.2.2-.1.3-.1.3.1.1 0 .4-.2.3-.4-.2 0-.2.2-.5.1-.2-.1-.2-.1-.2-.2h-.3c0 .1.1.3.1.4-.3.1-.5.5-.4-.1l-.1-.1h-.3c0 .1-.1.1-.1.2h.1c.1.1 0 .2-.1.2.1 0 .2 0 .2.1h-.3c-.1 0-.2-.1-.2-.1-.1 0-.1-.1-.2-.2h-.4c0 .1 0 .2-.1.2.3-.1.3 0 .3 0v-.1c.1 0 .2 0 .2.1 0 0 .1 0 .1.1h-.5V2s-.1-.1-.1-.2v-.3h-.3c.1.1.3.2.3.3h-.2c.1.1-.1 0-.1 0-.2 0-.4-.1-.5 0-.1 0-.2.1-.2.3-.1-.1-.2-.1-.3 0-.1-.1 0-.2.1-.3.1 0 .1.1.1.1.6-.5-.7 0-.8-.2-.2.1-.1.3-.3.3-.2-.3-.1-.2-.4-.1-.2.1-.5.1-.7.1-.3.1-.3-.2-.6-.1 0 .1-.1.2-.1.2H58s-.1 0-.1-.1h.1c-.2-.2-.4-.1-.6.1h-2V2h.2c0 .1 0 .1.1.1s.1-.1 0-.1c.3 0 .6-.1.6-.3h-1v.1c0-.1 0 0 0 0-.1 0-.1 0-.1-.1h-1.5c.1.1.1.3.1.4h-.4c-.1-.1-.1-.2 0-.4.1.1.1.1.2 0-.1 0-.1-.1-.1-.1h-.6.1c-.1.1-.1.1-.1 0-.1 0-.1 0-.1-.1h.1H50c.1.1.3.2.4.1.4-.1.5 0 .5.2h-.5c-.1-.1-.2-.1-.3-.1 0 0-.1.1-.1 0v.2h-1.4c-.1 0-.2-.1-.3-.2h-.6v.2c-.1 0-.1-.1-.2-.2-.2 0-.4 0-.6-.1-.1 0-.3 0-.4-.1-.2 0-.4.1-.7.1v.3h-.6c-.1 0-.1-.1 0-.2.1.1.2 0 .3 0-.5.1-1 0-1.4-.3-.4 0-.7 0-1.1.1-.1.1-.2.1-.4 0-.7.1-1.5.2-2.2.2-1.5.1-2.8-.3-4.3-.1-1.4-.2-2.9 0-4.3 0v.1c-.1 0-.2-.1-.3-.1h-.1c-.2 0-.5 0-.7-.1h-.1c-.1 0-.1 0-.1-.1-.1 0-.3 0-.4-.1h-.7c-1 0-2.1.1-3.1 0-.4 0-.7-.1-1.1-.1h-5.5s.1.1.1.2v.1h-.2s-.1-.1-.1-.2v-.1h-18v41.2h10.7c.1 0 .2.1.3.1l.1-.1h5.8l-.1.1c.2.3.5.3.3.7.1.1.1.1.2.1.1-.2.2-.6.2-.9h.2c0 .1 0 .1.1.2 0-.1 0-.1 0 0 0-.1 0-.2.1-.3h5c0-.1.1-.2.1-.3h.1s.1 0 .1-.1c.1 0 .2.1.2.1s0 .1.1.1v.2h7.3c-.1 0-.3.1-.2.1v.1c.1 0 .1-.1.1-.2h3v-.1h.2l.1.1h17c0 .1.1.1.1.2.2.2.3.2.4.2.2 0 .3-.1.7-.1h1.1c.5 0 .5-.1 1.1-.1.5 0 .5.1 1.1.1.5 0 .5-.1 1.1-.1.5 0 .5.1 1.1.1.5 0 .5-.1 1.1-.1h.2c.4 0 .4.1.9.1h3.3c.5 0 .5-.2 1.1-.2h3.3c.4 0 .5 0 .8.1h.3c.5 0 .5-.1 1.1-.1.6 0 .6.1 1.1.1.6 0 .6-.1 1.1-.1h1.1c.6 0 .6-.1 1.1-.1h1.1c.5 0 .5.1 1.1.1s.6-.1 1.1-.1h1.1c.5 0 .5.1 1.1.1.2 0 .3 0 .4-.1.2-.1.3-.1.7-.1.2 0 .3 0 .4.1.2.1.3.2.7.2h3.4c.4 0 .4-.1.9-.1h2.2c.6 0 .6-.1 1.1-.1h.2c.4 0 .4.1.9.1h3.3c.5 0 .5.1 1.1.1.5 0 .5-.1 1.1-.1h.2c.3 0 .4.1.7.1h1.3c.4 0 .5-.1.8-.2h1.4c.5 0 .5.1 1.1.1.5 0 .5-.1 1.1-.1h3.2c.6 0 .6.1 1.1.1h2.2c.6 0 .6-.2 1.1-.2.5 0 .5.2 1.1.2h3.2c.5 0 .5-.1 1.1-.1.5 0 .6.1 1 .1h.1c.6 0 .6.1 1.1.1h4.4c.6 0 .6-.2 1.1-.2.5 0 .5.1 1.1.1.6 0 .6-.2 1.1-.2h.3c.3.1.4.2.8.2h1.1c.5 0 .5-.1.9-.1h.2c.6 0 .6.1 1.1.1h.2c.3 0 .4-.1.6-.1h1.7v-.1h.1v.1c.1-.1.3-.2.3-.3.3 0 .3.1.2.3.2 0 .5-.3.5.1h.3v-.1s.1 0 0 0c.1 0 .2.1.2.1h.3c.4 0 .4.1.9.1h.8c.1-.2.4-.1.3-.3 0-.1.2.1.4 0-.4-.3.3-.1.5-.1-.1-.1-.1-.1-.2 0 0-.3 0-.1.2-.2-.1-.1-.2-.1-.3-.1 0 0 0-.1.1-.1h.6v.1c.1 0 .3 0 .4-.1h1.1c-.6.4.3.1.2 0h.3c0 .2-.1.4-.1.5.2 0 1.1-.1 1-.3.3.1.1.3.5.1 0 .3.8.1 1.1.2 0-.4.4.1.5.1h.1c0-.1.2-.2.3-.1.2.2.4-.1.6-.2-.2-.4.6-.2.8-.1.2.2.3 0 .3.4.3.1.2-.2.5-.2-.1-.2-.2 0-.4-.2-.1-.2-.3-.2-.4-.4h.3c0 .1.1.1.1.2 0 0 .1 0 0 0 .2 0 .2-.1.1-.2h.2c-.1.1-.2.3-.4.4.2 0 .4-.1.5.2.1 0 .2-.1.2-.2.2.1-.1.3 0 .4.2 0 .3-.3.4 0h.3s0-.1.1-.1c.3-.4.4-.2.7-.3-.1.3-.1 0-.3.1.1.1.1.2.1.2 0-.1 0-.1.1-.2.2.2.7-.4.9 0-1-.2-.6.3.1.2v.1h.5c.2-.1 0-.4 0-.5.3-.1.5-.5.4.1.1.1.2.2.2.4h.2c-.1-.2-.1-.5.1-.6.3-.2.4.3.2.4 0-.3-.2 0-.3.2h.2c.2-.1.4-.2.7-.2 0 .1 0 .2.1.3h.3c.6 0 .6-.2 1.1-.2h.2c.4 0 .4.1.9.1h1c.6 0 .6-.1 1.1-.1h4.3c.5 0 .5-.1 1.1-.1h1.4c.1 0 .1 0 .2.1.1 0 .1.1.2.1h.2l.1-.1.1-.1c0-.1 0-.1.1-.2h3.3c0-.1 0-.1.2-.1 0-.1-.1-.2.1-.2.1.1.1.2.1.3h.1v-.1c.2-.1.6-.5.2-.5h.3c0 .1 0 .1.1.1v-.1h.3c0 .1.1.1.2.2-.2.1-.3.1-.3-.1-.1 0-.4.2-.3.4.2 0 .2-.2.5-.1.1 0 .2.1.2.1h.3c0-.1-.1-.2-.1-.3.3-.1.5-.5.4.1l.1.1h.3c0-.1.1-.1.1-.2h-.1c-.1-.1 0-.2.1-.2-.1 0-.2 0-.2-.1h.3c.1 0 .2.1.2.1.1 0 .1.1.2.2h.4c0-.1 0-.2.1-.2l-.1-.1v.1c-.1 0-.2 0-.2-.1 0 0-.1 0-.1-.1h.5v.1s.1.1.1.2v.2h.1v-.1c.1 0 .1 0 .1.1h.1c-.1-.1-.2-.2-.3-.2h.2c-.1-.1.1 0 .1 0 .2 0 .4.1.5 0 .1 0 .2-.1.2-.3.1.1.2.1.3 0 .1.1 0 .2-.1.3-.1 0-.1-.1-.1-.1-.6.5.7 0 .8.2.2-.1.1-.3.3-.3.2.3.1.2.4.1.2-.1.5-.1.7-.1.3-.1.3.2.6.1 0-.1.1-.2.1-.2h.6s.1 0 .1.1h-.1c.2.2.4.1.6-.1h2v.1h-.2c0-.1 0-.1-.1-.1s-.1.1 0 .1c-.3 0-.6.1-.6.3-.1 0-.1 0-.2.1h2.4c0-.1.1-.1.2-.1v.1h.3c-.2-.1-.3-.4-.3-.5h.4c.1.1.1.2 0 .4-.1-.1-.1-.1-.2 0 .1.1.1.1 0 .2h3.7c-.1-.2-.3-.4-.6-.3-.4.1-.5 0-.5-.2h.5c.1.1.2.1.3.1 0 0 .1-.1.1 0v-.2h1.4c.1.1.3.1.3.4-.1 0-.1-.1-.2 0 0 0 0 .1.1.1h.4v-.2c.3 0 .3 0 .3-.3.1 0 .2.4.5.4 0 .1-.2.1-.3.1H208c0-.1 0-.1.1-.1l.1.1h.7c.2 0 .4.1.5 0h.2v-.1h.2v.1h.7v-.2h.1v.2h3.9v-.3c.1 0 .1.1.1.1v.2h6.4s0 .1-.1.1h.2l.1-.1h13v-.4c.2-.2.3.1.2.4h.2l-.1-.1c0-.3.1-.3.3-.2 0-.2-.3-.5.2-.6.3.2.1.5.2.7v.1h11.5v.2h.2s.1-.1.1-.2v-.1h4.5v.2h.1v-.2h8s0-.1.1-.1.1.1.1.1h.6c.1 0 .2 0 .2.1h2.2v.2h.2l-.1-.2h6.6v-.2c0 .1.1.1 0 0l.1.1h.2c0-.2 0-.5.1-.6.1 0 .1 0 .2.1-.2.3 0 .4.2.6h-.1 13.1c0 .1.1.2.2.3l.1.1c.1 0 .1.1.2.1.2 0 .4-.2.8-.2h1.2c.6 0 .6.1 1.1.1h1.1c.6 0 .6.1 1.1.1.6 0 .6-.1 1.1-.1h2.6c.2 0 .3-.1.7-.1h4.8c.2 0 .3.1.7.1h1.4c.2 0 .3-.1.5-.1h3c.2 0 .3.1.7.1h.2c.3 0 .4-.1.9-.1h1c.5 0 .5-.1 1.1-.1.6 0 .6.1 1.1.1h2.2c.5 0 .5-.1 1.1-.1.2 0 .3 0 .4.1.2.1.3.1.7.1.6 0 .6-.1 1.1-.1.5 0 .5-.1 1.1-.1h2.2c.6 0 .6.1 1.1.1.6 0 .6-.1 1.1-.1h5.8c.3 0 .4-.1.8-.1h2.2c.5 0 .5.1 1.1.1.6 0 .6-.1 1.1-.1h1.1c.6 0 .6.1 1.1.1h1.1c.5 0 .5-.1 1.1-.1h1.1c.5 0 .5.1 1.1.1h1.1c.5 0 .5-.1 1.1-.1h3.5c.5 0 .5.1 1.1.1h.3c.3 0 .4-.2.9-.2h1.3s.1 0 .1.1h-.1 4.1c.6 0 .6-.1 1.1-.1h2.2c.6 0 .6-.2 1.1-.2.5 0 .5.1 1.1.1.5 0 .5-.1 1.1-.1.6 0 .6.1 1.1.1h1.2c.6 0 .6-.1 1.1-.1.5 0 .5.1 1.1.1.4 0 .5 0 .8-.1h2.5c.3 0 .4 0 .5.1.1 0 .3.1.6.1h.4c.2 0 .3-.1.7-.1h1.1c.6 0 .6-.1 1.1-.1.6 0 .6.1 1.1.1.6 0 .6-.2 1.1-.2h.3c.3.1.4.2.8.2.5 0 .5-.1.9-.1h1.3c.6 0 .6-.1 1.1-.1.5 0 .5.1 1.1.1.5 0 .5-.1 1.1-.1h1.4c.2 0 .3.1.5.1h.3c.6 0 .6-.1 1.1-.1h2.1c.4 0 .5.1.7.1h.7c.3 0 .4-.1.8-.1h1.4c.3 0 .4.1.8.1h1.2c.6 0 .6.1 1.1.1h.3c.3 0 .4-.1.8-.1h1.1c.6 0 .6-.1 1.1-.1s.6.1 1.1.1h.9l.1-.1c.1-.1.2-.2.2-.3h1.1v.1c0 .1.1.2.2.2h.1l.1-.1h-.1 5.7c0 .1 0 .2.1.3.1.1.2.1.3.1v-.3h15c1 0 1.9-.1 2.9 0h3l-.1.1c.1 0 .2.1.4.1h1.4c.4 0 .8-.1 1.1-.1H439s.1-.1.2-.1c.1-.1.1-.1.2-.1h.3c.1 0 .1.1.2.1s.2.1.3.1h.5c.2 0 .4-.1.6-.1l.1.1h.4c.1 0 .1-.1.1-.1h1.6l.1.1h.9v-.1h3.5v.1h.6v-.1c.1 0 .3 0 .1.1h.3s.1-.1.2-.1h.2s0 .1-.1.1h2c-.1-.1-.1-.1-.2-.1h.6c.1 0 .2.1.3.1v-.1c.2.1.1.1.1.1h.2c.1-.1.1-.1.1-.2.2 0 .4-.1.5-.2-.4 0-.6 0-.7-.1h2.1c-.1 0-.3.1-.4.1.3.2.7 0 1 0 0-.1 0-.1-.2-.2h2.6V.9c1 .1.9.2.5.2zm-103.7.6c-.2 0 0-.1 0 0zM68 1.5s-.1 0 0 0zm-4.1.3c.1 0 0 .1 0 0zm-1.2-.3c-.1 0-.1-.1-.1-.1.1 0 .1 0 .1.1zm-7.1.3s.1 0 0 0zm-39.2.6c0-.1 0-.1 0 0v-.1s.1.1.1.2c0-.1-.1-.1-.1-.1zm1.5-.7c0 .1-.1.1 0 0l-.1.1c-.1 0-.1-.1-.1-.2v-.1c0 .1 0 .1.2.2-.1 0-.1 0 0 0-.1 0 0 0 0 0zm1 .3c0 .1 0 .1 0 0h-.2v-.3h.1c.1 0 .1.1.1.1V2c0-.1 0 0 0 0zm1 .1c-.1.1-.3.1-.5.1h-.2v.1c-.1 0-.1-.1-.1-.2v-.2c.1 0 .2 0 .2-.1 0 .1.1.1.2.1.3 0 .4 0 .4.2zm3.4-.2h.2c0 .1 0 .1-.1.2 0 0-.1.1-.2 0v-.2zm.4 40.6c-.3 0-.4-.2-.5-.4V42c.1 0 .2.1.4.1h.1v.4zm.1-40.9s-.1 0 0 0h-.2v-.1h.1c0-.1.1-.1.1.1 0-.1 0 0 0 0zm.2.2s0 .1 0 0c0 .1 0 .1 0 0 0 .1 0 .1 0 0 0 .1 0 .1 0 0 0 .1-.1.1 0 0-.1.1-.1.1-.2.1v-.1s0-.1.1-.1h.1v.1zm.2 2c-.1-.2 0-.3.2-.3 0 0 0 .1 0 0 0 .2 0 .3-.2.3zm2.3 38.8c-.1 0-.1 0 0 0H26c-.2 0-.3 0-.4-.1 0 0 0-.1.1-.1h.9v.2zm7.1-.5h-.2v-.2h.1l.1.1c.1 0 .1.1 0 .1zm.5.3H34c-.1 0-.2-.1-.2-.2v-.1h.3v.3zm.3-.6h-.3c0-.1 0-.2.1-.2s.1-.1.2-.1v.3zm5.1.7c-.2.1-.3 0-.3 0-.1-.1-.1-.1-.1-.2v-.1c.1 0 .2 0 .3.1.1.1.1.1.1.2 0-.1 0-.1 0 0zm.3-.9c0 .1 0 .1 0 0-.1 0-.1 0-.1.1v.1c-.2 0-.3.1-.3.1 0-.1-.1-.1-.2-.1s-.3-.1-.3-.3c.1-.1.4-.1.6-.1h.3v-.1c.1 0 .1.2.1.2l-.1.1zm.8.5c-.1 0-.2 0-.2.1-.1 0-.2-.1-.2-.2v-.4h.3v.1s.1.1.1.2v.2zm1.2.1h-.3c0-.1.1-.1.1-.1s.1 0 .1-.1c.1 0 .1.1.1.2.1-.1.1-.1 0 0 .1-.1.1-.1 0 0 .1-.1.1 0 0 0zm1.7-.8c-.1 0-.1 0 0 0-.1 0-.2-.1-.2-.2h.2v.2c0-.1 0-.1 0 0zM46.7 2h-.2v-.1c.2 0 .2-.1.1-.2.1 0 .1.2.1.3zm1.1-.2c.1.1 0 .1 0 0zm6 .2c0-.2.1-.3.2-.4v.2c0 .1.1.1.1.2h-.3zm.8 0h.1-.1zm.4 0s-.1 0 0 0zm.1 0s-.1 0 0 0c-.1-.1-.1-.1 0 0-.1-.1-.1 0-.1 0-.3 0-.2-.1-.5-.1 0-.3.3-.1.5 0 .1-.4.4-.1.3 0 .2 0 .2 0 .2.1h-.4zm3.6 0c.1 0 .1-.1.2-.1s.2 0 .3.1h-.5zm1.2-.1s0 .1 0 0l-.2.1c0-.1 0-.2.2-.1-.1-.1 0 .1 0 0zm.2.1c-.1-.1-.1-.1 0-.1V2zm.7 0v-.1c.2 0 .3 0 .4.1h-.4zm1.1 0s.1 0 0 0zm2.9 0s-.1 0 0 0h-.3c.1-.1.3-.3.3 0zm2.8 0c-.1 0-.1 0 0 0-.1 0-.1 0-.1-.1.1-.1.1 0 .1.1zm3.6-.4c.1 0 .1.1.1.1-.1 0-.1-.1-.1-.1zm1.1 0s.1 0 .1.1c-.1 0-.1 0-.1-.1zm1.1.4c0-.2.1-.3.2-.4 0 .1.1.2.2.4h-.4zm.8 0h.1-.1zm.3 0zm.2 0l-.1-.1c.3-.1.4 0 .4.1h-.3zm1.5-.1c.1 0 .1 0 .1.1-.2 0-.4 0-.1-.1zm2 .1c.1-.1.3-.1.5 0h-.5zm1.4 0H79c.1-.3.4-.1.6 0zm1.9 0zm1 0s-.1-.1 0 0v-.2c0 .1.2.3.2.1.2 0 .3.1.3.1h-.5zm.8 0zm0 0zm.1-.2c.1 0 0 .1 0 0zm3.7.2c-.1 0-.1-.1-.1-.1.1-.1.2 0 .1.1zm1.4 0zm1-.2c.2.1 0 .2 0 0zm.4.2h-.2c.1 0 .1-.1.2-.1V2zm.6-.1s-.1 0 0 0c-.2 0-.3-.2 0 0zm1.1.1s-.1-.1-.1-.2c.1 0 .2.1.1.2zm5.1-.2c-.1 0-.1-.1-.2-.1.1 0 .2 0 .2.1zm.4.1zm-.1 0c0-.1.1-.1 0 0 .1 0 0 0 0 0zm3.2-.2s0-.1 0 0c0 0 0-.1 0 0zm.2.3h-.8c-.2-.2.2-.3.5-.2 0-.1.1-.1.3-.1V2zm34.2 40.4s.1 0 0 0c0 0 .1 0 0 0zm.1-.1c0 .1-.1.1-.3.1v-.3h.8c.2.2-.2.3-.5.2zm3.4-.1s.1.1 0 0c.1 0 .1.1.2.1-.1 0-.1 0-.2-.1zm-.3-.1zm0 0c0 .1.1.1 0 0 0 .1-.1.1 0 0 0 .1 0 .1 0 0zm-.2.4c-.4 0-.7.1-1.1.3 0-.4.3-.2.5-.3-.2-.2-.2.1-.3-.1-.1-.2-.3 0-.4-.1v-.1h.8c.2.1.3.3.5.4 0-.5.7.1.7.2-.2-.1-.9.2-.7-.3zm5.6-.4c.1 0 .1.1.2.2-.2-.1-.2-.1-.2-.2zm1.1.1c.1 0 .1-.1.1-.1.1 0 .2.2-.1.1zm.5.2c.1 0 .1 0 .1.1-.1.1-.1 0-.1-.1zm.1-.2v-.1h.2c-.1 0-.1 0-.2.1zm.4 0c-.1 0 .1-.2 0 0zm-.1.4l.1-.1c.1 0 .1 0 .1.1h-.2zm.3-.1c-.1-.1-.1-.1-.1-.2.1 0 .2 0 .3.1 0 .1-.1.1-.2.1zm.9-.4zm.4.2c.1 0 0 .1 0 0zm1-.1c-.1 0-.1 0-.1-.1h.1v.1zm.5.5v-.2c.1.1.1.1 0 .2zm.6-.4c0-.1.1-.1.1-.2 0 0 0 .1.1.1 0 0-.1 0-.2.1zm2.5-.1c-.1 0 0-.1 0 0zm.1-.1zm.1 0zm.5.3c-.2 0 0-.1 0 0zm.1.2s-.1 0 0 0c-.1-.1 0-.1 0-.1v.1zm0-.4c-.2 0-.3-.1-.3-.1h.5v.2c0-.1-.2-.4-.2-.1zm.2.3c-.1 0-.1 0 0 0-.1-.1 0-.1 0-.1v.1zm1-.4s-.1 0 0 0c-.1 0-.1 0 0 0zm-.7.5c-.1 0-.1 0-.1-.1.1 0 .1.1.1.1zm.1-.2c-.2-.2.1-.1 0 0zm.2.3h-.1c0-.2.1-.2.3-.2l-.2.2c.2 0 .2 0 .2.1-.2 0-.3 0-.2-.1zm.4-.3c-.1.1-.2.1 0 0 0-.1 0 0 0 0s-.1 0 0 0zm0 .1h.1c-.1.2-.2.2-.1 0zm1.8-.4h.6c-.1.3-.4.1-.6 0zm.9 0h.5c-.1.1-.3.1-.5 0zm2.6.1c-.1 0-.1 0-.1-.1.1 0 .3 0 .1.1zm1.2-.1h.3l.1.1c-.3.1-.4 0-.4-.1zm.4 0zm.4 0c-.1 0-.1 0 0 0zm.3 0h.4c0 .2-.1.3-.2.4 0-.2-.1-.3-.2-.4zm.4.6s-.1 0 0 0c-.1-.1-.1-.2 0-.2s.1.1 0 .2zm.2.2c-.2-.1 0-.1.1-.1l-.1.1zm.7-.1c-.1 0-.1 0 0 0-.1 0 0-.1 0 0zm.2-.3c0-.1 0 0 0 0s-.1 0-.1-.1c.1-.1.1-.1.1.1zm.9.2c-.1 0-.1-.1-.1-.1.1 0 .1.1.1.1zm.2-.2c-.1 0-.1-.1-.1-.1.2 0 .2 0 .1.1zm2.3-.4zm1 .5zm.5-.4c-.1 0-.1 0-.1-.1h.1v.1zm.9-40.5c-.1-.1-.1-.1-.1-.2h.1c.1.1 0 .1 0 .2zm.4 0s-.1 0 0 0c0-.1-.1-.1-.1-.2h.1v.2zm1.3 40.4c.1 0 .1 0 0 0h.3c0 .1-.3.3-.3 0zm1 .1c-.1 0 0-.1 0 0zm1.9-.1zm.1-39.7s0 .1-.1.1h-.9v-.3c.2.1.3.1.5.1.2-.1.4-.1.5.1zm.7 39.7h.4v.1c-.2 0-.3-.1-.4-.1zm1 .1v-.1h.1s0 .1-.1.1zm.3 0s0-.1 0 0V42h.2c0 .2-.1.2-.2.2zm.2-39.4h-.1v-.5c.3 0 .4.3.5.5v.1c-.1-.1-.2-.1-.4-.1zm.8 39.3c0 .1 0 .1 0 0-.1.1-.1.1 0 0-.2 0-.2 0-.3-.1h.5c-.1.1-.1.1-.2.1zm.4-39h-.1c-.1-.1-.1-.1.1 0-.1-.1-.1-.1 0 0zm0-1.3c0 .1 0 .1 0 0h-.8c-.1.1-.2 0-.3 0-.1 0-.2-.1-.3-.1v-.1h1.6c.1.2-.1.2-.2.2zm2.8 40.5c0-.1 0-.1 0 0 0-.1 0-.1 0 0zm1-.2h-.1.1zm-.3 0zm-.3.5v-.2c0 .1 0 0 0 0 .1 0 .1.2 0 .2zm.3-.3c-.1.4-.4.1-.3 0-.2 0-.2 0-.2-.1h.3l.1.1c.3 0 .2.1.5.1.1.1-.2-.1-.4-.1zm.9.1v-.2c0-.1-.1-.1-.1-.2h.4c-.1.2-.2.4-.3.4zm1.4.1h-.2c0-.1.1-.2.2 0 0-.1 0-.1 0 0 0 0-.1 0 0 0zm.9-37.4c0 .1 0 .2-.1.3 0 .2-.1.3-.1.4-.1 0-.2-.2-.2-.4l.1-.1c0-.1.1-.2.1-.2-.1-.1 0-.1.2 0 0-.1 0-.1 0 0zm.3-3.2c0-.1 0-.1 0 0 0-.1 0-.1 0 0v-.3h.4v.1s-.1.2-.4.2zm1.3 40.6c-.1 0-.2 0-.2-.1.1 0 .2 0 .2.1zm-.3 0h-.1c0-.1 0-.1.1 0zm.2-34.5c-.2.1-.3-.1-.3-.2s0-.2-.1-.2c0 0 0-.1.1-.1v-.1h.2c0 .1 0 .2.1.2 0 .1.1.1.1.2s0 .1-.1.2zm.3-1.8s0-.1 0 0c-.1-.2-.2-.2-.3-.2.1-.2.2-.2.3-.2v.4zm2.1 36.1c0-.2.1-.1 0 0zm1.3 0c-.2 0-.2-.2-.1-.2h.2v.1c-.1-.1-.2 0-.1.1zm1.4-.1c-.2-.2-.2.1-.4.2 0-.1-.1-.1 0 0-.1-.1-.1-.2-.1-.2V42h.6c-.1.1 0 .1-.1.2zm21.1-.4c0 .1 0 .1 0 0-.1.1-.1 0-.1 0 0-.1 0-.1.1-.1h.1c-.1 0-.1 0-.1.1 0-.1 0 0 0 0zm2.2.3c0 .1 0 .1-.1.1 0 0 0 .1-.1.1s-.1-.1-.1-.1c0-.1 0-.1.1-.2.1 0 .1 0 .2.1 0-.1 0-.1 0 0 .1-.1.1-.1 0 0 .1-.1.1 0 0 0zm6.5-.5c0 .1 0 .1 0 0l-.1.1s-.1 0-.1-.1l.1-.1.1.1c.1 0 .1 0 0 0zm2.4-.6h-.1v-.1h.1v.1c.1-.1 0 0 0 0zm.6.2c0 .1 0 .1 0 0-.1 0-.2 0-.2-.1v-.4c.1 0 .1.1.2.1l.1.1c0 .2 0 .3-.1.3zm.6.5s0-.1 0 0l.1-.1h.2v.2c-.1 0-.2 0-.3-.1.1 0 .1 0 0 0zm.6.7h-.3c-.1 0-.2 0-.3-.1.1-.2.3-.2.5-.1v.2h.1zm.2-.2c0 .1-.1.1-.1.1v-.2c.1 0 .1.1.1.1 0-.1 0 0 0 0zm.7-.4c-.1 0-.1-.1-.1-.1.1 0 .1 0 .1.1 0-.1 0 0 0 0 0-.1 0-.1.1-.1 0 .1 0 .1-.1.1zm1.2.8h-.2v-.2h.1l.1.2c.1-.1.1 0 0 0zm10.3-1.1c.1 0 0 0 0 0 0-.5.4.1 0 0zm31.5-40.4c-.2 0-.2 0 0 0zm8.8 41.5zm23.4-39.9c.1-.1.1-.1.3-.1-.2 0-.2.1-.3.1zm3.1-.2v-.1c.1.1.1.1.2.3-.1-.2-.1-.2-.2-.2zm5.3-.4s-.1 0 0 0c-.2.2-.4.1-.7.1h-.3v.1c-.1 0-.1-.2-.1-.3v-.3c.2 0 .3-.1.3-.2 0 .1.1.1.2.1.4.2.6.2.6.5zm1.9 1.1c0 .1 0 .1 0 0h-.2V3h.2v.2zm3.3-1.1c-.1.1-.1.1-.3.1v-.4h.3c.1.1.1.2 0 .3zm.8-.4c0 .1 0 .1 0 0-.1 0-.1 0 0 0-.1 0-.1.1-.1.1h-.1s-.1-.1-.1-.2 0-.2.1-.2h.2v.3zm8 40h-.3s0-.1.1-.1l.2.1zm1.9 0h-.2.2zm10.6.2c.1-.1.2-.1.4 0 .1.1.1.1.1.2-.2 0-.3-.1-.5-.2zm1.5.2v.1h-.1c-.1 0-.2-.1-.2-.3v-.1h.3v.3zm.7-40.1c-.1 0 0-.1-.1-.1.2 0 .2 0 .1.1.1-.1.1-.1 0 0zm1 40.2c-.1.3-.4.2-.6.1.1-.2.2-.4.5-.4v.1c0 .1 0 .1.1.2-.1-.1 0-.1 0 0 0-.1 0 0 0 0zM339.4 2c0-.2.1-.3.2-.4 0 .1.1.2.2.4h-.4zm.7 0h.1-.1zm.4 0zm.1 0l-.1-.1c.3-.1.4 0 .4.1h-.3zm1.5-.2c.1 0 .1 0 .1.1-.1.1-.3.1-.1-.1zm1.8 40.1c-.1 0-.2-.1-.3-.1v-.2h.4c0 .2 0 .3-.1.3zm.3-39.9c.1-.1.3-.1.5 0h-.5zm1.2 40.7s-.1 0-.1-.1c-.1 0-.2-.1-.2-.1 0-.1.1-.1.2-.1h.1v.3zm.2-40.7h-.6c.1-.3.4-.2.6 0zm1.9-.4s.1 0 0 0c-.1.1-.1 0 0 0zm0 .3c0 .1 0 .1 0 0-.1.1-.1.1 0 0-.1.1 0 .1 0 0zm.3 39.9c-.1.3-.2.6-.6.5.1-.4.3-.5.6-.5 0-.1 0-.1 0 0zm.9-40.2c.2 0 0 .1 0 0zm0-.1c.1.1 0 .1 0 .1-.1 0-.1-.1 0-.1zm-.7.2c.2.1-.1 0 0 0zm.2-.2c-.1 0-.1-.1-.1-.1.1 0 .1 0 .1.1zm.2 0c.1 0 .1 0 0 0 .1.1 0 .1 0 .1v-.1zm0 .5c0-.1 0-.1 0 0v-.2c0 .1.2.3.2.1.2 0 .3.1.3.1h-.5zm.7 39.7l.1.3c-.1-.1-.1-.2-.1-.3zm.2-39.7zm0 0zm.1-.2c.1 0 0 .1 0 0zm2.3.2c0-.1 0 0 0 0-.1 0-.1-.1-.1-.1.1 0 .2 0 .3-.1l-.2.2zm1.4 0c-.1 0-.1 0-.1-.1.1-.1.1 0 .1.1zm1.3 0zm.7-.4c0-.1.1-.1.2-.1l.1.1c-.1.1-.2.1-.3 0zm.4.2c.1.1-.1.2 0 0zm0-.2c-.1 0-.1 0-.1-.1s.1-.1.2-.1c-.1.1-.1.1-.1.2zm.4.4h-.2c.1 0 .1-.1.2-.1V2zm0-.5c.1-.1.1 0 .1.1-.1 0-.1 0-.1-.1zm.6.4c-.1 0-.1 0 0 0-.2 0-.3-.2 0 0 0-.1 0 0 0 0zm1.1.1s-.1-.1-.1-.2c.1 0 .2.1.1.2zm.2 39.7c-.1 0 0 0 0 0zm1.1 0h-.8.8c-.1-.1-.1-.1 0 0-.1-.1-.1-.1 0 0zm4.7 0h.2-.2zm2.3.5l-.1-.1c-.1 0-.1-.1-.2-.1 0-.1.1-.1.1-.1.1 0 .2 0 .2.1.1.1.2.1.2.1s-.1.1-.2.1zm31.6-.1h.2c-.1.1-.3.1-.2 0zm2.4.1h.5s-.4.1-.5 0zm1-40.3s-.1 0 0 0h-.1c0-.1.1-.1.1 0 .1-.1.1-.1 0 0 .1-.1 0 0 0 0zm2.4 40.3s0-.1 0 0h.3-.3zm1.9-.1h.4c-.2.2-.2.2-.4 0zm.6-40.2c-.1 0-.1 0 0 0-.1 0-.1 0 0 0-.1 0-.1 0 0 0-.1 0-.1 0 0 0-.1-.1 0-.1 0 0l.1-.1h.6c-.4.1-.6.1-.7.1zm.7 40.2c0 .2.1.2 0 0zm.3-40.3c0 .1 0 .1 0 0zm0 40.4s0-.1.1-.1h.3c.2.1-.2.2-.4.1zm2.4.1c-.5 0-.9.2-1.2-.2h2.7c-.5.2-.8.3-1.5.2zm2.2 0h-.1v-.1c.1 0 .2 0 .1.1zm.1-.2h.4c-.3.3-.3.2-.4 0zm.5 0h.6c-.3.1-.3.2-.6 0zm3.5-40.3l-.1-.3c.1.1.1.2.1.3zm.1 40.3c-.8.1-1.4-.1-2 .1-.2 0-.3 0-.4-.1h2.4zm.5.1h.2c-.1.1 0 .1-.2 0zm1.3-40.9c-.1.3-.3.5-.6.5 0-.3.1-.6.6-.5zm.1 40.9h-.1 1-.9zm3.1-40.6c.1 0 .2.1.3.1v.2h-.4c0-.2.1-.2.1-.3zm-1.1 40.5h1.4c-.4.1-1 .2-1.4 0zm7.2-40.7c.1-.3.4-.2.6-.1-.1.2-.2.4-.5.4v-.1c0-.1-.1-.2-.1-.2zm-1.2 40.9h.3c-.1.1-.1.1-.3 0zm2.1.2c.2 0 .2 0 .3.1-.1-.1-.2-.1-.3-.1zm.2-.2c-.2 0-.9-.1-1-.1-.6.2-1.7.1-2.3 0-.8 0-1.6 0-2.4-.1h-.1 6.2c0 .1-.1.1-.4.2zm.5-40.5s0-.1 0 0c0-.2 0-.2.1-.3v-.1h.1c.1 0 .2.1.2.3v.1h-.4zm.2 40.4h.4l.1.1c-.3-.1-.5-.1-.5-.1zm1-40.6c-.1-.1-.1-.1-.1-.2.2.1.3.2.5.2-.1.1-.2.1-.4 0zm3.2 40.6s-.1 0-.1.1l-.1-.1h.2zm.2.1c-.1 0-.1 0 0 0-.1 0 0 0 0 0zm.7-.1c.2-.1.2 0 .3.1-.2 0-.3 0-.3-.1zm.4 0c.1 0 .1 0 .2.1-.1 0-.2-.1-.2-.1zm1 .3s0-.1 0 0c0-.1 0 0 0 0zm2.3-.3c.1 0 .1 0 0 0 .2 0 .2 0 0 0 .1.1 0 .1 0 0 0 .1 0 .1 0 0 0 .1 0 .1 0 0zm-1.6-.1s0 .1 0 0c0 .1 0 .1 0 0 0 .1 0 .1 0 0-.1.1-.2 0-.2 0h.2zm-.1.3c.2 0 .3.1.4.1-.2.1-.3.1-.4-.1zm1.7.1h-.6c.1 0 .3 0 .4-.1.1.1.1.1.2.1-.1 0-.1 0 0 0 0-.1 0-.1.1-.1.2 0 .3-.1.3-.1 0 .2-.1.2-.4.2zm.5 0c-.1 0-.1-.1 0-.1l.1.1h-.1zm.4 0s0-.1 0 0c.1-.1.1-.1 0 0l.1-.1c.2 0 .4 0 .3.1h-.4zm1.6-.1c-.1 0 0 0 0 0s-.1 0 0 0c-.1 0-.1 0 0 0-.1 0 0 0 0 0zm.3 0s.1 0 0 0c.1 0 .1 0 0 0zm.6-40.6h-.3.3c-.1 0-.1 0 0 0zm.3 40.4c-.1 0-.1-.1-.1-.1h.2l.1.1c0 .1-.1 0-.2 0zm.3-.1c.1.1.1.1 0 0 0 .1 0 .1 0 0zm1.3-40.2h-.2s-.1 0-.1-.1h.1c.1 0 .2 0 .2.1 0-.1 0 0 0 0zm.1 40.6zm.4-.2c0-.1 0-.1 0 0zm1.4 0c.1 0 .1 0 0 0zm.2-.2zm.1.5c0-.1 0-.1 0 0 0-.1.1-.1.1-.1l-.1.1zm2.2-.2c-.1 0-.1-.1 0-.1.2-.1.2 0 0 .1zm.2-.2c-.1 0-.1 0-.1-.1l.1.1zm1 0c-.2 0-.3.1-.4 0 .1 0 .2 0 .2-.1l.2.1zm.1-.1h.3c0 .3-.2.2-.3 0zm.3 0h.3v.1c-.1 0-.2 0-.3-.1zm.5 0h.2v.1c-.1 0-.2 0-.2-.1zm1.1.1c-.1 0-.1 0 0 0h.2-.2zm.7.3c-.1 0-.2 0-.2-.1h.3c0 .1 0 .1-.1.1zm2-.3c-.1 0-.1 0 0 0 0-.1-.1-.1 0 0zm-313.3.6c.1 0 .3-.1.1-.1-.1 0-.1 0-.1.1zm3.1-.1s-.1 0 0 0c0 0-.1 0 0 0zm2 .1s0-.1 0 0zm1.1-.1c.1 0 .1-.1 0-.1v.1zm-21.2.5s-.1 0-.1.1c0 0 .1.1.2.1l.1.1c.1-.1.2-.1.2-.2-.1 0-.2 0-.2-.1h-.2zm17-.9l-.1.1c.2 0 .2-.1.1-.1zm1.3.5zm-48.9.5c-.2-.1-.3-.1-.4 0 .2.1.3.1.5.2 0-.1 0-.1-.1-.2zm8.8-.2h-.3v.2c.1 0 .2.1.3.1.1 0 .1-.1.1-.2l-.1-.1zm-7.7 0h-.3v.1c0 .2.1.3.2.3h.1v-.1c0-.1.1-.1.1-.2l-.1-.1c.1 0 0 0 0 0zm1.7.4s-.1 0-.1-.1v-.1c-.3 0-.5.2-.5.4.2 0 .4.1.6-.2zm54.2-.7c.1-.2.1-.2-.1-.2-.1.2 0 .2.1.2zm-68.2.3h.2-.2zm-1.9-.1c0 .1 0 .1 0 0 0 .1.1.1.1.1h.1s-.1 0-.1-.1h-.1zm27.1.1c0 .1 0 .2.1.3l-.1-.3zm9.7-.1c-.2 0-.4.1-.6.1h.6c-.1 0-.1 0 0-.1 0 .1 0 .1 0 0 .1.1.1.1 0 0 .1 0 .1 0 0 0 .1 0 .1 0 0 0zm-1.1.1c.1 0 .1 0 0 0 .1 0 .1 0 0 0zm-12.3.7c-.2 0-.3 0-.3.1.1 0 .2.1.2.1s.1 0 .1.1v-.3c.1 0 .1 0 0 0zm18.4-.7h-.1s-.1 0-.1.1c.1-.1.2-.1.2-.1zm-16 0c-.3.1-.5.2-.6.5.5.1.6-.2.6-.5.1.1.1.1 0 0 .1 0 .1 0 0 0zm103.8 0c-.1 0-.1-.1-.1-.1v.2h.2v-.1c-.1.1-.1.1-.1 0zm-32.4-.9c-.1.2.1 0 0 0zm.3.2c0-.1 0 0 0 0zm-.6 0c.1.1.2 0 .3 0 0 .1-.1.1-.1.1h.3c0-.2-.3-.2-.5-.1zm-.6 0c0 .2.1.2.2.1 0-.1-.1-.1-.2-.1zm-144 .3c-.1 0 0 0 0 0 0-.2-.3 0 0 0zm148.2-.1c0-.1-.1 0 0 0zm-3.9-.4s-.1.1 0 0c-.1 0-.1.1-.1.1h.3c0-.1-.1-.1-.2-.1zm34.5 1.7c-.1 0-.1.1-.1.2s0 .1.1.1h.1V44l-.1-.1zm-.7-.3c-.1.1-.2.2-.2.4.1 0 .1.1.2.1l.2.2v-.4c.1-.2-.1-.3-.2-.3zm-2.5-.6c-.1 0-.1 0-.1.1l.1-.1v.1c.1-.1.1-.1 0-.1.1 0 0 0 0 0zm-22.9-.4s.1 0 .1-.1c.1-.1-.2.1-.1.1zm1.2 0s.1 0 .1-.1-.4.1-.1.1zm-16.7 0zm.9 0s.1 0 0 0c.1 0 0 0 0 0zm-.2-.3s.1 0 0 0c.1-.1.1-.1 0 0 .1 0 0 0 0 0zm-18.8.5c0 .1.1.1.1.1s0-.1-.1-.1zm17.5-.2c.1 0 .1 0 0 0zm-.4 0zm7-.3s.1 0 0 0c.1 0 .1 0 0 0 0-.1 0-.1 0 0 0-.1 0 0 0 0zm-.5.2c0 .1 0 .1 0 0l.1.1c.1 0 0-.1-.1-.1.1 0 .1.1 0 0zm-4.2.1c.1 0 .1 0 0 0 .1 0 .1 0 0 0zm5 0s-.1 0 0 0c-.1 0-.1 0 0 0zm-3.7 0h-.1.1zm1.8-.1c0-.1.1-.1-.1-.1 0 .1 0 .2.1.1z"/><path class="st1" d="M88.4 32.1c.1 0 .1-.1.1-.1v-.1h.1v-.1c0-.2 0-.5-.4-.5h-.1c-.1 0-.1.1-.1.1v.2c.1.2.1.4.4.5zm326.4-2s-.1 0 0 0c-.2.3-.2.4-.1.5.1.1.3.1.4.2.1 0 .2 0 .3.1v.3h.1c.4 0 .8 0 1-.3.1-.1.2-.3.1-.5 0 0 0-.1-.1-.1h-.2c-.1.1-.3.1-.4.1-.1 0-.2-.1-.4-.1-.2-.1-.4-.2-.8-.2h.1zm-305.4 9.4c-.1 0-.2.1-.2.2s.1.1.1.1c.1 0 .2 0 .3-.1 0-.1.1-.1.1-.2h-.3c.1 0 .1 0 0 0zm78.6-10h.3c.2 0 .5 0 .6-.2v-.1l-.2-.4h-.2c-.2 0-.5.1-.6.2.1.1 0 .2.1.5-.1-.1 0 0 0 0zm-158.4.1l.1-.1c-.1-.5-.3-.8-.7-1v1.4c.1-.2.2-.3.4-.3h.2zm82.5-5.1l.2-.2c.1 0 .3-.1.2-.3 0 0 0-.1-.1-.1s-.3-.1-.4-.2c-.2-.1-.3-.2-.5-.2v.4s.1.1.1.2c.1.2.2.4.5.4zm53.5 15c-.1 0-.2.1-.2.2s.1.1.1.1c.1 0 .2 0 .3-.1 0-.1.1-.1.1-.2h-.3zm22.3 4.2v-.5c0-.1-.1-.1-.1-.1h-.4c0 .3-.1.5-.1.7h.5c.1 0 .1 0 .1-.1zm-17.1-11s.1 0 0 0l.1-.1c-.1-.4-.3-.7-.6-.9V33c.1-.1.2-.3.4-.3h.1zm-11.2 1.6c.1 0 .1 0 0 0 .1 0 .1 0 0 0l.2-.2c.1 0 .3-.1.2-.3l-.1-.1c-.1 0-.3-.1-.4-.2-.2-.1-.3-.2-.5-.2v.4l.1.1c.2.3.3.5.5.5zm-9.8 2.6zm-46.5-14.4v-.2s-.1.1 0 .2c-.1-.1 0-.1 0 0zm26.8 2.1c0 .1 0 .1 0 0l.2.1c.3 0 .6-.4.4-.7-.1-.1-.2-.2-.3-.2 0 0-.1 0-.1.1s0 .1-.1.2-.2.3-.1.5zm-12.5 6c.1 0 .1 0 0 0 .1 0 .1 0 .1-.1h.1c.2-.1.4-.3.3-.4 0-.1-.2-.2-.3-.2h-.1v.1h-.2c-.1 0-.2.2-.2.4.2.2.2.2.3.2zM100 24.8c0 .1 0 .1 0 0 0 .1-.1.2-.1.2-.1.1-.1.2-.1.4 0 0 0 .1.1.1h.4c.1 0 .2 0 .2-.1v-.2s0-.1-.1-.1-.1 0-.1-.1c0 0-.1-.1-.3-.2.1 0 .1 0 0 0 .1 0 0 0 0 0zm5.5-7.8h-.1v-.2h-.5v.1c.1.4-.1.4-.3.5-.2.1-.4.1-.4.3v.1c.1.1.2.1.3.1.3 0 .6-.3.9-.6l.3-.3c-.1.2-.1.1-.2 0 .1.1.1 0 0 0zM90.9 28.8c0 .1 0 .1.1.1.3.1.5 0 .6 0 0 0 .1-.1.1-.2 0-.2-.2-.3-.4-.3-.1 0-.3 0-.4.4zm30.3 1.3c-.2-.1-.3-.1-.4 0-.2.1-.2.3-.2.4 0 .1 0 .3.1.3.1.1.1.1.2.1 0 0 .1 0 .1-.1v-.1h.2v-.6c0 .1 0 0 0 0zM95.8 40.5s0-.1 0 0v-.4h-.6c0 .2.1.4.2.5.1.1.2.1.2.1l.2-.2zm-24.3-6.4c0-.1.1-.2.2-.2s.2-.1.3-.2v-.1h-.1c-.1 0-.1 0-.2-.1s-.2-.2-.4-.1c0 0-.1 0-.1.1v.2c-.1.1-.1.4.3.4-.1.1-.1 0 0 0zM181.9 9.8v.2c0 .1 0 .3.1.4.1.1.2.1.4 0 0 0 .1 0 .1-.1v-.2c0-.2 0-.3-.1-.4h-.5v.1zm-26 10.8v-.2.2c0-.1 0-.1 0 0zM140 20h-.1s-.1 0-.1.1c-.1.6.2.8.4.8h.1c.2-.2.2-.4.2-.6-.1-.2-.2-.3-.5-.3zm10.4 11.8c.1 0 .1 0 0 0 .1 0 .1 0 0 0 .2-.1.3-.2.2-.3 0-.1-.1-.1-.1-.1v.1c-.1.1-.2.2-.1.3-.1 0 0 0 0 0zm11.9-8.7c0 .1.2.2.3.3l.1.1s0 .1.1.1h.1c0-.4-.1-.6-.4-.7v.1c-.2 0-.3 0-.2.1zm-8.7 1.7c0 .1 0 .1 0 0 0 .1-.1.2-.1.2-.1.1-.1.2-.1.4 0 0 0 .1.1.1h.4c.1 0 .2 0 .2-.1v-.2s0-.1-.1-.1-.1 0-.1-.1c0 0-.1-.1-.3-.2.1 0 .1 0 0 0zm-7.3-7.7c-.1 0-.2 0-.2.1.1.1.1.2.2.3.1 0 .2 0 .3-.1h.2c0-.2 0-.3-.1-.4 0 0-.1-.1-.2-.1h-.1v.1c.1.1 0 .1-.1.1zm47.2-6.8c0 .1 0 .1.1.1.3.1.5 0 .6 0 0 0 .1-.1.1-.2 0-.2-.2-.3-.4-.3-.1 0-.4 0-.4.4zm-48.9 22.4c.2-.1.4-.1.6-.2-.3-.1-.5 0-.6.2zm5.5-4.7v-.4h-.5c0 .2.1.3.2.4.1.1.2.1.3 0 0 .1 0 0 0 0zm7.5.6c0-.1 0-.1 0 0-.1-.1-.1-.2-.1-.3V28c0-.1-.1-.2-.3-.3 0 .1 0 .1-.2.1h-.1v.2c0 .1 0 .2.1.2 0 .1.1.1.1.2v.1l.5.1c-.1 0-.1 0 0 0zm-1.2-3.3v.2c0 .1 0 .3.1.3.1.1.2.1.4 0 0 0 .1 0 .1-.1v-.2c0-.2 0-.3-.1-.4h-.5v.2zm-61.2 1.9c0 .1 0 .1.1.1v.1c.1.2.3.4.4.3.1 0 .2-.2.2-.3v-.1h-.1v-.2c0-.1-.2-.2-.4-.2-.1.1-.2.2-.2.3zm31.1 10c-.1 0-.1.1-.1.3 0 .2.1.5.3.5.1 0 .2 0 .3-.1 0 0 .1-.1.1-.2 0-.2-.2-.5-.3-.5h-.3zm-25.7-17.5c-.2.1-.3.2-.3.3l-.1.1s-.1 0-.1.1v.1c.4 0 .7-.1.8-.4h-.1c-.1-.2-.2-.2-.2-.2zm211.8-4.1h.2s.1 0 .1-.1v-.2h-1.2s0 .1.1.1c.2.2.5.2.8.2zM125.8 32.3c0-.1-.1-.2-.2-.2s-.2.1-.2.2c0 .3-.1.4-.3.5h.4c.2-.2.3-.3.3-.5zm200.6-14.5c0-.1 0-.1 0 0-.2-.1-.3-.1-.4-.1-.1.1-.1.2-.1.4v.2h-.3v.1c0 .3 0 .6.2.8.1.1.2.1.4.1h.1c-.1-.1-.1-.2-.1-.3 0-.1 0-.2.1-.3.1-.2.2-.3.2-.7l-.1-.2zm-205.6-1.1h.4c.1 0 .1 0 .1-.1v-.3c-.2 0-.4-.1-.6-.1v.4l.1.1zm9.2.2l.2.2c0 .1.1.3.3.2 0 0 .1 0 .1-.1s.1-.3.2-.4c.1-.2.2-.3.2-.5h-.4s-.1.1-.2.1c-.2.1-.4.2-.4.5zm231.6 6.4c-.1 0-.2 0-.3-.1h-.1c.1.1.2.1.4.1-.1 0 0 0 0 0zM38.3 33.4c.1-.2.1-.3 0-.4-.1-.2-.3-.2-.4-.2-.1 0-.3 0-.3.1-.1.1-.1.1-.1.2 0 0 0 .1.1.1h.1v.2h.6c0 .1 0 .1 0 0zm70.8 4.4c.1 0 .1 0 0 0 .2 0 .3-.2.3-.3 0-.1.1-.2.1-.2-.1 0-.1-.1-.2-.3h-.3c-.1 0-.2 0-.2.1h.1v.3c.1 0 .1.3.2.4zm-23.8-17c.1 0 .1 0 0 0 .1 0 .1 0 0 0 .2-.1.2-.1.3-.1h.3c.1 0 .2-.1.3-.3v-.1c-.1 0-.1-.1-.1-.2V20h-.2c-.1 0-.2.1-.3.1-.1 0-.1.1-.2.1h-.1v.6zm313.3 1.7v-.2.2c0-.1 0-.1 0 0zm-3.2 2.3c-.1.1-.1.1 0 0 0 .1-.1.2-.1.2-.1.1-.1.2-.1.4 0 0 0 .1.1.1h.4c.1 0 .2 0 .2-.1v-.2s0-.1-.1-.1-.1 0-.1-.1c-.1 0-.1-.1-.3-.2zm5.5-7.8h-.1v-.2h-.6v.1c.1.4-.1.4-.3.5-.2.1-.4.1-.4.3v.1c.1.1.2.1.3.1.3 0 .6-.3.9-.6l.3-.3c-.1.2-.1.1-.1 0 0 .1 0 0 0 0zm-5 2.7c-.2.1-.3.2-.3.3l-.1.1s-.1 0-.1.1v.1c.4 0 .7-.1.8-.4h-.1c-.1-.2-.1-.2-.2-.2zm-15.2 1.1c.2-.1.2-.1.3-.1h.3c.1 0 .2-.1.3-.3v-.1c-.1 0-.1-.1-.1-.2V20h-.2c-.1 0-.2.1-.3.1-.1 0-.1.1-.2.1h-.1v.6c-.1 0 0 0 0 0zm-303.9 6c.2 0 .4 0 .5-.1.1-.1.2-.2.2-.4v-.1s0-.1-.1-.1h-.2c-.3 0-.5.2-.5.5l.1.2c-.1 0-.1 0 0 0zm111.1-19c-.2.1-.3.2-.3.3l-.1.1s-.1 0-.1.1v.1c.4 0 .7-.1.8-.4h-.1c0-.1-.1-.2-.2-.2zm-35 26.1v-.1c0-.1-.1-.3-.3-.3h-.1c-.1 0-.3.1-.3.3v.1c0 .1.1.3.3.3h.1c.2 0 .3-.1.3-.3zm-15.5-3.2c.1-.2.1-.3 0-.4-.1-.2-.3-.2-.4-.2-.1 0-.3 0-.3.1-.1.1-.1.1-.1.2 0 0 0 .1.1.1h.1v.2h.6z"/></svg>