<svg id="Layer_1" xmlns="http://www.w3.org/2000/svg" viewBox="0 0 380 242.5"><style>.st0{fill:#fff}</style><path class="st0" d="M104.5 105.7c-7.4-9.5-21-7.5-28.5 4.1-6.5 10-7.9 20.3-4.5 30.3 1.8 5.4 5 9.8 10.7 11.6 6.6 2.1 15.9-1.4 20.4-7.7 4.9-6.8 7.1-14 7.2-19.7.2-8.3-1.7-14-5.3-18.6zm-18.7 42.5c-.2 0-.4 0-.7-.1-.3 0-.6-.1-.9-.2-.3-.1-.7-.2-1.1-.3-.4-.2-.8-.3-1.2-.6-.8-.5-1.7-1.1-2.6-1.9-.8-.8-1.7-1.8-2.4-3-.7-1.1-1.4-2.4-1.9-3.9-.3-.7-.5-1.4-.7-2.2-.1-.4-.2-.7-.3-1.1-.1-.4-.2-.8-.2-1.2-.3-1.6-.4-3.3-.4-5 0-1.7.1-3.4.4-5.1.3-1.7.7-3.4 1.3-5 .5-1.6 1.2-3.1 2-4.5.2-.4.4-.7.6-1 .2-.3.4-.7.6-1 .4-.6.8-1.2 1.3-1.7.9-1.1 1.7-2 2.6-2.8.8-.7 1.6-1.3 2.3-1.7.7-.4 1.2-.7 1.6-.8.3-.1.5-.2.6-.2 0 0-.2.1-.5.3-.4.2-.8.6-1.4 1.1-.6.5-1.3 1.1-2 1.9-.7.8-1.4 1.7-2.1 2.8-.3.5-.7 1.1-1 1.7-.2.3-.3.6-.5.9-.2.3-.3.7-.5 1-.6 1.3-1.1 2.8-1.6 4.3-.4 1.5-.8 3-1 4.6-.2 1.6-.3 3.2-.3 4.8 0 1.6.1 3.2.3 4.7.1.4.1.7.2 1.1.1.4.2.8.2 1.1l.6 2.1c.4 1.4.9 2.6 1.5 3.8.6 1.1 1.2 2.1 1.9 3 .7.8 1.4 1.5 2.1 2.1.4.3.7.5 1 .7.3.2.7.4 1 .5.3.1.6.2.8.3.2.1.5.1.6.2.3.1.5.1.5.2-.2.2-.4.2-.7.1zm1.2-4.8c-3.1-.8-4.9-3-5.8-6-1.8-6.5-1.7-13.3.5-20.5.5-1.8 1.4-3.4 2.5-5 3.4-4.4 8-5.1 11.1-1.6 3.2 3.8 4.2 8.7 4.4 13.4 0 4.6-.6 8.5-2.2 12.5-1.9 5-6.5 8.2-10.5 7.2zm18.4-14.1l-.3 1.2c-.2.9-.4 1.7-.7 2.5-.5 1.6-1.2 3.1-1.9 4.6-.7 1.4-1.5 2.7-2.4 3.8-.9 1.1-1.7 2.1-2.6 2.8-.4.4-.8.7-1.2 1-.4.3-.8.5-1.1.7-.3.2-.7.4-.9.5-.3.1-.5.2-.7.3-.3.1-.5.2-.6.3 0 0 .2-.2.5-.4.2-.1.4-.3.6-.4.2-.2.5-.4.8-.6.3-.2.6-.6 1-.9.3-.3.7-.7 1-1.1.7-.8 1.4-1.8 2.1-2.9.7-1.1 1.3-2.4 1.9-3.7.6-1.4 1.1-2.8 1.5-4.3.2-.8.4-1.5.6-2.3.1-.4.2-.8.2-1.2.1-.4.1-.8.2-1.2.2-1.6.3-3.2.3-4.8 0-1.6-.1-3.2-.3-4.7-.2-1.5-.6-2.9-1-4.3-.4-1.3-1-2.6-1.6-3.7-.1-.3-.3-.6-.5-.8-.2-.3-.3-.5-.5-.7-.3-.5-.7-.9-1-1.4-.7-.8-1.4-1.5-2.2-2-.7-.5-1.4-.9-2-1.2-.6-.3-1.1-.4-1.4-.5-.3-.1-.5-.1-.5-.2h.6c.4 0 .9.1 1.6.2.7.2 1.5.4 2.3.9.8.4 1.7 1 2.6 1.8.4.4.9.8 1.3 1.3.2.2.4.5.6.7.2.3.4.5.6.8.8 1.1 1.4 2.4 2 3.8.5 1.4 1 2.9 1.3 4.5.3 1.6.4 3.3.4 5 0 1.7-.2 3.4-.4 5.1-.1.6-.1 1.1-.2 1.5zm-41-45.5C60.1 74.1 53.3 67.4 42 65.6c-3.9-.6-7.9-.4-11.9.4-9.5 1.7-17.1 6.2-22.4 14.3-2.1 3.2-3 7-5.3 10-1.1 1.4.1 2.3 1.3 2.8 2.9 1.2 5.9 2.1 8.9 2.6 1.8.3 2.7-.2 2.7-2.2 0-3 1-5.7 3.1-8 .5-.5.9-1.4 1.7-1.2.8.3.6 1.2.6 1.9 0 5.7-.4 11.5 0 17.2.2 2.1-.6 3.2-2.5 4-6.7 2.9-10.9 8.2-13.7 14.5-2.7 5.9-2.3 12.2-1.2 18.4 2.4 13.7 15 21.9 26.6 19.3 17.1-3.8 28.2-15.1 34.3-31.5 2.9-7.8 3.8-15.9 3.8-26.8-.1-4.2-.8-11.2-3.6-17.5zM62.5 115c-.4 3.6-1.1 7.2-2.2 10.8-1.2 3.6-2.7 7.1-4.8 10.4-2 3.3-4.5 6.3-7.3 9-1.4 1.3-2.9 2.5-4.4 3.6a38.8 38.8 0 0 1-4.8 3c-3.3 1.8-6.7 3.1-10.2 3.8-.4.1-.9.1-1.4.2-.2 0-.4 0-.7.1h-2c-.4 0-.9-.1-1.3-.1-1.8-.2-3.5-.7-5-1.4-1.6-.7-3-1.7-4.2-2.9-.6-.6-1.2-1.2-1.7-1.9-.2-.3-.5-.7-.7-1-.2-.4-.4-.7-.6-1.1-.8-1.4-1.4-3-1.9-4.5-.4-1.6-.7-3.1-.9-4.7 0-.4-.1-.8-.1-1.2v-3.4c0-.8.1-1.5.1-2.2.1-.7.2-1.5.2-2.2.4-2.9 1.1-5.7 2.3-8.2 1.1-2.5 2.8-4.7 4.7-6.4 1.9-1.7 4.1-2.8 6.3-3.4 1.1-.3 2.2-.5 3.2-.7h.5v-1c.1-3.7.2-7.3.2-10.7 0-1.7.1-3.4.1-4.9 0-1.6.1-3.1.1-4.4.2-5.5.3-9.1.3-9.1h.2s.1 3.6.3 9.1c0 1.4.1 2.9.1 4.4 0 1.6.1 3.2.1 4.9.1 3.4.2 7.1.2 10.7v1h.7c1.9 0 3.6.3 5.1.6 1.5.3 2.8.8 3.9 1.3s1.9.9 2.6 1.3c.7.4 1.2.8 1.5 1 .2.2.3.3.4.3-.1-.1-.2-.2-.4-.3-.3-.2-.9-.6-1.6-.9-.7-.4-1.6-.8-2.7-1.2-1.1-.4-2.4-.8-3.9-1.1-1.5-.3-3.2-.5-5-.5h-.6c0 1.3.1 2.5.1 3.8.1 1.8.1 3.6.1 5.3 0 1.7 0 3.4-.1 4.9 0 .8-.1 1.6-.1 2.3 0 .7-.1 1.5-.1 2.1-.1 1.4-.2 2.6-.2 3.8-.1 1.1-.2 2.1-.2 2.9-.2 1.6-.3 2.5-.3 2.5h-.2s-.1-.9-.3-2.5c-.1-.8-.2-1.8-.2-2.9-.1-1.1-.2-2.4-.2-3.7 0-.7-.1-1.4-.1-2.1 0-.7 0-1.5-.1-2.3-.1-1.6-.1-3.2-.1-4.9 0-1.7.1-3.5.1-5.3 0-1.2.1-2.5.1-3.8H25c-1 .2-2 .4-3 .7-2 .7-4.1 1.8-5.8 3.4-1.8 1.6-3.2 3.7-4.2 6.1-1 2.4-1.6 5.1-2 7.9-.1.7-.1 1.4-.2 2.1 0 .7 0 1.4-.1 2.2v1c0 .4 0 .7.1 1.1 0 .4 0 .8.1 1.1 0 .4.1.7.1 1.1.3 2.9 1.1 5.9 2.7 8.5.2.3.4.6.6 1 .2.3.5.6.7.9.4.6 1 1.1 1.5 1.7 1.1 1 2.4 1.9 3.8 2.5 1.4.6 2.9 1 4.5 1.2.4 0 .8.1 1.2.1h1.7c.2 0 .4 0 .6-.1.4-.1.8-.1 1.2-.2 3.3-.7 6.5-2 9.6-3.6 1.5-.8 3-1.8 4.5-2.8 1.4-1.1 2.8-2.2 4.2-3.5 2.6-2.5 5-5.3 6.9-8.5 1.9-3.1 3.4-6.4 4.6-9.8 1.1-3.4 1.8-6.9 2.2-10.4.2-1.7.3-3.5.3-5.2v-2.6c0-.9 0-1.7-.1-2.6-.1-3.3-.5-6.6-1.1-9.7-.6-3.1-1.6-6.1-2.8-8.8-.3-.7-.6-1.4-1-2-.2-.3-.3-.7-.5-1l-.6-.9-.6-.9-.6-.9c-.2-.3-.4-.6-.7-.8-.1-.1-.2-.3-.3-.4-.1-.1-.2-.3-.4-.4-3.7-4.2-8.7-6.8-13.7-7.7-1.3-.2-2.5-.3-3.7-.3h-.9c-.3 0-.6.1-.9.1-.6 0-1.2.1-1.8.2-2.4.3-4.6.9-6.6 1.8-.5.2-1 .4-1.4.7-.5.3-.9.5-1.4.8-.4.3-.8.6-1.2.8-.2.1-.4.3-.6.4-.2.2-.4.3-.6.4-.2.1-.4.3-.5.4-.2.1-.3.3-.5.5-.3.3-.6.6-1 .9l-.9.9c-.3.3-.6.6-.8.9-.5.6-.9 1.2-1.3 1.8-.4.6-.8 1.1-1.1 1.6l-.9 1.5c-.2.5-.5.9-.7 1.2-.6 1.3-1 2.1-1.1 2.3.1-.2.4-1 1-2.3.2-.4.4-.8.6-1.3.2-.5.5-1 .8-1.5.3-.5.7-1.1 1-1.7.4-.6.8-1.2 1.3-1.8.2-.3.5-.6.8-1 .3-.3.5-.7.8-1l1-1 .5-.5c.2-.2.4-.3.5-.5.2-.2.4-.3.6-.5.2-.2.4-.3.6-.5.4-.3.8-.6 1.3-.9.4-.3.9-.5 1.4-.8.5-.3 1-.5 1.5-.8 2-1 4.3-1.7 6.8-2.1.6-.1 1.3-.2 1.9-.3.3 0 .6-.1.9-.1.3 0 .7 0 1-.1 1.3 0 2.7 0 4 .2 2.7.4 5.3 1.3 7.8 2.6 1.2.7 2.5 1.4 3.6 2.3 1.1.9 2.2 1.8 3.2 2.9 4 4.3 6.7 10.2 8.1 16.6.7 3.2 1.1 6.6 1.3 10 .1 4.1.1 7.6-.3 11.2zm-42.7 28.7c-.3 1.1.2 1.6 1.2 1.5 3.1-.5 6.2-.8 9.3-1 1.2-.1 1.3-.9 1.2-1.9-1.1-7.9-.3-15.9-.4-23.9 0-1.6.9-1.9 2.2-1.4 2.6 1 5 2.3 5.8 5.3.4 1.5 1.3 1.5 2.4.5l7.8-7.8c.6-.6.9-1.4.1-1.9-3.5-2-5.9-5.3-10-6.6-1.9-.6-3.8-1.5-5.9-1.7-1.4-.1-1.9-.7-1.9-2.2.1-8.2-.3-16.4-.7-24.5-.1-1.5.6-2 1.9-2 5.8.1 10.8 1.6 14.5 6.1 7.1 8.6 8.9 19 8.1 30.6-.6 8.5-3.5 16.4-8.1 23.9-3.4 5.5-8.2 9.7-14 11.5-9.7 3-17.1-1-18.9-11.7-.9-5.3.4-10.6 3.9-15.1.4-.5.8-.9 1.3-1.3.2-.2.5-.3.9-.5.2 1.8.5 3.4.4 5.1-.3 6.2.5 12.6-1.1 19zM164 85.6c-2.8.7-5.7 1.5-8.5 2.2-1.5.4-2.3 1-1.6 2.5.4.9.4 1.9.2 2.9-1.2 7.4-3.1 14.8-5 22.2-.6 2.3-1 4.7-2.3 7.3-1.5-3.9-3-7.5-4.4-11.1-.6-1.5-1.8-2.9-1.6-4.5.2-2.9-1.2-2.6-3.2-1.9-1 .3-2 .5-3 .7-1.2.3-1.8.9-1.6 2.1.2 1.3-.3 2.7-.7 4l-4.5 13.8c-.2.5-.3 1-.9 1.5-.1-.2-.3-.4-.4-.6-2.4-8.4-5-16.6-6.7-25.3-.2-1-.1-2.1.4-3.3.6-1.3.3-1.9-1.1-1.6-3.3.7-6.5 1.4-9.8 2.1-1.4.3-1.7 1.1-.8 2 1 .9 1.5 2.2 1.9 3.5 1 3.6 1.9 7.2 2.9 10.8l6.6 24.3c.4 1.5.7 3 .5 4.6-.3 1.5.4 1.7 1.8 1.6 2.4-.3 4.8-1.4 7.2-1.5 2.6-.2 3.1-.8 3-3.5 0-.4 0-.9.1-1.3 1.3-4.8 2.6-9.7 4.6-14.6 1.8 4.7 4.2 9 4.7 14.4.1 1.1.4 1.6 1.6 1.4 2.9-.4 5.8-1.1 8.7-2.1.9-.3 1.3-.7 1.2-1.7-.3-2.9.5-5.9 1.3-8.9 3-11.2 5.7-22.4 8.3-33.6.5-2.2.7-4.4 2.1-6.4 1.2-2 .6-2.4-1-2zm-16.2 47.5c.8-3.3 1.7-6.7 2.6-10 .9-3.7 1.9-7.3 2.9-11 .5-1.8 1-3.7 1.5-5.5.5-1.8 1-3.7 1.5-5.5.5-1.8 1-3.7 1.6-5.5.5-1.8 1-3.7 1.6-5.5h.2c-.4 1.8-.7 3.7-1.1 5.5-.4 1.8-.7 3.7-1.2 5.5-.4 1.8-.8 3.7-1.2 5.5-.4 1.8-.8 3.7-1.2 5.5-.8 3.7-1.7 7.3-2.5 11-.9 3.7-1.7 7.3-2.6 11-.1.3-.2.6-.2.9-.3.1-.6.1-.9.2-.6.1-1.2.2-1.8.4-.2.1-.5.1-.7.2l-.3-.6-8.8-21.4c-3 8.2-6 16.4-9 24.7-.1.1-.1.3-.2.4-.1 0-.3.1-.4.1-.7.2-1.4.3-2.1.5-.2 0-.3.1-.5.1 0-.1-.1-.3-.1-.4l-2.7-9.6-2.7-9.6c-1.8-6.4-3.5-12.8-5.3-19.2.1 0 .1-.1.2-.1 1.9 6.3 3.9 12.7 5.8 19 1 3.2 1.9 6.3 2.9 9.5.9 3 1.8 6 2.8 9l1.2-.3c2.9-8.3 5.7-16.6 8.6-24.9.1-.2.1-.4.2-.6.2-.1.4-.1.6-.2.4-.1.9-.2 1.3-.4.2-.1.4-.1.6-.2.1.2.2.4.2.5 1.6 3.6 3.1 7.2 4.7 10.8l2.4 5.4 2.1 4.8m56.9-15.4V82.2c0-1.8-.2-3.6.9-5.5.5-.9.2-1.6-.7-1.3-3.7.9-7.4 1.8-11.1 2.8-.9.3-1.4 1-.6 1.6 1 .8 1 1.9 1 3.2 0 3.3 0 6.5-.1 9.8 0 .6.3 1.2-.9 2.2-.4-.4-.7-.9-1.2-1.4-3-2.5-5.7-5.3-8.3-8.2-.8-.9-2.1-1.5-1.8-3.3.1-.7-.6-.8-1.2-.6-3.3.9-6.7 1.7-10 2.7-1.4.4-2.2 1.3-1.2 2.6.5.7.8 1.5.8 2.5.1 3.6.4 7.2.2 10.8-.6 9.4-.3 18.5-.2 27.7 0 1.5-.1 2.9-1 4.4-.8 1.4-.4 1.8 1 1.5 3.3-.9 6.7-1.7 10-2.6 1.5-.4 1.9-1.2 1.1-2.4-.7-1.1-1-2.5-.8-4 .6-6.8.1-13.4.3-20.1v-4c1-.4 1.3.1 1.6.3 3.5 3.3 6.9 6.6 10.6 9.7.8.7 1.2 1.7 1.1 2.9-.2 1.2.1 2.3 0 3.5-.2 3.2 1 6.2-1.2 9.8-.7 1 .5 1.2 1.2 1 3.5-.9 7.1-2 10.6-3 .9-.3 1.5-1 .9-1.7-1.3-1.5-1-3.5-1-5.4zm-4-12.6c0 1.3-.1 2.6-.1 3.8 0 1.2-.1 2.5-.2 3.6s-.1 2.2-.2 3.2c-.1 2-.3 3.7-.4 4.9-.1 1.2-.2 1.9-.2 1.9s-.1-.6-.2-1.8c-.1-1.1-.3-2.7-.4-4.7-.1-1-.1-2-.2-3.1 0-1.1-.1-2.3-.1-3.5v-.2c-.2-1.5-1.3-2.6-2-3.2-.3-.2-.7-.4-1-.6-.6-.4-1.3-.9-2-1.4-.7-.5-1.4-1.1-2.1-1.7-.7-.6-1.4-1.3-2.1-1.9-.7-.7-1.5-1.3-2.2-2-1.5-1.3-3-2.7-4.4-3.9-1.4-1.3-2.7-2.5-3.8-3.5-1.8-1.7-3.1-2.9-3.5-3.3 0 .1.1.7.2 1.7.1 1.1.3 2.7.4 4.7.1 1 .1 2 .2 3.1 0 1.1.1 2.3.1 3.5 0 1.2.1 2.5.1 3.8v3.9c0 1.3 0 2.6-.1 3.9 0 1.3-.1 2.6-.1 3.8 0 1.2-.1 2.5-.2 3.6s-.1 2.2-.2 3.2c-.1 2-.3 3.7-.4 4.9-.1 1.2-.2 1.9-.2 1.9s-.1-.6-.2-1.8c-.1-1.1-.3-2.7-.4-4.7-.1-1-.1-2-.2-3.1 0-1.1-.1-2.3-.1-3.5 0-1.2-.1-2.5-.1-3.8v-3.9c0-1.3 0-2.6.1-3.9 0-1.3.1-2.6.1-3.8 0-1.2.1-2.5.2-3.6s.1-2.2.2-3.2c.1-2 .3-3.7.4-4.9.1-1 .2-1.7.2-1.8l-.1-.1.2-.2s1.6 1.2 4.1 2.9c1.2.9 2.6 1.9 4.1 3 1.5 1.1 3.1 2.3 4.7 3.5l2.4 1.8c.8.6 1.6 1.1 2.3 1.7.5.4 1.1.9 1.6 1.3 1.3 1 2.6 1.9 3.9 2.9v-3c0-1.3 0-2.6.1-3.9 0-1.3.1-2.6.1-3.8 0-1.2.1-2.5.2-3.6s.1-2.2.2-3.2c.1-2 .3-3.7.4-4.9.1-1.2.2-1.9.2-1.9s.1.6.2 1.8c.1 1.1.3 2.7.4 4.7.1 1 .1 2 .2 3.1 0 1.1.1 2.3.1 3.5 0 1.2.1 2.5.1 3.8v3.9c-.3 1.5-.3 2.8-.3 4.1zm-25.3-17.4zM88.8 46.1v9.6c1-.2 2.1-.4 3.1-.6.2-.8.3-1.6.5-2.4.6-.1 1.3-.2 1.9-.4V57c-3.4.6-6.8 1.3-10.2 1.9v-1.8c.5-.3 1-.5 1.5-.8v-9.7l-1.5-.3v-1.7c2.1-.4 4.2-.8 6.2-1.2v1.8l-1.5.9zm19.8-6.6c2-.4 3.6-.1 4.8.9 1.1 1 1.7 2.7 1.7 5s-.6 4.3-1.9 6c-1.3 1.7-2.9 2.7-5 3.2-2 .4-3.6.1-4.7-.9s-1.6-2.8-1.6-5.2c0-2.3.6-4.3 1.8-5.9 1.1-1.6 2.8-2.6 4.9-3.1zm-.1 2.6c-1.1.2-1.9.8-2.4 1.6-.5.9-.8 2.2-.8 3.9 0 1.7.2 2.9.7 3.6.5.7 1.3.9 2.3.7 1.1-.2 1.9-.8 2.5-1.7.6-.9.9-2.2.9-4 0-1.7-.3-2.8-.8-3.5-.6-.6-1.4-.8-2.4-.6zm23.7-4.9c-.6-.1-1.4 0-2.3.2-2.3.5-3.4 2.4-3.4 5.8 0 3.1 1.2 4.5 3.5 3.9.6-.1 1.2-.4 1.9-.8.6-.4 1.2-.7 1.5-1.1l.5-.5c.4.5.8 1.1 1.1 1.6-.1.1-.1.2-.2.3-.1.1-.3.4-.7.7-.4.3-.7.7-1.1.9-.4.3-.9.6-1.5.9-.6.3-1.2.5-1.8.7-2.1.5-3.7.2-4.8-.8-1.1-1-1.7-2.7-1.7-5 0-2.4.6-4.4 1.9-6.1 1.2-1.6 2.9-2.7 5-3.2.7-.2 1.5-.3 2.3-.3.8 0 1.4 0 1.8.1.2 0 .4.1.7.1 0 1.3-.1 2.6-.1 3.9-.7.2-1.3.3-2 .5-.3-.6-.4-1.2-.6-1.8zm19.1-7.2c1.5 3.7 2.9 7.4 4.4 11.1.5 0 1 .1 1.4.1V43c-2.2.5-4.3 1.1-6.5 1.6v-1.8c.5-.3 1-.6 1.5-.8-.2-.5-.3-.9-.5-1.4-1.5.4-3 .7-4.5 1.1-.2.5-.3 1.1-.5 1.6.5 0 1.1.1 1.6.1v1.8c-2.1.5-4.1 1-6.2 1.5v-1.8c.5-.3 1-.6 1.5-.8l4.5-13.2 3.3-.9zm-1.8 4c-.5 1.8-1.1 3.5-1.6 5.3 1.1-.3 2.1-.5 3.2-.8-.6-1.5-1.1-3-1.6-4.5zm16.9 6.7v-1.8c.6-.3 1.1-.6 1.7-.9v-9.7c-.6.2-1.3.3-1.9.5-.2.7-.3 1.4-.5 2.1-.6.2-1.3.3-1.9.5v-4.3c4-1 7.9-2 11.9-3.1v4.4c-.6.2-1.3.3-1.9.5-.2-.6-.3-1.2-.5-1.8-.6.2-1.3.3-1.9.5v9.7c.6 0 1.1.1 1.7.1v1.8c-2.3.4-4.5.9-6.7 1.5zm21.4-17.5v3.4c1.4-.4 2.8-.7 4.1-1.1v2.3c-1.4.4-2.8.7-4.1 1.1v4l3.6-.9c.2-.6.3-1.2.5-1.8.6-.2 1.3-.3 1.9-.5v4.1c-3.6.9-7.1 1.8-10.7 2.7v-1.8l1.5-.9v-9.7c-.5-.1-1-.1-1.5-.2v-1.7c1.6-.4 3.1-.9 4.7-1.3l5.7-1.5v4c-.6.2-1.3.3-1.9.5-.2-.5-.3-.9-.5-1.4-1 .1-2.2.4-3.3.7zm14.3 8.4v-1.8l1.5-.9v-9.7c-.5-.1-1-.1-1.5-.2v-1.7c1.6-.4 3.1-.9 4.7-1.3.6-.2 1.3-.3 1.9-.5 2.1-.5 3.7-.3 4.8.6 1.1.9 1.7 2.5 1.7 4.8s-.6 4.3-1.8 5.9c-1.2 1.6-2.9 2.7-5 3.2s-4.2 1-6.3 1.6zm4.7-13.3v9.6c.6-.1 1.1-.3 1.7-.4 1.1-.3 1.9-.9 2.5-1.8.6-.9.9-2.2.9-4 0-1.7-.3-2.8-.8-3.4-.5-.6-1.3-.8-2.4-.5-.7.2-1.3.4-1.9.5zm68.8 46.6c-7.4-9.5-21-7.1-28.5 5-6.5 10.5-7.9 20.9-4.5 30.7 1.8 5.3 5 9.4 10.7 10.9 6.6 1.7 15.9-2 20.4-8.3 4.9-6.8 7.1-14 7.2-19.6.2-8.4-1.7-14.1-5.3-18.7zm-18.7 42.9h-.7c-.3 0-.6-.1-.9-.1-.3-.1-.7-.2-1.1-.3-.4-.1-.8-.3-1.2-.5-.8-.4-1.7-1-2.6-1.7-.8-.8-1.7-1.7-2.4-2.8-.7-1.1-1.4-2.3-1.9-3.7-.3-.7-.5-1.4-.7-2.2-.1-.4-.2-.7-.3-1.1-.1-.4-.2-.8-.2-1.2-.3-1.6-.4-3.2-.4-4.9 0-1.7.1-3.4.4-5.2.3-1.7.7-3.4 1.3-5.1.5-1.6 1.2-3.2 2-4.6.2-.4.4-.7.6-1 .2-.3.4-.7.6-1 .4-.6.8-1.3 1.3-1.8.9-1.1 1.7-2.1 2.6-2.9.8-.8 1.6-1.4 2.3-1.8.7-.4 1.2-.7 1.6-.9.3-.2.5-.2.6-.3 0 0-.2.2-.5.4s-.8.6-1.4 1.1c-.6.5-1.3 1.2-2 2s-1.4 1.8-2.1 2.9c-.3.6-.7 1.2-1 1.8-.2.3-.3.6-.5.9-.2.3-.3.7-.5 1-.6 1.4-1.1 2.8-1.6 4.4-.4 1.5-.8 3.1-1 4.7-.2 1.6-.3 3.2-.3 4.8 0 1.6.1 3.1.3 4.6.1.4.1.7.2 1.1.1.4.2.7.2 1.1l.6 2.1c.4 1.3.9 2.6 1.5 3.7s1.2 2.1 1.9 2.9c.7.8 1.4 1.5 2.1 2 .4.3.7.5 1 .7.3.2.7.3 1 .5.3.1.6.2.8.3.2.1.5.1.6.2.3.1.5.1.5.1-.2-.1-.3-.1-.7-.2zm1.2-4.8c-3.1-.6-4.9-2.8-5.8-5.7-1.8-6.4-1.7-13.2.5-20.5.5-1.8 1.4-3.5 2.5-5.1 3.4-4.6 8-5.5 11.1-2 3.2 3.7 4.2 8.6 4.4 13.3 0 4.6-.6 8.5-2.2 12.5-1.8 4.9-6.5 8.3-10.5 7.5zm18.6-14.6l-.3 1.2c-.2.9-.4 1.7-.7 2.5-.5 1.6-1.2 3.1-1.9 4.6-.7 1.4-1.5 2.7-2.4 3.8-.9 1.1-1.7 2.1-2.6 2.9-.4.4-.8.7-1.2 1-.4.3-.8.6-1.1.8-.3.2-.7.4-.9.5-.3.1-.5.2-.7.3-.3.2-.5.2-.6.3 0 0 .2-.2.5-.4.2-.1.4-.3.6-.5.2-.2.5-.4.8-.7.3-.3.6-.6 1-.9.3-.3.7-.7 1-1.1.7-.8 1.4-1.8 2.1-2.9.7-1.1 1.3-2.4 1.9-3.7.6-1.4 1.1-2.8 1.5-4.3.2-.8.4-1.5.6-2.3.1-.4.2-.8.2-1.2.1-.4.1-.8.2-1.2.2-1.6.3-3.2.3-4.8 0-1.6-.1-3.2-.3-4.7-.2-1.5-.6-2.9-1-4.3-.4-1.3-1-2.6-1.6-3.7-.1-.3-.3-.6-.5-.8-.2-.3-.3-.5-.5-.7-.3-.5-.7-.9-1-1.3-.7-.8-1.4-1.5-2.2-2-.7-.5-1.4-.9-2-1.2-.6-.2-1.1-.4-1.4-.5-.3-.1-.5-.1-.5-.1h.6c.4 0 .9.1 1.6.2.7.2 1.5.4 2.3.8.8.4 1.7 1 2.6 1.8.4.4.9.8 1.3 1.3.2.2.4.5.6.7.2.3.4.5.6.8.8 1.1 1.4 2.4 2 3.8.5 1.4 1 2.9 1.3 4.5.3 1.6.4 3.3.4 5 0 1.7-.2 3.4-.4 5.1 0 .6-.1 1-.2 1.4z"/><path class="st0" d="M257.1 45.8c-1.2-.8-2.4-1.5-3.6-2.3-.9-.6-1.9-1.7-2.9-1.5-1.6.2-1.4 2.2-2.2 3.4-4.3 6.2-10.1 9.3-16.5 10.4-8.4 1.5-16.4.8-24.1-.6-10.6-1.9-21.4-2.8-33-.8-6.3 1.1-12.4 3.6-18.3 7.5-5.7 3.8-9.9 9.2-14.7 14-.8.8-.7 1.3-.2 1.9 1.6 1.6 3.1 3.3 4.9 4.6 1.4 1 2.3.8 3.3-1.3 2.5-5 6.7-8.5 11.3-11.2 9.9-5.9 19.8-7.5 29.4-6.5 9.8 1 19.5 2.2 29.6 2 2.1 0 2.4 1 2.4 2.8-.1 15.4-.1 30.7-.2 46 0 1.6 0 3.2-.8 4.9-.6 1.3 0 1.6 1.1 1.3l4.8-1.2v.1c1.4-.3 2.8-.7 4.1-1 1.6-.4 3.1-.8 1.7-2.8-.4-.5-.3-1.5-.3-2.3V66.1c0-1.9.7-2.4 2.4-2.9 3.7-1.1 7.2-2.5 10.6-5.2 3.9-3.2 7.3-6.9 10.8-10.5 1.3-.8 1.1-1.2.4-1.7zm-8 5l-.6.6-.6.6c-.4.4-.9.8-1.3 1.2-.4.4-.9.7-1.4 1.1-.5.4-.9.7-1.4 1.1-.5.3-1 .7-1.4 1l-1.5.9c-.5.3-1 .6-1.5.8-.5.3-1 .5-1.5.8-.5.3-1 .5-1.6.7-.5.2-1.1.4-1.6.6-.3.1-.5.2-.8.3-.3.1-.5.2-.8.2-.3.1-.5.1-.8.2-.1 0-.3.1-.4.1-.1 0-.3.1-.4.1-.5.1-1 .2-1.6.3-.3 0-.5.1-.8.1-.4 18.3-.7 36.7-1.1 55-.4-18.2-.7-36.5-1.1-54.7.1 0 .2 0 .2-.1h-.4c-.5 0-1 .1-1.6.1-1 .1-2.1.2-3.1.2-1 .1-2.1.1-3.1.1h-3c-1 0-2 0-3-.1-1 0-2-.1-3-.2l-3-.3-3-.3c-1.1-.3-2.3-.5-3.5-.7-1.2-.2-2.4-.4-3.6-.5-1.2-.2-2.4-.3-3.6-.4-.6-.1-1.2-.1-1.8-.1-.3 0-.6 0-.9-.1h-.9c-.6 0-1.2 0-1.9-.1H182c-.6 0-1.3.1-1.9.1-.3 0-.6 0-1 .1-.3 0-.6.1-1 .1-.6.1-1.3.1-1.9.2-.6.1-1.3.2-1.9.3-.3 0-.6.1-.9.1-.3.1-.6.1-1 .2-.7.1-1.3.3-2 .4h-.1c-.1 0-.2 0-.2.1-.2 0-.3.1-.5.1l-.9.3-.9.3c-.3.1-.6.2-.9.4-1.3.5-2.5 1.1-3.7 1.7-.6.3-1.2.7-1.8 1-.6.3-1.2.7-1.8 1.1l-1.8 1.2-.9.6c-.3.2-.6.4-.9.7-.3.2-.6.4-.9.7-.3.2-.6.5-.8.7-.3.2-.6.5-.8.7-.3.2-.5.5-.8.7-.3.2-.5.5-.8.7-.3.2-.5.5-.8.7-.5.5-1 1-1.6 1.5-1 1-2 2.1-3 3.2.9-1.2 1.8-2.3 2.7-3.5.5-.5 1-1.1 1.5-1.6l.8-.8.8-.8.8-.8c.5-.5 1.1-1 1.6-1.5.3-.2.6-.5.9-.7.3-.2.6-.5.8-.7.3-.2.6-.5.9-.7.6-.5 1.2-.9 1.8-1.3.6-.4 1.2-.9 1.8-1.2.6-.4 1.2-.8 1.9-1.1 1.3-.7 2.6-1.4 3.9-1.9.3-.1.7-.3 1-.4.3-.1.7-.2 1-.4.3-.1.7-.2 1-.3.2-.1.3-.1.5-.2.1 0 .2-.1.3-.1h.2c.7-.2 1.3-.3 2-.5.3-.1.6-.2 1-.2.3-.1.7-.1 1-.2.7-.1 1.3-.3 2-.4.7-.1 1.3-.2 2-.3.3 0 .7-.1 1-.1.3 0 .7-.1 1-.1.7-.1 1.3-.1 2-.2.6 0 1.3-.1 1.9-.1.6 0 1.3-.1 1.9 0h1.9c.6 0 1.3 0 1.9.1h1c.3 0 .6 0 .9.1.6 0 1.3.1 1.9.1 1.2.1 2.5.2 3.7.4 1.2.1 2.5.3 3.7.5 1.2.2 2.4.4 3.5.7.9.1 1.9.3 2.8.4 1 .1 1.9.2 2.9.3 1 .1 2 .2 2.9.2 1 .1 2 .1 3 .2 1 0 2 .1 3 .1h3c1 0 2 0 3-.1.5 0 1-.1 1.5-.1s1-.1 1.5-.1 1-.1 1.5-.1c.5-.1 1-.2 1.6-.2.1 0 .3 0 .4-.1.1 0 .2-.1.4-.1.2-.1.5-.1.7-.2.2-.1.5-.1.7-.2.3-.1.5-.2.8-.2.5-.1 1-.3 1.5-.5s1-.3 1.5-.6c.5-.2 1-.4 1.5-.7.5-.2 1-.5 1.5-.7.5-.3 1-.5 1.5-.8.5-.3 1-.6 1.4-.9.5-.3.9-.6 1.4-.9.5-.3.9-.7 1.4-1 .9-.7 1.8-1.4 2.7-2.2.9-.8 1.7-1.6 2.4-2.5-.8 1-1.6 1.9-2.4 2.8zm-73.7 36.9zm0 0zm160.1-38.5c-2.8.3-5.7.6-8.5 1-1.5.2-2.3.7-1.6 2.3.4.9.4 1.9.2 3-1.2 7.2-3.1 14.4-5 21.6-.6 2.2-1 4.6-2.3 7-1.5-4.1-3-7.8-4.4-11.6-.6-1.5-1.8-3.1-1.6-4.7.2-2.9-1.2-2.7-3.2-2.2-1 .2-2 .3-3 .5-1.2.2-1.8.8-1.6 2 .2 1.3-.3 2.6-.7 3.9l-4.5 13.5c-.2.5-.3 1-.9 1.4-.1-.2-.3-.4-.4-.6-2.4-8.5-5-16.9-6.7-25.7-.2-1-.1-2.1.4-3.3.6-1.2.3-1.9-1.1-1.7-3.3.6-6.5 1.2-9.8 1.9-1.4.3-1.7 1-.8 1.9 1 .9 1.5 2.2 1.9 3.5 1 3.6 1.9 7.2 2.9 10.8 2.2 8.2 4.4 16.3 6.6 24.5.4 1.5.7 3 .5 4.6-.3 1.5.4 1.8 1.8 1.7 2.4-.2 4.8-1.1 7.2-1.1 2.6 0 3.1-.6 3-3.3 0-.4 0-.9.1-1.3 1.3-4.7 2.6-9.5 4.6-14.2 1.8 4.8 4.2 9.4 4.7 14.8.1 1.1.4 1.7 1.6 1.6 2.9-.2 5.8-.5 8.7-1.2.9-.2 1.3-.6 1.2-1.5-.3-2.9.5-5.8 1.3-8.7 3-10.8 5.7-21.7 8.3-32.5.5-2.1.7-4.3 2.1-6.1 1.2-1.5.6-2-1-1.8zm-5.6 9.3c-.4 1.8-.8 3.6-1.2 5.3-.4 1.8-.8 3.6-1.2 5.3-.4 1.8-.8 3.6-1.2 5.3-.8 3.5-1.7 7.1-2.5 10.7-.9 3.6-1.7 7.1-2.6 10.7-.1.3-.2.6-.2.9l-2.2.4-10.4-22.9c-3 7.9-5.9 15.9-8.9 23.9-.1.1-.1.3-.2.4-.1 0-.3.1-.4.1-.7.1-1.4.3-2.1.4-.2 0-.3.1-.5.1 0-.1-.1-.3-.1-.4-.9-3.2-1.8-6.5-2.7-9.7-.9-3.2-1.8-6.5-2.7-9.7-1.8-6.5-3.5-12.9-5.3-19.4.1 0 .1-.1.2-.1 1.9 6.4 3.9 12.8 5.8 19.2 1 3.2 1.9 6.4 2.9 9.6.9 3.1 1.8 6.1 2.8 9.2.4-.1.8-.2 1.2-.2 2.9-8.1 5.7-16.2 8.6-24.3.1-.2.1-.4.2-.6.2 0 .4-.1.6-.1.4-.1.9-.2 1.3-.2.2 0 .4-.1.6-.1.1.2.2.4.2.5 1.6 3.7 3.1 7.5 4.7 11.3.8 1.9 1.6 3.8 2.4 5.6.7 1.7 1.4 3.3 2.1 5l.2.1v-.1c.8-3.2 1.7-6.5 2.6-9.7.9-3.5 1.9-7.1 2.9-10.6.5-1.8 1-3.5 1.5-5.3.5-1.8 1-3.5 1.5-5.3.5-1.8 1-3.5 1.6-5.3.5-1.8 1-3.5 1.6-5.3h.2c-.5 1.7-.9 3.5-1.3 5.3zm-9.6 38.2l-.3.1m26.9-43.6zm0 0zm29.3 36.3V54c0-1.8-.2-3.6.9-5.3.5-.8.2-1.5-.8-1.5-3.7-.1-7.4 0-11.1.2-.9 0-1.4.7-.6 1.5 1 1 1 2.2 1 3.4 0 3.3 0 6.5-.1 9.8 0 .6.3 1.3-.9 2-.4-.5-.7-1.1-1.2-1.6-3-3.2-5.7-6.5-8.3-10-.8-1.1-2.1-1.9-1.8-3.7.1-.7-.6-.9-1.2-.8-3.3.2-6.7.5-10 .9-1.4.2-2.2.9-1.2 2.4.5.8.8 1.7.8 2.6.1 3.6.4 7.3.2 10.9-.6 9.3-.3 18.5-.2 27.7 0 1.5-.1 2.9-1 4.2-.8 1.2-.4 1.8 1 1.7 3.3-.3 6.7-.6 10-.9 1.5-.1 1.9-.9 1.1-2.2-.7-1.3-1-2.7-.8-4.2.6-6.7.1-13.3.3-20v-4c1-.2 1.3.3 1.6.6 3.5 4 6.9 8 10.6 11.9.8.9 1.2 2 1.1 3.2-.2 1.2.1 2.3 0 3.5-.2 3.2 1 6.5-1.2 9.5-.7.9.5 1.3 1.2 1.3 3.5-.1 7.1-.3 10.6-.5.9 0 1.5-.6.9-1.5-1.2-1.8-.9-3.7-.9-5.6zm-4-13.6c0 1.3-.1 2.6-.1 3.8 0 1.2-.1 2.4-.2 3.6-.1 1.1-.1 2.2-.2 3.2-.1 2-.3 3.6-.4 4.8-.1 1.2-.2 1.8-.2 1.8s-.1-.7-.2-1.8-.3-2.8-.4-4.8c-.1-1-.1-2.1-.2-3.2 0-1.1-.1-2.3-.1-3.6v-.1c-.2-1.6-1.3-2.9-2-3.7-.3-.3-.7-.6-1-.9-.6-.6-1.3-1.2-2-1.8l-2.1-2.1-2.1-2.4c-.7-.8-1.5-1.7-2.2-2.5-1.5-1.6-3-3.3-4.4-4.8-1.4-1.5-2.7-3-3.8-4.2-1.8-2-3.1-3.5-3.5-3.9 0 .2.1.8.2 1.7.1 1.1.3 2.8.4 4.7.1 1 .1 2 .2 3.2 0 1.1.1 2.3.1 3.5 0 1.2.1 2.5.1 3.8v3.9c0 1.3 0 2.6-.1 3.9 0 1.3-.1 2.6-.1 3.8 0 1.2-.1 2.4-.2 3.6-.1 1.1-.1 2.2-.2 3.2-.1 2-.3 3.6-.4 4.8-.1 1.2-.2 1.8-.2 1.8s-.1-.7-.2-1.8-.3-2.8-.4-4.7c-.1-1-.1-2-.2-3.2 0-1.1-.1-2.3-.1-3.5 0-1.2-.1-2.5-.1-3.8v-3.9c0-1.3 0-2.6.1-3.9 0-1.3.1-2.6.1-3.8 0-1.2.1-2.4.2-3.6.1-1.1.1-2.2.2-3.2.1-2 .3-3.6.4-4.8.1-1 .2-1.7.2-1.8l-.1-.1.2-.2s1.6 1.4 4.1 3.7c1.2 1.1 2.6 2.4 4.1 3.8 1.5 1.4 3.1 3 4.7 4.5.8.8 1.6 1.5 2.4 2.3.8.7 1.6 1.5 2.3 2.2l.4.4.3.3.4.4c.2.2.3.4.5.6 1.3 1.3 2.6 2.5 3.9 3.8v-3c0-1.3 0-2.6.1-3.9 0-1.3.1-2.6.1-3.8 0-1.2.1-2.4.2-3.6.1-1.1.1-2.2.2-3.2.1-2 .3-3.6.4-4.8.1-1.2.2-1.8.2-1.8s.1.7.2 1.8.3 2.8.4 4.8c.1 1 .1 2.1.2 3.2 0 1.1.1 2.3.1 3.6 0 1.2.1 2.5.1 3.8v3.9c-.3 1.4-.3 2.7-.3 4zm-25.3-22.7zm0 0zm0 0zm0 0zm0 0zM165.2 179.7c-.6-10.8-3.8-19.6-9.6-26.8-3.5-4.3-8.8-4.7-14-3.1-9.9 3.5-15.8 9.9-18.5 18.9-1.2 4.1-1.4 8-1 11.7.4 3.6.4 3.6-3.1 3.4-2.4-.2-2.8.2-3 2.7-.1 1-.2 2-.5 2.9-1.5 5.3-1.9 10.4-2.1 15.5-.2 5.7.7 10.9 1.7 16.1 1.6 8.2 5.4 14.4 12.6 17.4 5.3 2.2 11.3 2.3 17.9-3 5.9-4.7 10.4-10.3 13.1-17.4 4.9-13.3 7.1-26 6.5-38.3zm-39.3 12.5c0-.7 0-1.6.8-2.2.7-.6 1.1.1 1.6.4 3.6 2.4 7.7 3.6 12.3 4.2 1.6.2 2.8-.2 3.5-2.3 1.2-3.6 2.3-7.2 3.4-10.8.6-1.8.1-2.6-1.8-2.2-6.6 1.4-12-4.2-10.9-11.1.4-2.4 1.5-4.7 3.8-6.3 2.3-1.6 4.3-1.6 6-.6 2.9 1.8 4.6 4.7 5.6 8.2 2.8 9.6 4 20 2.7 31.5-.7 5.7-2.2 11.6-5.4 17.4-4.5 8.4-11.1 10.9-16 6-3.3-3.3-4.7-7.8-5.3-12.9-.4-3-.6-6-.5-9.3-.6-3.1 0-6.6.2-10zm34.3.7c0 .8-.1 1.7-.1 2.5s-.1 1.7-.2 2.5c-.3 3.3-.8 6.7-1.6 10.2-.4 1.7-1 3.5-1.6 5.2-.7 1.8-1.4 3.5-2.3 5.2-1.8 3.5-4.2 6.8-7.1 9.6-.7.7-1.5 1.3-2.3 1.9-.8.6-1.6 1.1-2.4 1.6-.8.5-1.6.9-2.5 1.3-.4.2-.8.4-1.2.5-.2.1-.4.2-.6.2-.3.1-.4.1-.7.2-.1 0-.2.1-.4.1-.1 0-.2 0-.3.1-.2 0-.4.1-.6.1-.4.1-.8.1-1.2.1-.8 0-1.6 0-2.4-.1-1.5-.2-2.9-.6-4.2-1.2-1.3-.6-2.4-1.4-3.4-2.4-.5-.5-1-1-1.4-1.6-.4-.6-.8-1.1-1.2-1.8-1.4-2.5-2.4-5.3-3-8.3-.6-3-.8-6.1-.8-9.4 0-3.2.2-6.5.6-9.8.2-1.6.4-3.3.7-5 .2-1.7.6-3.3.9-5-.2 1.7-.5 3.3-.6 5-.2 1.6-.4 3.3-.4 4.9-.3 3.3-.3 6.5-.2 9.6.1 3.1.5 6.2 1.1 9 .6 2.9 1.7 5.5 3.1 7.8.3.6.8 1.1 1.2 1.6.4.5.9 1 1.4 1.4 1 .9 2 1.6 3.2 2.1 1.2.5 2.5.9 3.9 1 .7.1 1.4.1 2.1 0 .4 0 .7-.1 1.1-.1.2 0 .4-.1.5-.1.1 0 .2 0 .3-.1.1 0 .2 0 .2-.1.1 0 .4-.1.5-.2.2-.1.4-.2.6-.2.4-.2.8-.3 1.1-.5.8-.4 1.5-.8 2.2-1.2.7-.4 1.4-1 2.1-1.5.7-.6 1.4-1.1 2-1.7 2.6-2.5 4.7-5.5 6.4-8.7.8-1.6 1.5-3.2 2.1-4.9.6-1.6 1.1-3.3 1.4-4.9.8-3.3 1.3-6.6 1.5-9.8.1-.8.1-1.6.2-2.4 0-.8.1-1.6.1-2.4v-4.7c0-3.2-.2-6.3-.5-9.3-.3-3.1-.7-6-1.3-8.9-.6-2.9-1.4-5.6-2.6-8l-.9-1.8c-.2-.3-.4-.6-.5-.8-.1-.1-.2-.3-.3-.4-.1-.1-.2-.3-.3-.4-.8-1.1-1.7-2-2.7-2.7-1-.7-2.2-1.3-3.5-1.6-.6-.1-1.3-.2-2-.2-.3 0-.7 0-1.1.1-.2 0-.4.1-.5.1-.2 0-.4.1-.5.1h-.1c-.9.3-1.9.7-2.8 1.2-.9.5-1.9 1-2.7 1.7-1.8 1.2-3.4 2.8-4.7 4.6-.6.9-1.2 1.8-1.6 2.8-.4 1-.8 2-1 3-.1.2-.1.5-.2.7 0 .2-.1.5-.1.7 0 .5-.1 1-.1 1.5v2.3c0 .2 0 .5.1.7.1.9.2 1.8.5 2.7.2.8.5 1.7.9 2.4.4.8.8 1.5 1.3 2.1.5.7 1.1 1.3 1.7 1.8 1.2 1.1 2.7 1.9 4.2 2.6.8.3 1.6.6 2.4.8.8.2 1.7.4 2.6.5-.9 0-1.8-.2-2.7-.3-.9-.2-1.7-.4-2.5-.7-.8-.3-1.6-.6-2.3-1-.7-.4-1.5-.9-2.1-1.4-.7-.5-1.3-1.1-1.8-1.7-.6-.6-1.1-1.4-1.5-2.1-.4-.8-.8-1.6-1.1-2.5-.3-.9-.5-1.8-.6-2.8 0-.2-.1-.5-.1-.7v-2.3c0-.5.1-1 .1-1.6 0-.3.1-.5.1-.8 0-.3.1-.5.1-.8.2-1.1.6-2.2 1-3.3.4-1.1 1-2.2 1.7-3.2 1.4-2.1 3.2-3.9 5.2-5.3 1-.7 2-1.3 3-1.9 1-.5 2-1 3.1-1.4.3-.1.4-.1.6-.2.2-.1.4-.1.7-.1.4-.1.9-.1 1.3-.1.8 0 1.6 0 2.4.2 1.5.3 2.8.9 4 1.7 1.2.8 2.1 1.8 3 2.9.1.1.2.3.3.4.1.1.2.3.3.4l.6.9c.3.6.7 1.2 1 1.9 1.3 2.6 2.2 5.4 2.8 8.3.1.4.2.7.3 1.1.1.4.1.7.2 1.1.1.7.3 1.5.4 2.3.1.8.2 1.5.3 2.3.1.8.2 1.5.2 2.3.3 3.1.5 6.3.5 9.5v5zm60.9-6.6c.1-12 .3-24.1.4-36.1 0-1.1 0-2.2.6-3.4 1.1-2.1.1-2.2-1.4-1.7-2.7.9-5.4 1.9-8.1 3-1.6.6-3.4 1-2.9 3.5.1.5-.5 1.5-.9 2.3-3.3 6.3-6.7 12.6-10 19-.9 1.8-1.4 2-2.3.9-3.3-4.2-6.7-8.4-10-12.6-.3-.4-.7-.7-.5-1.4.4-1.6-.5-1.3-1.5-1.2-2.6.4-5.2 2.1-7.8 3-3.2 1.1-3.2 1.2-2.3 3.9.1.3.1.7.2 1 .9 3.4-.1 7.5 0 11.3.1 11.1 0 22.3 0 33.5 0 3.4-1 6.8-2.9 10.3-1.4 2.5-2.9 4.7-5.7 5.4-1.2.3-1.8 1.1-1.5 2.3.7 3.4 1.9 6.6 3.2 9.6.4.9 1 .9 2-.1 9.8-10 15.5-20.8 15.5-32.8-.1-8.4 0-16.8 0-25.2.2-.2.4-.3.5-.5.1.2.3.4.4.6 1.7 1.8 3.9 3.1 4.9 5.3 1.5 3.8 4.5 2.9 8.2 1.2 1.9-.9 3.8-1.3 3.7-4 0-.3.3-.8.5-1.1 2-3.4 3.9-6.8 5.9-10.3.3-.5.5-1.3 1.3-1.3 0 5.7.3 11.3-.1 17.2-.2 3 1 5.7-.7 9.2-.4.8.3.9.9.8 3.5-.9 7.1-2.2 10.6-3.9.9-.4 1.4-1.1.8-1.8-1.1-1.7-1-3.8-1-5.9zm-40.3 10.4c0 2.1 0 4.2-.1 6.2 0 1-.1 2.1 0 3 0 1-.1 2.1-.2 3.1-.2 2.1-.6 4.1-1.1 6.1-.5 1.9-1.2 3.8-1.9 5.5-.8 1.7-1.6 3.2-2.5 4.5-.9 1.3-1.7 2.3-2.5 3.2-.7.8-1.4 1.4-1.8 1.8-.4.4-.7.6-.7.6s.2-.2.6-.7c.4-.4 1-1.1 1.6-1.9.7-.9 1.4-1.9 2.1-3.2.7-1.3 1.4-2.7 2-4.4.6-1.6 1.1-3.4 1.5-5.2.4-1.8.6-3.8.8-5.7.1-1 .1-1.9.1-2.9v-9.2c0-2.1 0-4.2.1-6.2 0-2 .1-4.1.1-6 0-2 .1-3.9.2-5.7.1-1.8.1-3.5.2-5.1.1-1.6.2-3 .2-4.3.1-1.3.2-2.4.2-3.4.1-.9.1-1.7.2-2.2 0-.5.1-.8.1-.8s0 .3.1.7c0 .5.1 1.2.1 2.1.1.9.1 2 .2 3.2.1 1.2.1 2.6.2 4.2.1 1.5.1 3.2.2 5 0 1.8.1 3.6.1 5.6 0 1.9.1 3.9.1 6-.2 2-.2 4-.2 6.1zm17.2-15.5c.6-1.1 1.2-2.2 1.8-3.2.7-1.3 1.4-2.6 2.1-3.8 1.4-2.6 2.9-5.1 4.3-7.7.7-1.3 1.5-2.5 2.2-3.8.7-1.3 1.5-2.5 2.2-3.8.8-1.3 1.5-2.5 2.3-3.8.8-1.3 1.5-2.5 2.3-3.8l-1.8 3.9c-.6 1.3-1.3 2.6-1.9 3.9-.6 1.3-1.3 2.6-1.9 3.9-.6 1.3-1.3 2.6-2 3.9-1.3 2.6-2.7 5.2-4 7.8l-2.1 3.9-2.1 3.9-.3.6c-.2.1-.4.1-.6.2-.5.2-1.1.4-1.6.6-.2.1-.4.1-.6.2-.1-.1-.2-.2-.3-.4-1.4-1.5-2.7-3.1-4-4.6-.7-.8-1.3-1.6-2-2.3-.7-.8-1.3-1.6-1.9-2.4-.6-.8-1.3-1.6-1.9-2.4-.3-.4-.6-.8-1-1.2l-.9-1.2c-.6-.8-1.3-1.6-1.9-2.5-.6-.8-1.2-1.7-1.8-2.5.8.7 1.5 1.3 2.3 2 .8.7 1.5 1.4 2.2 2.1.4.3.7.7 1.1 1.1l1.1 1.1 2.2 2.2c.7.7 1.4 1.4 2.1 2.2.7.7 1.4 1.5 2.1 2.2 1.3 1.4 2.6 2.7 3.8 4.1m19.9-6.8c0 1.3-.1 2.6-.1 3.8 0 1.2-.1 2.5-.2 3.6s-.1 2.2-.2 3.2c-.1 2-.3 3.7-.4 4.9-.1 1.2-.2 1.9-.2 1.9s-.1-.6-.2-1.7-.3-2.7-.4-4.6c-.1-1-.1-2-.2-3.1 0-1.1-.1-2.3-.1-3.5 0-1.2-.1-2.5-.1-3.8v-3.9c0-1.3 0-2.6.1-3.9 0-1.3.1-2.6.1-3.8 0-1.2.1-2.5.2-3.6s.1-2.2.2-3.2c.1-2 .3-3.7.4-4.9.1-1.2.2-1.9.2-1.9s.1.6.2 1.7.3 2.7.4 4.6c.1 1 .1 2 .2 3.1 0 1.1.1 2.3.1 3.5 0 1.2.1 2.5.1 3.8v3.9c-.1 1.2-.1 2.6-.1 3.9zm36.8-10.9c-.6-1.4-1.1-2.8-1.6-4.1-.3-.7-.5-1.4-.8-2.1-.3-.7-.5-1.4-.8-2.1l-1.5-4.2c-.9-2.7-1.7-5.3-2.6-8-.3.1-.7.2-1 .3-1.9 6.8-3.9 13.5-5.8 20.3-1 3.5-2 6.9-3 10.4.1-.1.3-.2.5-.3.5-.3 1.3-.8 2.3-1.2.9-.5 2-1 3.2-1.5.6-.2 1.2-.5 1.8-.7.6-.2 1.2-.5 1.9-.7.6-.2 1.3-.4 1.9-.6.6-.2 1.2-.4 1.8-.5 1.2-.3 2.3-.6 3.2-.8.8-.2 1.5-.3 2-.3l-1.5-3.9zm-5.5 1.8c-1.4.3-2.7.9-4.1 1.6-.6.3-1.6.8-1.3-.4 1.1-3.9 1.7-7.7 3.6-11.7.9 2.9 1.9 5.9 2.8 8.8.4.8.2 1.4-1 1.7zm5.5-1.8c-.6-1.4-1.1-2.8-1.6-4.1-.3-.7-.5-1.4-.8-2.1-.3-.7-.5-1.4-.8-2.1l-1.5-4.2c-.9-2.7-1.7-5.3-2.6-8-.3.1-.7.2-1 .3-1.9 6.8-3.9 13.5-5.8 20.3-1 3.5-2 6.9-3 10.4.1-.1.3-.2.5-.3.5-.3 1.3-.8 2.3-1.2.9-.5 2-1 3.2-1.5.6-.2 1.2-.5 1.8-.7.6-.2 1.2-.5 1.9-.7.6-.2 1.3-.4 1.9-.6.6-.2 1.2-.4 1.8-.5 1.2-.3 2.3-.6 3.2-.8.8-.2 1.5-.3 2-.3l-1.5-3.9zm-5.5 1.8c-1.4.3-2.7.9-4.1 1.6-.6.3-1.6.8-1.3-.4 1.1-3.9 1.7-7.7 3.6-11.7.9 2.9 1.9 5.9 2.8 8.8.4.8.2 1.4-1 1.7zm17.3 10.4c-1.3-.7-1.6-2.2-2.1-3.5-3.2-9.4-6.2-18.9-8.9-28.6-.8-3-2-5.8-1.8-9.4.1-1.2-.6-1.3-1.6-.9-1.6.6-3.2 1.1-4.8 1.7-1.7.6-3.3 1.2-5 1.8-1.2.4-1.8 1.1-1.7 2.3.4 4.6-1 9.6-2.6 14.4-3.8 11.9-5.2 23.8-10.4 35.8-.4 1-.5 2 .8 1.6 3.5-1.2 7-2.5 10.4-3.7.7-.3 1.4-1 1-1.6-.9-1.6.4-3.6.6-5.4.1-1.4.9-2.1 2.2-2.6 2.8-1 5.5-1.8 8.3-3 1.5-.7 2.6-.4 3 1.1.3 1.5.8 2.8.4 4.6-.2.9 0 1.3.9 1.1 3.6-1.1 7.1-2.2 10.7-3.7 1.1-.6 1.5-1.5.6-2zm-6.5 0c-.6-1.3-1.3-2.6-1.9-4-.6-1.3-1.1-2.6-1.7-3.9-.5.3-1.3.7-2.2 1.1-.9.5-2 1-3.2 1.4-.6.2-1.2.5-1.8.7-.6.2-1.2.5-1.9.7-.6.2-1.3.4-1.9.6-.6.2-1.2.4-1.8.5-1.2.3-2.3.6-3.2.8-.9.2-1.7.3-2.3.4-.2 0-.4.1-.6.1l-3 10.5h-.2c1.8-7 3.5-14 5.3-21l5.4-21c.1-.2.1-.4.2-.7.2-.1.4-.2.6-.2.8-.3 1.6-.6 2.3-.9.2-.1.4-.2.6-.2.1.2.1.4.2.6 1.1 2.8 2.1 5.5 3.2 8.3l1.5 4.2c.2.7.5 1.4.7 2.1.2.7.5 1.4.7 2.1.5 1.4.9 2.9 1.4 4.3.4 1.4.9 2.9 1.3 4.3.4 1.5.8 2.9 1.2 4.4.4 1.5.8 3 1.1 4.5.1.2 0 .2 0 .3zm-19.5-3.2c.9-.5 2-1 3.2-1.5.6-.2 1.2-.5 1.8-.7.6-.2 1.2-.5 1.9-.7.6-.2 1.3-.4 1.9-.6.6-.2 1.2-.4 1.8-.5 1.2-.3 2.3-.6 3.2-.8.8-.2 1.5-.3 2-.3-.5-1.3-1-2.5-1.6-3.8-.6-1.4-1.1-2.8-1.6-4.1-.3-.7-.5-1.4-.8-2.1-.3-.7-.5-1.4-.8-2.1l-1.5-4.2c-.9-2.7-1.7-5.3-2.6-8-.3.1-.7.2-1 .3-1.9 6.8-3.9 13.5-5.8 20.3-1 3.5-2 6.9-3 10.4.1-.1.3-.2.5-.3.6-.4 1.4-.8 2.4-1.3zm3.4-6c1.1-3.9 1.7-7.7 3.6-11.7.9 2.9 1.9 5.9 2.8 8.8.3.9.1 1.5-1.1 1.8-1.4.3-2.7.9-4.1 1.6-.6.2-1.6.7-1.2-.5zm10.8-3c-.6-1.4-1.1-2.8-1.6-4.1-.3-.7-.5-1.4-.8-2.1-.3-.7-.5-1.4-.8-2.1l-1.5-4.2c-.9-2.7-1.7-5.3-2.6-8-.3.1-.7.2-1 .3-1.9 6.8-3.9 13.5-5.8 20.3-1 3.5-2 6.9-3 10.4.1-.1.3-.2.5-.3.5-.3 1.3-.8 2.3-1.2.9-.5 2-1 3.2-1.5.6-.2 1.2-.5 1.8-.7.6-.2 1.2-.5 1.9-.7.6-.2 1.3-.4 1.9-.6.6-.2 1.2-.4 1.8-.5 1.2-.3 2.3-.6 3.2-.8.8-.2 1.5-.3 2-.3l-1.5-3.9zm-5.5 1.8c-1.4.3-2.7.9-4.1 1.6-.6.3-1.6.8-1.3-.4 1.1-3.9 1.7-7.7 3.6-11.7.9 2.9 1.9 5.9 2.8 8.8.4.8.2 1.4-1 1.7zm5.5-1.8c-.6-1.4-1.1-2.8-1.6-4.1-.3-.7-.5-1.4-.8-2.1-.3-.7-.5-1.4-.8-2.1l-1.5-4.2c-.9-2.7-1.7-5.3-2.6-8-.3.1-.7.2-1 .3-1.9 6.8-3.9 13.5-5.8 20.3-1 3.5-2 6.9-3 10.4.1-.1.3-.2.5-.3.5-.3 1.3-.8 2.3-1.2.9-.5 2-1 3.2-1.5.6-.2 1.2-.5 1.8-.7.6-.2 1.2-.5 1.9-.7.6-.2 1.3-.4 1.9-.6.6-.2 1.2-.4 1.8-.5 1.2-.3 2.3-.6 3.2-.8.8-.2 1.5-.3 2-.3l-1.5-3.9zm-5.5 1.8c-1.4.3-2.7.9-4.1 1.6-.6.3-1.6.8-1.3-.4 1.1-3.9 1.7-7.7 3.6-11.7.9 2.9 1.9 5.9 2.8 8.8.4.8.2 1.4-1 1.7zm101.6-12.2c-1.3-.9-1.6-2.4-2.1-3.8-3.2-9.8-6.2-19.7-8.9-29.7-.8-3.1-2.1-6-1.8-9.5.1-1.2-.6-1.4-1.6-1.1-1.6.4-3.2.7-4.8 1.1-1.7.4-3.3.8-5 1.2-1.2.3-1.8.9-1.7 2.1.4 4.6-1 9.4-2.6 14.1-3.8 11.5-5.2 23.1-10.4 34.6-.4 1-.5 2 .9 1.6 3.5-.8 7-1.8 10.4-2.6.7-.2 1.4-.8 1-1.5-.9-1.7.4-3.6.6-5.4.1-1.4.9-2 2.2-2.3 2.8-.7 5.5-1.1 8.3-2 1.5-.5 2.6-.1 3 1.5.3 1.5.8 2.9.4 4.6-.2.8 0 1.3.9 1.2 3.5-.6 7.1-1.2 10.7-2.2 1-.5 1.4-1.3.5-1.9zm-6.5-1l-1.8-4.2c-.6-1.4-1.1-2.7-1.7-4.1-.5.2-1.3.5-2.2.9-.9.3-2 .7-3.2 1-.6.2-1.2.3-1.8.5-.6.2-1.2.3-1.9.5-.6.1-1.3.3-1.9.4l-1.8.3c-1.2.2-2.3.3-3.2.4-.9.1-1.7.1-2.3.1h-.6c-1 3.4-2 6.7-3 10.1h-.2c1.8-6.8 3.5-13.6 5.3-20.4 1.8-6.8 3.6-13.5 5.4-20.3.1-.2.1-.4.2-.6.2-.1.4-.1.7-.2.8-.2 1.5-.4 2.3-.6.2-.1.4-.1.6-.2.1.2.1.4.2.6 1.1 2.9 2.1 5.8 3.2 8.7.5 1.4 1 2.9 1.5 4.4.2.7.5 1.5.7 2.2.2.7.5 1.5.7 2.2.5 1.5.9 3 1.4 4.5.4 1.5.9 3 1.3 4.5l1.2 4.5c.4 1.5.8 3 1.1 4.6l-.2.2zm-19.5-5.6c.9-.4 2-.7 3.2-1.1.6-.2 1.2-.4 1.8-.5.6-.2 1.2-.3 1.9-.5.6-.1 1.3-.3 1.9-.4l1.8-.3c1.2-.2 2.3-.3 3.2-.4.8-.1 1.5-.1 2-.1-.5-1.3-1-2.7-1.6-4-.6-1.4-1.1-2.9-1.6-4.3-.3-.7-.5-1.4-.8-2.2-.3-.7-.5-1.5-.8-2.2-.5-1.5-1-2.9-1.5-4.4-.9-2.8-1.7-5.5-2.6-8.3-.3.1-.7.1-1 .2-1.9 6.5-3.9 13-5.8 19.6-1 3.3-2 6.7-3 10 .1-.1.3-.2.5-.2.6-.1 1.4-.5 2.4-.9zm3.4-5.6c1.1-3.7 1.7-7.5 3.6-11.3.9 3 1.9 6.1 2.8 9.1.3 1 .1 1.5-1.1 1.6-1.4.1-2.8.5-4.1 1.1-.6.3-1.6.7-1.2-.5z"/><path class="st0" d="M314 175.6c-1.8.6-3.3.5-4.4-.6-2.2-2.3-3.9-4.9-3.8-8.8.2-14.4.3-28.7.4-43.1 0-1.5-.1-3 .7-4.6.5-1.2.2-1.9-.9-1.6-3.6.9-7.1 2-10.7 3.1-.7.2-1.4.8-1 1.5 1.7 3.3.8 7.5 1.2 11.3.1 1.3-.1 2.7-.2 4.1-.1.9-.5 1.6-1.5 1.9-3.5 1-7 2.1-10.5 3.2-.8.3-1.5.2-1.5-.7.1-5.2-.7-10.2.8-15.7.3-1 .5-1.9-.8-1.7-3.5.6-7.1 2.1-10.6 3.5-.9.3-1.6 1.2-.9 1.9 1.1 1.2.9 3 .9 4.7 0 6.3.1 12.7-.1 19.1-.2 5.7-.4 11.5 0 17.1.1 1.7.2 3.5-1.1 5.5-.9 1.3.2 1.4 1 1.1 3.5-1.6 7.1-2.4 10.7-3.7 1.1-.4 1.4-1 .9-1.8-.7-1.1-1.2-2.3-1.1-3.8.3-4.3.5-8.6-.1-12.7-.2-1.6.6-2.5 2.3-3 3.1-.9 6.2-1.9 9.4-2.9 1.6-.5 2.2 0 2.2 1.6-.1 3 0 5.9 0 8.9h-.1c0 2.7-.1 5.5 0 8.2.4 8 2.3 14.8 8.9 18.4 1.9 1 3.8 2 5.7 3.1 1.8 1.1 2.5.8 3.3-1.8 1-3.4 1.7-6.8 2.6-10.3.2-1.4-.4-1.8-1.7-1.4zm-4.3 6.4c-.4-.1-1.1-.3-1.8-.6s-1.6-.8-2.5-1.5c-.9-.7-1.7-1.7-2.5-2.9s-1.4-2.6-1.9-4.2-.9-3.4-1.1-5.3c-.1-1-.2-1.9-.2-3v-3c0-2 0-4.1-.1-6.1v-6.2c0-2 0-4 .1-6v-1.1c-.1.1-.3.2-.5.2-.6.3-1.5.7-2.6 1.2s-2.4.9-3.7 1.4c-.7.2-1.4.5-2.1.7-.7.2-1.4.5-2.2.7-.7.2-1.5.4-2.2.6l-2.1.6c-1.4.3-2.6.6-3.7.8-1.1.2-2 .3-2.6.4-.2 0-.4 0-.5.1v1c0 1.3 0 2.6-.1 3.9 0 1.3-.1 2.6-.1 3.8 0 1.2-.1 2.4-.2 3.6-.1 1.1-.1 2.2-.2 3.2-.1 2-.3 3.7-.4 4.9-.1 1.2-.2 1.9-.2 1.9s-.1-.6-.2-1.7-.3-2.7-.4-4.6c-.1-1-.1-2-.2-3.1 0-1.1-.1-2.3-.1-3.5 0-1.2-.1-2.5-.1-3.8v-3.9c0-1.3 0-2.6.1-3.9 0-1.3.1-2.6.1-3.8 0-1.2.1-2.4.2-3.6.1-1.1.1-2.2.2-3.2.1-2 .3-3.7.4-4.9.1-1.2.2-1.9.2-1.9s.1.6.2 1.7.3 2.7.4 4.6c.1 1 .1 2 .2 3.1 0 1.1.1 2.3.1 3.5 0 1.2.1 2.5.1 3.8v2.6c.1-.1.3-.2.5-.3.6-.3 1.5-.8 2.6-1.2 1.1-.5 2.4-1 3.7-1.5.7-.3 1.4-.5 2.1-.7.7-.2 1.4-.5 2.2-.7.7-.2 1.5-.4 2.2-.6.7-.2 1.4-.4 2.1-.5 1.4-.3 2.6-.6 3.7-.8 1.1-.2 2-.3 2.6-.4h.5c0-1.5.1-2.9.1-4.3 0-1.8.1-3.5.2-5 .1-1.6.1-3 .2-4.3.1-1.3.1-2.4.2-3.3 0-.9.1-1.6.1-2.1s.1-.8.1-.8 0 .3.1.7c0 .5.1 1.2.2 2 .1.9.1 2 .2 3.2.1 1.2.2 2.6.2 4.2.1 1.5.2 3.2.2 4.9.1 1.8.1 3.6.2 5.5 0 1.9.1 3.9.1 5.9 0 2 0 4.1.1 6.1v9.3c0 1 0 1.9.1 2.8.1 1.8.4 3.6.8 5.2s.9 3 1.5 4.2c.6 1.2 1.3 2.2 2 3 .7.8 1.5 1.4 2.1 1.8.7.4 1.2.7 1.6.9l.6.3s-.5.1-.9 0zM240.4 19.1v1.7l-6 1.3v-1.7l1.5-.8v-9.3l-1.5-.3V8.3l6-1.4v1.7l-1.5.9v9.3l1.5.3zm16.8-3.7v1.7l-5.7 1.2v-1.7l1.5-.8V6.6l-1.5-.3V4.8l4.7-1.1 5.3 7.8V4.8l-1.4-.3V3l5.6-1.3v1.7l-1.5.9v11.3l-3.3.7-5.2-7.6v6.6l1.5.1z"/></svg>