<svg id="Layer_1" xmlns="http://www.w3.org/2000/svg" viewBox="-118 128.6 263.2 244.4"><style>.st0{fill:#fff}.st1{fill:none}</style><path class="st0" d="M-45.1 156.4v1.9l-6 .9v-1.9c.3-.2.8-.4 1.4-.8l.2-10.3-1.4-.5v-1.8l4.3-.7 5.2-.7v4.1l-1.7.2-.4-1.5-3 .4-.1 3.9 3.8-.6v2.4l-3.8.6-.1 4.1c.9.2 1.5.3 1.6.3zm18.5-16l3.7 12.2 1.3.3v1.9l-5.9.8v-1.9l1.4-.7-.4-1.5-4.1.6-.5 1.7 1.4.3v1.9l-5.6.9V155l1.4-.7 4.4-13.3 2.9-.6zm-1.8 4l-1.6 5.3 2.9-.4-1.3-4.9zm18.9 6.6v1.8l-5.6.9v-1.8l1.4-.7.2-10.1-1.4-.4v-1.8l4.3-.7 1.4-.2c1.5-.2 2.7 0 3.6.6.8.6 1.2 1.6 1.2 3 0 1.9-.8 3.3-2.2 4.3.3.4.6.8.8 1.3l1.2 2.7 1.3.3v1.8l-3.4.5-1.5-3.7c-.3-.8-.6-1.3-.8-1.5-.2-.2-.5-.3-1-.2l-.6.1-.1 3.5 1.2.3zm-1.1-10.4l-.1 4.3 1.1-.2c.7-.1 1.3-.4 1.7-.8.4-.4.6-1 .6-1.7 0-.6-.1-1.1-.5-1.5-.3-.3-.8-.5-1.3-.4l-1.5.3zm19 7.7v1.8l-5.3.8v-1.8l1.4-.7.2-9.9-1.4-.4v-1.7l4.8-.8 2.6 6.5 3.1-7.2 4.5-.7v1.8l-1.3.8-.2 9.8 1.4.3v1.8l-5.5.8v-1.8l1.5-.7.2-7.9c-.2.7-.5 1.4-.8 2.1-.3.7-.6 1.6-1 2.4-.4.9-.7 1.6-.9 2.1l-2 .4-2-4.6-.3-1-.2 7.6 1.2.2zm22.7-.4v-1.3l1.1-.5.1-7-1.3.2-.4 1.4-1.2.2.1-3.1 7.8-1.1-.1 3.1-1.2.2-.3-1.3-1.3.2-.1 7 1.1.2v1.3l-4.3.5zm15.5-12.7c1.3-.2 2.4.1 3.1.9.7.8 1.1 2 1 3.6 0 1.6-.5 3-1.3 4.1-.8 1.1-1.9 1.8-3.3 2-1.3.2-2.4-.1-3-.9-.7-.8-1-2-1-3.7 0-1.7.5-3 1.3-4.1.8-1.1 1.9-1.7 3.2-1.9zm-.1 1.8c-.7.1-1.2.4-1.6 1-.4.6-.6 1.5-.6 2.8 0 1.2.1 2 .4 2.6.3.5.8.7 1.5.6.7-.1 1.2-.5 1.6-1.1.4-.6.6-1.5.6-2.8 0-1.2-.1-2-.5-2.5-.2-.5-.7-.7-1.4-.6zm-110.2 45.5v-1.7l1.5-.7v-9.2l-1.8.2-.5 1.9-1.7.3v-4.1l10.6-1.8v4.2l-1.7.3-.5-1.8-1.7.3v9.2l1.5.2v1.7l-5.7 1zm22.3-17.4l3.9 10.7 1.3.2v1.7l-5.8 1V177l1.4-.7-.4-1.3-4.1.7-.5 1.5 1.4.2v1.7l-5.5 1v-1.7l1.3-.7 4-12 3-.6zm-1.6 3.7l-1.5 4.8 2.8-.5-1.3-4.3zm17.4-6.2l1.9-.3c1.2-.2 2.2-.1 2.9.3.7.4 1.1 1.2 1.1 2.3 0 1.6-.7 2.7-2.2 3.5 1.7.2 2.6 1.1 2.6 2.6 0 2.6-1.6 4.2-4.7 4.7l-5.8 1v-1.6c.3-.2.8-.4 1.4-.7v-9l-1.4-.3v-1.6l4.2-.9zm0 2.2v3.2l1.1-.2c1.4-.2 2-.9 2-2.1 0-.5-.1-.8-.4-1-.3-.2-.7-.3-1.1-.2l-1.6.3zm1.1 5l-1.1.2v3.7l1.5-.3c.6-.1 1.1-.3 1.5-.7.3-.4.5-.8.5-1.3 0-.7-.2-1.1-.6-1.4-.4-.3-1-.3-1.8-.2zm16.3-7.9v8.7l2.8-.5.4-2.2 1.7-.3v4.3l-9.1 1.6v-1.6l1.4-.7v-8.9l-1.4-.3v-1.5l5.6-1v1.6l-1.4.8zm15.8-2.6v3.1l3.7-.6v2l-3.7.6v3.5l3.2-.6.4-1.6 1.7-.3v3.7l-9.5 1.7v-1.6l1.4-.7v-8.7l-1.4-.3V158l4.2-.8 5.1-.8v3.5l-1.7.3-.5-1.3-2.9.4z"/><path class="st1" d="M-4.3 224.2c0 .8.1 1.6.1 2.5 0 .7.2.9.3.9.1 0 .4-.1.9-.8l1.5-1.8c1.7-2 3.4-4.1 5-6.2.6-.8.9-1.7.9-2.6 0-1.3-.7-2.3-1.7-2.5-.7-.2-1.5 0-2.4.3-.4.1-.7.2-1 .2-3.6.8-4 .9-4 3.3v1.5c.2 1.8.3 3.5.4 5.2zm24-45.5c.2-.2.4-.4.7-.6l1.3-1.1 2-1.6 2-1.5c.3-.2.5-.4.8-.5l.2-.2c.2-.1.4-.3.7-.4.5-.3.9-.6 1.4-.9.3-.2.5-.3.8-.5.4-.3.9-.5 1.3-.8l2.5-1.3c1.3-.6 2.7-1.2 4.1-1.7l1.1-.4c.2-.1.5-.1.7-.2.1 0 .3-.1.4-.1l2.2-.6 2.7-.5c.3 0 .5-.1.8-.1l3.3-.4 3.4-.2h3.4l2.2.1c.7 0 1.5.1 2.2.1.7.1 1.5.1 2.2.2l5 .6c.5.1 1 .1 1.5.2 1.6.3 2.9.5 4.3.8 1.5.3 2.9.6 4.2 1 1.7.4 3 .8 4.1 1.2v.3l.1-.2c1 .2 2.2.5 3.5.7 1.2.2 2.3.4 3.5.7 1.2.2 2.3.4 3.5.6 1.2.2 2.3.3 3.5.5h.1c1.2.2 2.3.3 3.5.4l.6.1 3 .3c.8.1 1.6.1 2.3.2.4 0 .9.1 1.3.1.6 0 1.2 0 1.8.1h.5v.5l1 58.4 1-58.9h1.2c.6 0 1.2-.1 1.8-.1l.9-.1 1.2-.1c.2 0 .4 0 .6-.1l1.1-.2c.5-.1 1.1-.2 1.6-.4.2-.1.5-.1.7-.2.4-.1.8-.2 1.1-.3.2-.1.5-.1.7-.2.4-.1.8-.2 1.1-.4l.5-.2c.4-.2.8-.3 1.2-.5.6-.3 1.2-.5 1.7-.8.6-.3 1.1-.6 1.7-.9l.6-.3c.3-.2.7-.4 1-.6.2-.1.4-.3.6-.4.3-.2.7-.4 1-.6.2-.1.4-.3.6-.4l.9-.6-1.5.9c-.4.2-.7.4-1.1.6-.2.1-.4.2-.5.3-.6.3-1.1.5-1.7.8-.6.2-1.1.5-1.7.7-.6.2-1.2.4-1.7.6-.4.1-.8.3-1.1.4l-.6.2c-.4.1-.8.2-1.1.3-.2.1-.4.1-.6.2l-1.2.3c-.2 0-.4.1-.6.1-.5.1-1.1.2-1.6.3l-1.1.2h-4.4c-.6 0-1.2-.1-1.8-.1-.5 0-1.1-.1-1.8-.1-.6 0-1.2-.1-1.8-.1-.4 0-.9-.1-1.3-.1-.7-.1-1.5-.1-2.2-.2-.6-.1-1.2-.1-1.8-.2-.6-.1-1.2-.2-1.8-.2-1-.1-2-.3-3.1-.4l-.4-.1c-1.2-.2-2.3-.4-3.5-.6s-2.3-.4-3.5-.6c-1.1-.2-2.3-.4-3.4-.7-1.3-.3-2.4-.5-3.3-.7-1.3-.4-2.6-.8-4.2-1.2-1.5-.4-2.9-.7-4.3-1-1.5-.3-3-.6-4.4-.8-.5-.1-1-.2-1.6-.2l-1.7-.2-3.3-.3-2.2-.1c-.8-.1-1.6-.1-2.3-.1h-2.3l-3.4.1-3.5.3c-.8.1-1.6.2-2.3.3l-1.2.2c-.3 0-.5.1-.7.2-.1 0-.3.1-.4.1l-2.9.7-1.8.5c-.1 0-.3.1-.4.1-.2.1-.5.1-.7.2l-1.2.5c-1.4.5-2.7 1.2-4 1.8l-.6.3-2.2 1.3c-.5.3-.9.6-1.4.9-.3.2-.5.3-.8.5-.5.3-1.1.7-1.6 1.1l-.5.4c-.1.1-.3.2-.4.3-.2.1-.4.3-.6.5l-2 1.6-1.9 1.7-.9.9-.4.4-.5.5-.9.9-.4.4.4-.4 1.2-1.2zm63.4 116.4v-1.2c0-.7.1-1.5 0-2.2-.6-4.9-1.8-9.8-5.8-12.6-1-.7-2.1-1-3.2-1-.5 0-1 .1-1.6.2-2 .5-3.9 2-5.3 4.1-1.5 2.1-2.5 4.1-3.1 6.1-2.3 7.9-2.5 15.4-.6 22.3.9 3.3 3.9 5.6 7.1 5.6.6 0 1.2-.1 1.7-.2 4-1 7.7-5.1 9.2-10.2 1.3-4.1 1.8-7.7 1.6-10.9zm-52.9 15.3v-1.2c0-.7.1-1.5 0-2.2-.6-4.9-1.8-9.8-5.8-12.5-.9-.6-1.9-.9-3-.9-.6 0-1.2.1-1.8.3-2 .6-3.9 2.2-5.3 4.4-1.5 2.2-2.5 4.3-3.1 6.3-2.3 8.1-2.5 15.7-.6 22.6.9 3.3 3.7 5.5 6.9 5.5.7 0 1.3-.1 2-.3 4-1.2 7.7-5.5 9.2-10.8 1.2-4.3 1.7-8 1.5-11.2zm99.4-33.8c-1.5-5-4-7.1-8.5-7.1-1.1 0-2.4.1-3.8.4-1.5.3-1.9.6-1.8 2.1v22.6l-.3.1V306h.6c6.8-1.3 12.9-6.8 14.2-12.9 1.2-6 1.1-11.4-.4-16.5z"/><path class="st0" d="M-55.1 270.5c-.8-7.3-3.4-14.3-7.8-21.3-2.2-3.4-4.3-6.8-6.5-10.3-5.1-8-10.3-16.3-15.5-24.6-.8-1.3-1.7-3-1.6-5 0-2.3 1-3.9 2.9-4.7 2-.8 3.9-.3 5.2 1.4 1 1.3 1.5 3 1.5 5.1 0 .7.1 1.2.3 1.4.3.3.9.2 1.7-.1 3.3-1.6 6.7-3.6 9.9-6 .6-.4.9-.8 1-1.2 0-.3-.1-.5-.3-.8-.8-1.1-1.6-2.2-2.5-3.3l-3.6-4.8c-3.5-4.4-8.2-6-13.9-4.6-6.3 1.5-10.7 5.3-13.1 11.5-2.9 7.5-.1 14 3 19.4 2.9 4.9 5.9 9.6 8.9 14.3l2.1 3.3 1.5 2.4c4.1 6.4 8.4 13.1 11.3 20.4 1.5 3.9 3.1 9.1 1.8 14.9-1.8 7.7-5 12.5-10.3 15.3-2.8 1.5-5.9 2.3-9 2.3-7.9 0-13.7-5.2-14.9-13.2-1-6.7.6-12.5 4.5-17.2 1.7-2 3.8-2.7 5.8-1.9s3 2.5 2.9 4.8c-.1 2.5-1.5 4.2-3.9 4.7-.6.1-1.1.4-1.3.8-.2.3-.2.8 0 1.4.9 2.9 2 6 3.5 8.8.9 1.8 1.7 1.8 3 .2 1-1.2 2.2-2.4 3.6-3.6 3.3-2.9 5.3-6.6 5.9-10.8.9-6.1-1-10.9-5.5-14.4-2.6-2-5.4-3-8.3-3-2 0-4 .5-6 1.3-5.7 2.5-9.9 6.1-12.5 10.7-5.8 10.2-5.6 20.6.5 31.1 5.4 9.2 13.4 13.3 19 13.3h.7c17-1.4 28.6-9.8 34.3-25.2 1.6-4.1 2.2-8.4 1.7-12.8zm-4.9 5.3c-.3 4.1-1.6 8.2-3.7 11.8-1 1.7-2.3 3.5-3.8 5.1l-1.1 1.1c-.2.3-.5.5-.8.7-.1.1-.3.2-.4.4l-1.2 1-1.2.9c-1.9 1.4-3.5 2.5-5.2 3.4-1.9 1-3.8 1.8-5.6 2.4-2.2.7-4.4 1-6.6 1-1.7 0-3.4-.2-5-.6-1.8-.5-3.6-1.1-5.2-2.1-.9-.5-1.6-1-2.3-1.5-.4-.3-.7-.6-1.1-.9-.4-.3-.7-.7-.9-1l-.1-.1c-2.4-2.8-4.2-5.9-5.3-9.3-.6-1.7-1-3.5-1.2-5.1-.2-1.7-.2-3.5 0-5.2.2-1.6.5-3.3 1.1-4.9.3-.8.5-1.5.8-2.2l.6-1.5c.1-.2.2-.5.3-.7 1.5-3.4 3.1-5.8 5-7.8 2.1-2.3 4.9-3.9 7.6-4.3.3 0 .7-.1 1-.1h1.1c.8.1 1.4.3 1.9.5 1.2.4 2.3 1 3.2 1.6 2.1 1.3 3.5 3 4.2 4.9.3 1 .5 2 .5 3v.7l-.1.7c0 .2-.1.4-.1.7l-.1.3c0 .1-.1.2-.1.3-.6 1.8-1.5 3.1-2.2 4.2l-.2.3c-.1.2-.2.3-.3.5l-.7.9c-.1.2-.2.3-.4.4l-.5.5c-.5.6-1 1-1.3 1.4l-.1.1c-.2.2-.4.3-.4.4l-.4-.3c.1-.1.1-.2.3-.3l.3-.3c.3-.3.7-.8 1.2-1.4.2-.2.3-.4.5-.6.1-.1.2-.2.3-.4l.9-1.2c.1-.2.2-.4.4-.5.6-1 1.4-2.4 1.9-4 0-.1.1-.2.1-.4l.1-.2.2-1.2v-.7c0-.9-.2-1.7-.5-2.5-.6-1.6-2-3-3.9-4.1-.9-.5-1.9-1-3-1.3-.4-.1-1-.3-1.6-.4h-.8c-.3 0-.6.1-.9.1-2.3.5-4.6 1.8-6.4 3.9-1.6 1.8-3.1 4.2-4.4 7.3-.1.3-.2.5-.3.8-.2.4-.3.8-.5 1.3l-.3.9c-.1.4-.3.9-.4 1.3-.4 1.5-.7 3-.9 4.4-.6 5.9 1.7 12.4 6.2 17.5l.8.8c.3.3.6.5.9.7.6.5 1.3.9 2.1 1.3 1.5.8 3 1.4 4.6 1.8 3.2.8 6.7.6 10.1-.4 1.6-.5 3.3-1.2 5-2.1 1.5-.8 3-1.8 4.7-3.1l1.4-1.2.2.1-.2-.2.7-.6c.1-.1.3-.2.4-.4l.6-.6 1-1c1.3-1.4 2.5-3 3.4-4.5 1.8-3.1 3-6.7 3.3-10.4.3-3.3-.1-6.8-1.1-10.4-.5-1.6-1-3.3-1.7-4.8-.3-.7-.7-1.5-1.1-2.2-.4-.7-.9-1.5-1.3-2.2-1-1.8-2-3.5-3-5.2l-2.1-3.6c-2.9-4.9-5.8-10.1-9.6-16.8-2.6-4.7-5.7-10.3-8.4-15.4-1.1-2.1-2.4-5-2.3-8 0-.6.1-1.1.2-1.7l.1-.4.1-.3c.2-.6.3-1.2.6-1.7.6-1.3 1.5-2.4 2.5-3.1 1-.8 2.1-1.4 3.2-1.8.1 0 .2-.1.3-.1.2-.1.4-.1.6-.2.2 0 .4-.1.7-.2l.9-.2c.3 0 .5-.1.7-.1.4 0 .7-.1 1.1-.1 1.5 0 3 .4 4.4 1.1 1.2.6 2.3 1.5 3.4 2.6.7.8 1.3 1.6 1.9 2.5.3.6.7 1.1.9 1.7.1.3.2.5.3.6l-.5.2c-.1-.1-.2-.3-.3-.5-.2-.4-.5-1-1-1.6-.6-.9-1.2-1.6-1.9-2.3-1.1-1-2.1-1.8-3.3-2.3-1.5-.7-3.2-.9-4.9-.7h-.1c-.2 0-.4.1-.7.1l-.7.2-.7.2c-.2 0-.3.1-.5.2-.1 0-.2.1-.2.1-.9.3-1.8.9-2.7 1.6-.8.7-1.4 1.6-1.9 2.7-.2.4-.3.8-.4 1.3l-.1.4v.4c-.1.4-.1.9-.1 1.3s0 .8.1 1.3c0 .2.1.4.1.5 0 .2.1.4.1.6l.2.8c0 .1.1.1.1.2s.1.1.1.2c.1.2.2.5.3.7l.1.2c.1.2.2.4.2.5.1.1.1.2.2.3 0 .1.1.2.1.3l.3.6.5.9c1.4 2.6 2.9 5.2 4.2 7.3 1.5 2.5 3 5.1 4.6 7.8 2.8 4.8 6.1 10.2 9.9 16.6l1.4 2.3c1.3 2.1 2.6 4.2 3.9 6.4.4.6.7 1.2 1.1 1.8l.3.4c.5.7.8 1.5 1.3 2.4.7 1.6 1.4 3.3 1.9 5.1.4 4.2.8 8 .5 11.7zm.7-49.2c2.3-1.5 4.7-1.8 7.1-2.2.9-.1 1.9-.3 2.8-.5.4-.1.7-.1 1-.1.6 0 1 .1 1.3.5.4.4.6 1 .6 2-.1 8.5-.1 17.2-.1 25.5v12.9c0 1 0 2-.6 3s-.6 1.5-.5 1.8c.2.3.6.3 1 .3.2 0 .5 0 .8-.1 3.4-.5 7-1.2 11.2-2.2.7-.2 1.2-.4 1.3-.8.1-.4-.2-.9-.4-1.2-.9-1.1-.9-2.5-.9-3.9v-18.3h.1v-19.7c0-1.1 0-2.5 1.7-2.9.7-.1 1.3-.3 2-.4 2.2-.5 4.5-.9 6.7-.9 1 0 1.9.1 2.7.3.1 0 .3.1.4.1.2.1.3.1.5.1.1 0 .3 0 .5-.2.3-.4.3-.7.1-1.2 0-.1 0-.2-.1-.2-.2-.7-.3-1.4-.5-2.1-.4-1.8-.9-3.7-1.2-5.6-.4-2-1.6-2.7-3.8-2.3-10.4 2-20.2 3.7-29.6 5.3-1.7.3-2.6.9-2.9 2.1-.7 3-1.4 6.3-2.3 10.3-.1.4 0 .7.1.9.1 0 .2.2 1-.3zm4.6-8.2s.5-.2 1.3-.5c.9-.3 2.1-.7 3.3-1 1.4-.4 3-.8 4.7-1.2l2.7-.6c.8-.2 1.7-.3 2.5-.5l.5-.1c.8-.1 1.7-.3 2.5-.4.9-.1 1.8-.3 2.7-.4 1.6-.2 3.2-.4 4.7-.5 1.3-.1 2.5-.2 3.3-.2h1.4l2.1.5h-2.1c-.2.1-.6.3-1.2.5-.7.3-1.9.7-3.3 1.2-1.5.5-3.1.9-4.7 1.3h-.1c-.8.2-1.7.4-2.6.6-.6.1-1.1.2-1.7.3l-1.5 46.7h-.5l-1-46.2c-.3 0-.5.1-.8.1-.8.1-1.6.2-2.7.4-1.6.2-3.2.3-4.7.4-1.3.1-2.5.1-3.3.1h-1.3l-1.1-.1.9-.4zm63.6-32.3c1.5 1.7 3.2 3.4 5 4.7.6.5 1.1.7 1.5.7.7 0 1.3-.6 2-2 2.6-5.1 7-9.3 13.3-12.9 8-4.5 16.4-6.8 25.2-6.8 3.1 0 6.3.3 9.5.8s6.4 1.1 9.5 1.7c8.2 1.5 16.7 3.1 25.3 4 2.5.3 3 1.6 3 3.9-.1 11.7-.1 26.7-.1 41.2 0 7.7 0 15-.1 21.3 0 2-.1 3.9-1 5.7-.3.7-.3 1-.2 1.2s.5.2.8.2h.4l2.1-.2c1.2-.1 2.4-.3 3.5-.4h.3v.1l3-.3 1.6-.2c1-.1 2.1-.2 2.4-.7.2-.4 0-1-.5-1.8-.4-.6-.4-1.5-.4-2.4v-64.2c0-2.4 1-2.9 3.1-3.2 4.7-.7 8.6-1.6 12.4-4 3.8-2.4 7.2-5.2 10.5-7.9.7-.6 1.5-1.2 2.2-1.8.4-.3.6-.6.6-.9 0-.3-.2-.6-.7-1l-.1-.3-3.9-3.3c-.3-.3-.7-.6-1-.9-.7-.7-1.5-1.5-2.2-1.5h-.1c-.8 0-1.1.7-1.5 1.8-.2.6-.4 1.2-.7 1.6-4.7 5.8-11.1 8.8-19.6 9-10.7.3-20.8-2.1-28.3-4.2-10.7-3-19.7-4.3-28.7-4.3-3.4 0-6.8.2-10.1.6-7.3.9-14.5 3.6-21.4 8-4.9 3.2-9 7.5-12.9 11.6-1.4 1.5-2.8 3-4.2 4.4-.9.8-.7 1.4-.2 1.9l.7.8zm7.7-5l.5-.5c.4-.5.9-.9 1.3-1.4l.9-.9.5-.5.4-.4.9-.9 1.9-1.7 2-1.6c.2-.2.4-.3.6-.5.1-.1.3-.2.4-.3l.5-.4c.5-.4 1-.8 1.6-1.1.3-.2.5-.3.8-.5.5-.3.9-.6 1.4-.9l2.2-1.3.6-.3c1.3-.7 2.6-1.3 4-1.8l1.2-.5c.3-.1.5-.2.8-.3.1 0 .3-.1.4-.1l2.7-.8 2-.4c.1 0 .3-.1.4-.1.3-.1.5-.1.8-.2l1.2-.2 2.4-.3 3.5-.3 3.5-.1h2.3c.7 0 1.5 0 2.3.1l2.3.1 3.5.4 1.6.2c.5.1 1.1.1 1.6.2 1.4.2 2.9.5 4.4.8 1.4.3 2.8.6 4.3 1 1.6.4 2.9.8 4.2 1.2 1 .2 2 .5 3.4.7 1.1.2 2.3.5 3.4.7 1.1.2 2.3.4 3.4.6 1.1.2 2.3.4 3.5.6l.4.1c1 .2 2 .3 3.1.4.6.1 1.2.2 1.8.2.6.1 1.2.1 1.8.2.7.1 1.5.2 2.2.2.4 0 .9.1 1.3.1.6 0 1.2.1 1.8.1.7.1 1.2.1 1.8.1s1.2.1 1.8.1h2.3l1.3-.1h.9l1.1-.2c.5-.1 1.1-.1 1.6-.3.2 0 .4-.1.6-.1.4-.1.8-.1 1.1-.3.2-.1.4-.1.6-.2.4-.1.7-.2 1.1-.3l.6-.2c.4-.1.7-.2 1.1-.4.6-.2 1.1-.4 1.7-.6.6-.2 1.1-.5 1.7-.7.5-.3 1.1-.5 1.6-.8.2-.1.4-.2.5-.3.4-.2.7-.4 1.1-.6.9-.5 2-1.2 3.1-2 .9-.6 1.9-1.4 2.8-2.3l.4.3c-.8 1-1.8 1.9-2.7 2.6l-1.5 1.2c-.3.2-.6.5-1 .7-.2.1-.4.3-.6.4-.3.2-.7.4-1 .6-.2.1-.4.3-.6.4-.3.2-.7.4-1 .6l-.6.3c-.6.3-1.1.6-1.7.9-.6.3-1.2.5-1.7.8-.4.2-.8.3-1.2.5l-.5.2c-.4.1-.8.3-1.2.4-.2.1-.4.1-.7.2l-1.2.3c-.2.1-.4.1-.7.2-.6.2-1.1.3-1.7.4l-1.1.2c-.3 0-.5.1-.7.1l-2.2.2c-.6 0-1.2.1-1.8.1h-.7l-1.3 72.6h-.5l-1.3-72.7c-.6 0-1.2-.1-1.8-.1-.4 0-.9-.1-1.3-.1-.8 0-1.6-.1-2.4-.2l-3-.3-.6-.1c-1.2-.1-2.3-.3-3.5-.4h-.1c-1.2-.2-2.4-.3-3.6-.5-1.2-.2-2.4-.4-3.5-.6-1.2-.2-2.3-.4-3.5-.7-1.3-.3-2.4-.5-3.5-.7h-.1c-1.2-.4-2.5-.7-4.1-1.2-1.3-.3-2.7-.6-4.2-1-1.3-.3-2.7-.5-4.3-.8-.5-.1-1-.2-1.5-.2l-1.7-.2-3.3-.4c-.7-.1-1.5-.1-2.2-.2s-1.5-.1-2.2-.1l-2.2-.1h-3.3l-3.3.2-3.3.4c-.2 0-.5.1-.8.1-.1 0-.3 0-.4.1l-3.4.7-1.1.3c-.2 0-.3.1-.5.1-.2.1-.4.1-.7.2l-1.1.4c-1.4.5-2.7 1.1-4 1.7l-.4.2-2.1 1.1c-.4.2-.9.5-1.3.8-.3.2-.5.3-.8.5-.5.3-1 .6-1.4.9-.2.1-.4.3-.7.4l-.2.2c-.3.2-.5.3-.8.5l-3 2.3-1 .8-1.3 1.1-.6.6-.9.9c-.5.4-.9.9-1.4 1.3l-.5.5c-1 1-2.3 2.3-3.5 3.7l-.4-.3c.9-1 1.9-2.2 3.2-3.7z"/><path class="st0" d="M74.7 201.7c0-1.9.8-2.8 2.7-3 1.3-.2 2.6-.3 3.9-.5 3.2-.4 6.6-.9 9.9-1.2.6-.1 1.3.1 1.9.3l.3.1c.1 0 .2.1.3.1.4.1.8.2 1.1 0 .5-.4.4-1 .3-1.6v-.1c-.2-.9-.4-1.8-.6-2.6-.3-1.2-.5-2.5-.8-3.7-.6-3.1-.9-3.7-2.9-3.7-.6 0-1.3.1-1.9.1-1.7.2-3.5.5-5.2.9-1.6.4-3.3.7-5 .9-4.6.5-9.3 1.4-13.8 2.3-.8.2-1.7.3-2.5.5-1 .2-1.6.5-1.8.9-.1.2 0 .5.2.9 1.9 3.1 1.9 6.9 1.9 10.6v.1c0 3.9-.1 7.9-.2 11.8-.1 3.5-.2 7.1-.2 10.6 0 1.8.1 3.6.2 5.3.2 2.5.3 5 .1 7.6 0 .6-.1 1.2-.1 1.8-.1 2-.2 4-1 6-.4.9-.8 1.9-.7 2.1 0 0 .1.1.3.1.4 0 1-.1 1.7-.2l1.1-.2c3.9-.7 8-1.5 11.9-2.2 4.3-.7 8.9-1.5 13.6-2.2 1.9-.3 2.9-1.2 3.2-2.9l.2-1.2c.4-2.7.9-5.4 1.9-8.1.4-1.1.1-1.4-.2-1.5-.4-.2-.9.1-1.4.4-.1.1-.2.1-.3.2l-.5.3c-1.1.7-2.1 1.5-3.4 1.7l-3.6.6c-3 .5-6.1 1-9.2 1.6-.8.1-1.3 0-1.6-.3-.3-.3-.4-.8-.4-1.5.2-2.9.3-5.9.4-8.7 0-.8.1-2.2 1.6-2.5.3-.1.6-.1 1-.2.8-.2 1.6-.4 2.4-.4.9 0 1.6.3 2.2.8.3.3.6.4.9.4.5 0 .7-.7.9-1.2 1-4.4 1.9-8.3 2.6-11.9.1-.6.1-1.1-.1-1.3-.1-.1-.2-.2-.4-.2s-.6.1-1.1.5c-2 1.4-4.1 1.8-6.1 2.1-.7.1-1.3.2-2 .4-.9.2-1.5.1-1.8-.3-.3-.3-.4-.9-.4-1.6.4-2.5.5-4.8.5-7zm-5.5-1l.1 11.5v3.3c3.7-.3 7.4-.5 10.9-.7l2.3-.1-2.2.6c-3.5 1-7.2 2-11 3.1v11l-.1 5.8c0 1.1 0 2.3-.1 3.4v1.1l3.9-.6.7-.1c1.4-.2 2.9-.4 4.4-.6l1.3-.2c1.2-.1 2.5-.3 3.8-.4 1.5-.2 3.1-.3 5.1-.5l.1.5-.6.1c-1.5.3-3 .7-4.5 1-.9.2-1.9.4-2.8.6-.8.2-1.6.3-2.3.5-.9.2-1.8.4-2.6.6s-1.7.3-2.5.5c-1.7.4-3.4.7-5.1 1.1l-1.2.3v-1.3c0-.8 0-1.6-.1-2.3 0-1.1-.1-2.3-.1-3.4l-.1-5.7v-13.3l.1-10.9.1-4.6c0-1.9.1-3.8.1-5.6V194l2.7-.4c1.3-.2 2.7-.4 4-.6 1.8-.3 3.7-.5 5.5-.7l.7-.1c1.6-.2 3.2-.4 4.8-.5 1.8-.2 3.7-.4 5.5-.5l.1.5c-1.8.4-3.7.8-5.5 1.2l-2.7.6c-1 .2-1.9.4-2.9.6-1.8.4-3.7.8-5.5 1.2l-2.7.6-1.6.3c-.1 1.4 0 2.9 0 4.5zm-22.1 62.4c-.5 0-1.3.3-2.5.8-.5.2-1.1.3-1.7.5h-.2c-2.7.6-5.1.9-7.3.9-5 0-8.8-1.6-11.5-4.9-1.3-2.4-3.9-7.4-5.8-11.1l-1.3-2.9c-2.5-5.6-5-11.4-7.6-17-.8-1.6-.6-2.8.8-4.4 2.7-3.4 5.6-7.4 6.6-12.1.7-3.5.2-6.7-1.4-8.7-1.5-1.9-3.8-2.6-6.6-2.2-7.5 1.2-15.7 3.1-25.8 5.9-.7.2-1.1.5-1.2.8-.1.3 0 .6.3 1 .6.8 1 1.8 1 3.1 0 1.6.1 3.3.2 4.9.2 3.6.3 7.4.2 11.2-.3 6.9-.3 13.8-.4 20.5 0 2.7 0 5.5-.1 8.2 0 1.8-.1 3.8-.9 5.8-.4.9-.3 1.2-.2 1.4.1.2.6.3 1.3.1 1.2-.3 2.5-.5 3.7-.6 1.8-.2 3.7-.5 5.5-1.2l.5-.2c2.9-1 2.9-1 2.3-3.7-.1-.7-.1-1.4-.1-2.1v-3c.1-2.1.1-4.2-.1-6.2-.3-3.2.8-6 3.5-9 .7-.8 1.3-1.3 1.8-1.3.6 0 1 .7 1.2 1.4 1.4 3.9 3 7.7 4.4 11.5l1 2.5c2.5 6.3 5.8 13.4 11.5 18.8 3.3 3.1 7.1 4.4 12.5 4.4 1.9 0 4-.2 6.7-.5 2.3-.3 5.1-.7 7.6-.6h.1c1.5 0 2-.6 2.1-2.1.2-2.5.2-4.9.2-7.2 0-1.3 0-2.3-.3-2.5.2-.1.2-.2 0-.2zm-4.3 7h-.2c-.5.1-1.2.3-2.1.4h-.3c-.4.1-.9.2-1.4.2-.2 0-.3 0-.5.1-.5.1-.9.1-1.4.1h-4.6c-1.8-.2-3.6-.5-5.1-1-1.8-.5-3.5-1.3-5.1-2.4-1.7-1.1-3.2-2.4-4.5-3.9-1.4-1.6-2.5-3.4-3.3-5.3-.5-1.1-1-2.3-1.5-3.4-.3-.7-.7-1.5-1-2.2-.8-1.9-1.6-3.7-2.4-5.5l-4.2-9.7c-1.6-3.7-2.9-6.6-3.6-8.2-.1.2-.3.3-.4.5-.9 1-1.8 1.9-2.8 2.8l-.2.2c-1.2 1.2-2.2 2.1-3.1 2.9-2.1 1.9-4.1 3.6-5.9 5l-.1 2.2c0 1.4-.1 2.8-.1 4.2l-.1 1.9c-.1 1.4-.1 2.9-.2 4.3-.1 1.9-.2 3.9-.3 5.8v.4h-.5l-.3-6c-.1-1.4-.1-2.8-.2-4.2l-.1-1.9c-.1-1.3-.1-2.6-.1-3.9 0-.7 0-1.4-.1-2.1-.1-2-.1-4-.2-6.1l-.3-18.3v-7.6l1.5-.3c1.1-.2 2.3-.5 3.4-.7 1.4-.3 2.7-.6 4.1-.9 2.5-.5 5-1.1 7.5-1.6l.6-.1c.2 0 .4 0 .6-.1.4 0 .7-.1 1-.1h.1c.8 0 1.3 0 1.9.1 1.6.3 2.8.9 3.7 1.8l.1.1c.2.2.4.5.5.8l.2.5c.1.1.1.3.1.4v.2l.1.5v.6l.1.6v.5c0 .5-.2 1.4-.4 2.2 0 .1-.1.3-.1.4-.1.2-.1.5-.2.7l-.4 1c-1.3 2.9-3.1 5.5-4.5 7.4-.8 1.1-1.7 2.1-2.7 3.3.4.9 1.7 4.5 3.6 9.4L12 248c.5 1.2.9 2.4 1.4 3.6.3.7.6 1.5.9 2.2.5 1.2.9 2.4 1.4 3.6.7 1.8 1.7 3.5 2.9 5.1 1.1 1.4 2.5 2.7 4 3.9 1.4 1 3 1.8 4.7 2.4 1.5.5 3.1.9 4.8 1.1.2 0 .4 0 .6.1.6.1 1.1.1 1.6.1h2.1c.5 0 .9 0 1.4-.1h.5c.5 0 1-.1 1.4-.2h.2c.7-.1 1.4-.2 1.8-.3l.4-.1c.5-.1.8-.2.8-.2l.1.5c.6.2.3.3-.2.4z"/><path class="st0" d="M.2 228.9c1-1.1 1.8-2.2 2.6-3.2.9-1.1 1.7-2.2 2.4-3.3.9-1.2 1.6-2.3 2.2-3.4.7-1.3 1.3-2.4 1.7-3.5l.3-.9c.1-.2.1-.4.2-.6l.1-.3c.1-.2.1-.3.1-.5v-.3c0-.2.1-.4.1-.6v-1.4l-.1-.3v-.2l-.2-.3c-.1-.1-.1-.2-.2-.3l-.1-.1c-.5-.5-1.3-.9-2.4-1-.4-.1-.9-.1-1.4-.1h-.2c-.3 0-.5 0-.8.1h-.4l-.1-.2.1.2-.3.1c-2.5.6-5 1.1-7.5 1.7-1.7.4-3.3.7-5 1.1l-1.1.2-.2 10.9-.2 12.3c0 1.8-.1 3.5-.1 5.1.7-.7 1.5-1.4 2.1-2.1.9-.9 1.8-1.9 2.9-3 1.9-2 3.8-4.1 5.5-6.1zm-1-15.1c.4-.1.7-.2 1-.2.9-.2 1.8-.4 2.6-.3 1.2.3 2 1.5 2 3 0 1-.4 2.1-1 2.9-1.6 2.1-3.3 4.2-5 6.2l-1.5 1.8c-.5.6-1 .9-1.3.9-.5 0-.8-.5-.8-1.4 0-.8-.1-1.6-.1-2.4l-.3-5.1v-1.5c.1-3 .8-3.1 4.4-3.9zm45.8-8.7l6.9-1.2c.8-.1 1.6-.1 2.3.2.8.3 1.3.3 1.6 0 .2-.3.3-.9.2-1.6-.4-2.3-.9-4.7-1.3-6.9l-.3-1.5c-.2-1-.8-1.4-1.8-1.3-.3 0-.6 0-.9.1-.9.1-1.7.1-2.6.3-4.3 1.1-8.6 1.9-12.8 2.7-3.8.7-7.8 1.5-11.7 2.5-1.6.4-2.4.6-2.6 1.1-.2.4.1 1.1.7 2.4.2.5.3 1 .4 1.6l.1.4c.6 2.9.6 6 .6 9v2.1c0 2.8-.1 5.7-.3 8.5-.2 3.8-.4 7.8-.1 11.5.4 4.9.6 10.7-.1 16.9v.3c.7 1.1 1.6 2.5 2.3 3.7 7.5-1.6 16.1-3.5 24.6-5.3 1.6-.3 3.2-.9 3.6-3.1.1-.6.2-1.1.3-1.7.5-2.6.9-5.3 1.9-8 .1-.4.3-1-.2-1.3s-1 .1-1.5.6l-.1.1c-1.7 1.4-3.3 2.3-5.2 2.6-3.4.7-7 1.4-10.7 2.3-1.1.3-1.8.2-2.2-.3-.3-.3-.5-.9-.5-1.7 0-1.9.1-3.8.1-5.6v-2.8c0-.7 0-2 1.4-2.4.3-.1.5-.2.8-.2 1-.3 2-.6 3-.6.8 0 1.5.2 2.1.7.3.3.6.4.9.4.5 0 .8-.7.9-1.2.9-3.8 1.9-8 2.7-12 .1-.6.1-1.1-.1-1.3-.1-.1-.2-.2-.4-.2s-.6.1-1.2.6c-1.9 1.4-3.9 1.9-5.8 2.3-.6.1-1.2.3-1.8.4-1 .2-1.6.2-2-.3-.3-.3-.5-.9-.4-1.6.1-2.1.1-4.3.1-6.4-.1-2 .8-2.9 2.8-3.3 1.9-.7 4.1-1.1 6.3-1.5zm-10.1-2.2c-1.1.3-2.1.5-3.2.8l-1.1.3c0 1.5.1 3 .1 4.6l.1 8.6v6.1c3.6-.4 7.3-.8 10.9-1.1l2.3-.2-2.2.7c-3.7 1.2-7.3 2.4-11 3.6v11l-.1 5.8c0 1.2 0 2.3-.1 3.5v1.1c1.3-.2 2.6-.5 3.9-.7l1.2-.2c1.3-.2 2.6-.5 3.9-.7.5-.1 1.1-.2 1.6-.3 1.2-.2 2.4-.4 3.5-.6 1.5-.2 3.2-.5 5.1-.7l.1.5c-1.7.5-3.4 1-5.1 1.4-1.1.3-2.1.6-3.2.8-.7.2-1.3.3-2 .5-1 .3-2 .5-3 .8-.7.2-1.4.4-2.2.5-1.7.4-3.4.9-5.1 1.3l-1.2.3-.1-2.8c0-1.4-.1-2.8-.1-4.2l-.1-5.7v-14.4l.1-10.6.1-3.9c0-1.8.1-3.7.1-5.8V202l1.2-.2c.6-.1 1.3-.2 1.9-.4 1.2-.2 2.4-.5 3.6-.7 1.8-.3 3.7-.7 5.5-1l1.5-.3c1.3-.2 2.7-.4 4-.6 1.8-.3 3.7-.6 5.5-.8l.1.5c-1.8.5-3.7 1-5.5 1.5-1 .3-2.1.5-3.1.8l-2.4.6c-1.8.5-3.7 1-5.5 1.5zm-58.3 91.4c.2-2.2 1.3-3.4 3.3-3.9 1.2-.3 2.4-.7 3.5-1 1-.3 2.1-.7 3.1-.9 1.4-.4 2.9-.8 4.3-1.3 3.4-1.1 6.8-2.2 10.2-2.2.7 0 1.4 0 2 .1h.3c.4 0 .6-.1.8-.3.3-.3.3-.9.1-1.7l-.9-3.3c-.3-1.1-.6-2.1-.9-3.2-.8-2.8-1.4-3.6-2.9-3.6-.8 0-1.8.2-3.4.7-9.7 3-21.1 6.5-32.5 9.8-2.5.7-5.2 1.9-8 3.5-9.2 5.2-14.8 13.3-15.4 22.2-.3 3.7.9 6.8 2.1 9.8.4 1 .8 2 1.1 3 .2.5.5.8.8.8.5 0 1.2-.4 1.8-1.1 2.1-2.4 4.2-4.8 6.2-7.2l.8-.9c.6-.7.8-1.2.7-1.6-.1-.3-.3-.5-.8-.6-2.5-.8-2.2-3.3-1.8-5 1.2-4.8 4.4-8.2 10-10.8 1-.5 1.7-.7 2.1-.7.3 0 .6.1.8.3.4.4.5 1 .4 2.3-.1 1.4-.2 2.8-.3 4.1-.2 1.9-.3 4-.3 5.9-.1 17.9-.1 36.1 0 51.9 0 2.7-.1 5.2-.9 7.9-.3.9-.2 1.3-.1 1.5.2.3.7.3 1.5 0 .7-.2 1.5-.4 2.2-.6 2-.6 4.1-1.2 6.2-1.9 3.5-1.2 3.6-1.4 2.9-4.7-.2-.8-.2-1.7-.3-2.7v-17.8c.1-1.6 0-3.3 0-4.9-.1-2.9-.1-5.8.4-8.9v-.3c.1-.9.2-2 1.5-2.4.4-.1.8-.3 1.2-.4 1.3-.5 2.6-1 3.9-1 .7 0 1.2.1 1.8.4 1.3.7 2.1.2 2.6-1.6l.3-1.1c1-3.5 2-7.2 2.9-10.7.3-1.1.2-1.6.1-1.7 0 0-.1-.1-.3-.1-.3 0-.9.2-1.6.6-3.1 1.7-6.2 3-9.7 4-1.1.3-1.8.3-2.2-.2-.3-.3-.5-.8-.5-1.6V309c.4-4.8.5-9.7.9-14.7zm7.2 22.4l.1.5c-4.7 1.8-9 3.5-13.2 5.1l-.7 41.2h-.5l-1.2-73.9c-.3.1-.5.2-.8.3-1 .4-2 .7-3 1.1-1.2.4-2.1.8-3 1.1l-1.5.6c-.3.1-.6.2-.9.4-.2.1-.3.1-.5.2-2 .9-3.7 1.9-5.1 3.1-1.6 1.3-2.8 2.7-3.7 4.2-.8 1.4-1.5 3-1.9 4.6-.8 3-.8 5.6-.8 7.3.1 1.7.2 2.7.2 2.7h-.2v.2c-.2 0-.2-.1-.4-.8v-.1c-.1-.4-.3-1.1-.5-1.9-.1-.7-.3-1.8-.4-3.2-.1-1.6 0-3 .3-4.4.3-1.9.9-3.7 1.8-5.4 1-1.9 2.4-3.8 4.2-5.4 1.6-1.5 3.6-2.8 5.9-3.8.2-.1.4-.2.5-.2.3-.2.7-.3 1-.4l1.5-.6c1-.4 2-.8 3.1-1.2 1.1-.4 2.1-.8 3.1-1.1 1-.4 2-.7 3.1-1 2-.7 4.1-1.3 5.9-1.9 1.7-.5 3.3-1 4.9-1.4l3.3-.9 2.4-.6c2.5-.6 5-1.2 7.4-1.7.6-.1 1.1-.2 1.5-.3.2 0 .4-.1.6-.1l.7-.1.3-.1.1.3c0 .1 0 .1-.2.2h-.1c-.4.2-1.1.4-2.7 1l-1.1.4c-1.7.6-3.8 1.4-6.3 2.2-1.5.5-3.2 1.1-4.9 1.7l-1.1.4c-1.4.5-2.9 1-4.4 1.5l-1.3.5c-1.2.4-2.5.9-3.7 1.3l-.5 30.8c3.8-.5 8.1-1.4 12.7-2.4zm154.5-50.9c-3-4.3-7.4-6.7-13.2-7h-1.6c-2.2 0-4.7.2-7.7.8-.8.1-1.7.3-2.6.5-.8 0-1.7.1-2.6.3-1.5.3-3 .7-4.5 1.1l-.5.1c-1.2.3-2.5.7-3.7 1-1.4.3-2 .9-2.2 1.4-.3.7-.2 1.4.4 2.1 1.5 1.8 1.6 4 1.5 6.9-.1 4.5-.1 9-.2 13.6 0 4.4-.1 8.3-.1 12.3 0 1-.1 2.1-.1 3.2v1.3c-.1 3.4-.2 6.8-.1 10.2 0 .7-.1 1.4-.3 2-.5 1.1-.9 2.3-.5 2.9.2.2.5.4 1 .4.4 0 .7-.1 1-.1.3-.1.5-.1.9-.2 2.8-.8 5.6-1.4 8.2-2l1-.2c1.7-.3 3.6-.7 5.3-1.1 13-3 20.7-9.8 24.9-21.9 3.2-9.7 1.8-18.9-4.3-27.6zm-28.6 23.9c0 1.2 0 2.4-.1 3.6 0 1.3-.1 2.6-.1 3.9v.4c0 1.1-.1 2.2-.2 3.2v.8c-.1 1.1-.1 2.3-.2 3.6-.2 2.3-.4 4.2-.5 5.4s-.2 1.7-.3 2v.1l-.1.1c0 .1-.1.1-.2.1h-.2v-.2c0-.1-.1-.8-.2-2-.1-1-.3-2.9-.5-5.2v-.6c-.1-.9-.1-1.9-.2-2.9v-.5c-.1-1.1-.1-2.3-.1-3.5s-.1-2.7-.1-4.2v-5.4c0-1.2 0-2.3.1-3.4 0-1.3.1-2.7.1-4.3 0-1 .1-2 .1-3l.1-1c.1-1 .1-2 .2-2.9l.1-.7c.1-1.8.3-3.5.5-5.4.2-1.3.3-2.1.3-2.1h.5c0 .2.1.9.2 2 .2 1.8.3 3.5.5 5.2v.4c.1 1 .1 2 .2 3.1v.4c.1 1.1.1 2.3.1 3.6s.1 2.7.1 4.2v4.4l-.1.8zm6.2 16.5h-.2c-.2 0-.4.1-.5.1s-.3 0-.4-.1c-.2-.2-.2-.5-.2-1v-11.1l.3-.1v-22.1c0-1.7.5-2.3 2.2-2.6 1.4-.3 2.7-.4 3.9-.4 4.8 0 7.5 2.2 9 7.5 1.5 5.2 1.7 10.7.4 16.5-1.2 6.4-7.3 12-14.5 13.3zm23.4-22.8c0 2.2-.2 4.1-.5 6-.3 2-.9 3.9-1.7 5.8-.7 1.8-1.7 3.5-2.9 5.2-1 1.5-2.3 2.8-3.7 4-1.1 1-2.4 1.8-3.8 2.6-1 .6-2 1-3.2 1.5-.9.4-1.7.5-2.1.7-.5.1-.7.2-.8.2l-.1-.5s1-.3 2.6-1.2c2.3-1.2 4.3-2.8 6.1-4.5 1.1-1.1 2.1-2.4 3-3.8.9-1.4 1.6-3 2.3-4.7.6-1.7 1-3.5 1.3-5.3.3-1.8.4-3.7.4-5.6v-.8c0-.7 0-1.3-.1-1.9 0-.9-.2-1.7-.3-2.6v-.1c-.3-1.9-.8-3.5-1.3-5-.6-1.6-1.4-2.9-2.4-4-.9-1.1-2-2.1-3.1-2.8-2.3-1.5-4.7-2.1-6.2-2.3-1.6-.2-2.6-.2-2.7-.2v-.5s.3-.1.7-.1c.5-.1 1.2-.2 2.1-.2h.1c1.1 0 2.2.1 3.2.3 1.4.3 2.8.7 3.9 1.3 1.5.7 2.8 1.7 3.9 2.9 1.2 1.3 2.2 2.8 3 4.4s1.3 3.4 1.7 5.5l.1.4c.1.8.3 1.7.3 2.5l.1.7v2.1h.1zM31.1 283c-1.6-.6-3.4-.9-5.3-.9s-4 .3-6 .9c-5.2 1.6-10.2 5.1-13.6 9.5-7 9.1-10.2 18.7-10.4 31.2-.4 5.4 2 11.5 6.6 16.8 2.4 2.8 6 4.2 10.3 4.2 2.2 0 4.6-.4 7-1.2 6.8-2.2 12.9-7 16.7-13.2 7.5-12 9.5-23.5 5.9-34.3-2.3-6.7-6-11-11.2-13zm-15.3 56.6c-.1 0-.3 0-.7.1h-1.8c-.3 0-.6-.1-.9-.1l-.5-.1c-.4-.1-.9-.2-1.5-.4-1.1-.4-2.1-1-3.1-1.7-1.1-.9-2.1-1.9-2.9-3-.9-1.3-1.7-2.7-2.3-4.1-.3-.8-.6-1.6-.8-2.5l-.1-.4c-.1-.3-.1-.6-.2-.8l-.1-.5c-.1-.3-.1-.6-.2-.8-.3-1.8-.5-3.7-.5-5.7s.2-4 .5-6c.3-1.9.8-3.9 1.5-6 .6-1.9 1.4-3.8 2.3-5.5.2-.5.4-.8.7-1.3v-.1c.2-.4.4-.8.7-1.2.4-.7.9-1.5 1.5-2.2.9-1.3 2-2.5 3.1-3.6.8-.8 1.7-1.6 2.7-2.4.8-.6 1.5-1 1.9-1.2l.5-.3c.1 0 .1-.1.2-.1l.3.4-.6.5c-.4.3-.9.8-1.7 1.4-.8.7-1.5 1.6-2.3 2.5-.8 1-1.7 2.2-2.5 3.6-.3.6-.8 1.3-1.2 2.1-.2.4-.4.8-.6 1.1-.2.4-.4.8-.5 1.2-.7 1.5-1.3 3.2-1.8 5.1s-.9 3.7-1.2 5.5c-.3 2-.4 3.8-.4 5.5s.1 3.5.4 5.3l.2 1.2c.1.4.2.8.3 1.3.2.7.4 1.4.6 2.3.5 1.5 1.1 2.9 1.8 4 .7 1.2 1.5 2.2 2.2 3.1.8.8 1.7 1.5 2.5 2 .3.2.5.3.8.4.1.1.3.1.4.2l.3.1c.3.1.5.2.7.3.3.1.7.2.9.2s.4.1.5.1h.2c.4.1.6.1.6.1l1.4.3-1.3.1zm3.8-6.8c-.7.2-1.4.3-2.1.3-3.4 0-6.4-2.4-7.4-5.9-1.9-7-1.7-14.7.6-22.9.6-2 1.6-4.1 3.1-6.4s3.5-3.9 5.6-4.6c1.9-.6 3.7-.3 5.2.7 4.2 2.8 5.4 7.9 6 12.9.1.7.1 1.5 0 2.3v1.2c.2 3.3-.3 7-1.6 11.3-1.5 5.4-5.3 9.9-9.4 11.1zm19.2-19.7l-.3 1.5-.3 1.2-.1.3c-.3 1.2-.6 2.1-.8 2.9-.6 1.8-1.3 3.6-2.3 5.5-.8 1.7-1.8 3.3-2.8 4.8-1 1.4-2 2.6-3.1 3.7-.5.5-1.1 1-1.4 1.4l-.5.4c-.3.2-.6.5-.8.6-.4.3-.8.5-1.1.7-.2.1-.4.3-.6.4l-.2.1c-.4.2-.6.4-.7.4l-1.7.9 1.4-1.3s.2-.2.6-.4l.3-.2c.2-.1.3-.3.5-.4l.2-.1c.2-.2.5-.5.8-.7l.7-.7c.1-.1.3-.3.4-.5.1-.1.2-.3.4-.4.3-.3.6-.6.9-1 .8-1 1.7-2.2 2.5-3.6.8-1.3 1.5-2.8 2.3-4.5.7-1.5 1.3-3.3 1.8-5.1.3-1 .5-1.9.7-2.7l.3-1.4c0-.2.1-.5.1-.8l.1-.6c.3-1.9.4-3.8.4-5.5 0-1.7-.1-3.5-.4-5.2-.2-1.6-.6-3.2-1.2-4.7-.5-1.5-1.2-2.8-1.8-3.9-.2-.3-.4-.6-.5-.8-.2-.3-.4-.5-.6-.8-.3-.5-.7-.9-1.2-1.4-.8-.8-1.6-1.5-2.5-2-.7-.5-1.5-.8-2.3-1.1-.7-.2-1.3-.3-1.7-.4l-.6-.1-2.2-.3 2.9-.3h.6c.4 0 .9 0 1.3.1 1 .1 1.9.4 2.8.7 1.1.4 2.1 1 3.1 1.7.6.5 1.1.9 1.5 1.3l.7.7c.2.3.4.5.7.8.9 1.3 1.7 2.6 2.3 4.1.7 1.6 1.2 3.3 1.5 5 .3 1.8.5 3.7.5 5.7s-.2 4-.6 6zM84 268.2c-1.8-.8-3.9-1.2-6.1-1.2-1.7 0-3.4.2-5.2.7-5.2 1.4-10.1 4.6-13.6 9-7 8.8-10.2 18.2-10.4 30.6-.4 5.3 2 11.3 6.6 16.6 2.5 2.8 6.3 4.4 10.9 4.4 2 0 4.2-.3 6.4-.9 6.8-1.9 12.9-6.3 16.7-12.1 7.4-11.3 9.4-22.5 5.9-33.3-2.3-7.1-5.9-11.5-11.2-13.8zm-15.3 55h-1.5c-.3 0-.7 0-1.1-.1-.3 0-.5-.1-.8-.1-.2 0-.3-.1-.5-.1-.6-.2-1-.3-1.5-.5-1.1-.4-2.1-1-3.1-1.8-1.1-.9-2-1.9-2.9-3-.9-1.3-1.7-2.6-2.3-4.1-.3-.9-.6-1.6-.8-2.4-.1-.3-.1-.5-.2-.8l-.2-1c-.1-.3-.1-.5-.2-.8-.3-1.8-.5-3.7-.5-5.6 0-2 .2-4 .5-5.9.3-1.9.8-3.9 1.5-5.9.6-1.8 1.4-3.7 2.3-5.4.2-.4.4-.8.7-1.2l.1-.1c.2-.4.4-.7.6-1.1.4-.7.9-1.3 1.5-2.2 1-1.3 2-2.5 3.1-3.5.8-.8 1.7-1.6 2.7-2.3.8-.6 1.5-.9 1.9-1.2l.4-.2c.1-.1.2-.1.3-.1l2.1-.9-2.5 1.8c-.4.3-1 .8-1.7 1.4-.8.7-1.6 1.5-2.3 2.4-.8 1-1.7 2.1-2.5 3.5-.4.6-.8 1.3-1.2 2.1-.2.4-.4.7-.6 1.1l-.6 1.2c-.7 1.5-1.3 3.2-1.8 5s-.9 3.6-1.2 5.4c-.3 1.9-.4 3.7-.4 5.4s.1 3.4.4 5.2c0 .2.1.5.1.7l.1.5.3 1.2c.2.6.4 1.4.7 2.3.5 1.5 1.1 2.8 1.8 4s1.4 2.2 2.2 3.1c.9.9 1.7 1.5 2.5 2 .3.2.5.3.8.4.1.1.3.1.4.2.1 0 .2.1.4.2s.5.2.7.3c.3.1.7.2.9.3.2 0 .3.1.5.1h.5c.2 0 .3.1.4.1l1.5.4h-1.5zm3.8-6.6c-.6.1-1.2.2-1.8.2-3.5 0-6.7-2.5-7.6-6-1.9-6.9-1.7-14.5.6-22.5.6-2 1.6-4 3.1-6.2s3.5-3.8 5.6-4.3c1.9-.5 3.7-.2 5.2.9 4.2 3 5.4 8 6 13 .1.7.1 1.5 0 2.3v1.2c.2 3.3-.3 6.9-1.6 11.1-1.5 5.1-5.4 9.3-9.5 10.3zm19.3-18.3c0 .3-.1.5-.1.8l-.3 1.4c-.1.2-.1.5-.2.7-.2 1-.5 1.9-.8 2.8-.6 1.7-1.4 3.5-2.3 5.3-.8 1.6-1.8 3.1-2.8 4.5-1 1.3-2 2.4-3.1 3.4-.4.4-.9.8-1.4 1.3-.2.1-.4.3-.6.4-.3.2-.5.4-.7.5-.4.3-.8.5-1.1.7l-.6.3-.2.1c-.4.2-.6.3-.7.3l-2 1 1.8-1.4s.3-.2.6-.5c.1 0 .1-.1.2-.2.2-.1.3-.2.5-.4.3-.2.6-.5 1-.8.2-.2.5-.4.7-.7l.4-.4.4-.4c.3-.3.5-.6.8-.9.8-.9 1.6-2 2.5-3.4.8-1.3 1.5-2.7 2.2-4.3.7-1.5 1.2-3.1 1.8-4.9.3-1 .5-1.8.7-2.6l.5-2.7c.3-1.9.4-3.7.4-5.4s-.1-3.4-.4-5.2c-.2-1.6-.6-3.2-1.2-4.7-.5-1.5-1.2-2.9-1.8-4-.2-.3-.4-.6-.5-.9l-.2-.2c-.1-.2-.3-.4-.4-.5-.4-.6-.8-1.1-1.2-1.4-.8-.8-1.6-1.6-2.5-2.1-.7-.5-1.5-.9-2.3-1.2-.7-.2-1.2-.4-1.7-.5l-2.7-.5 2.8-.1c.4 0 1.1 0 1.9.1 1 .2 1.9.4 2.8.8 1.1.5 2.1 1.1 3.1 1.9.6.5 1.1.9 1.5 1.4.2.2.5.5.7.8v.1c.2.3.4.5.7.9.9 1.3 1.7 2.7 2.3 4.2.7 1.6 1.2 3.3 1.5 5 .3 1.7.5 3.6.5 5.6 0 2.1-.2 4.1-.5 6z"/></svg>