<svg id="Layer_1" xmlns="http://www.w3.org/2000/svg" viewBox="0 0 261.5 65.2"><style>.st0{fill:#010101}</style><path class="st0" d="M6 19.1v15.2H2.1V.7h11.5v3.1H6v12.3h7v3.1H6zm13 15.3V.7h6c2.4 0 4.2.8 5.5 2.3 1.3 1.5 2 4.2 2 8.1v.2c0 4.9-1.2 8-3.6 9.3l4 13.8H29l-3.8-12.9h-2.4v12.9H19zm9.6-22.6v-1.4c0-2.5-.3-4.2-1-5.1-.7-1-1.6-1.4-2.7-1.4h-2.1v14.7h2.1c2.5-.1 3.7-2.3 3.7-6.8zm14.6 7.3v12.2h8.4v3.1H39.3V.7h12.1v3.1h-8.2v12.3h7.5v3.1h-7.5zm19.1 0v12.2h8.4v3.1H58.4V.7h12.1v3.1h-8.2v12.3h7.5v3.1h-7.5zm36.5 15.3V19.1h-7.3v15.2h-3.8V.7h3.8V16h7.3V.7h3.8v33.7h-3.8zm11.7 0V.7h3.8v33.7h-3.8zm18.1-14.8v-3.1h7.6v17.8h-2.4l-.7-3.1c-1 2.6-2.7 3.9-5.2 3.9-2 0-3.6-.8-4.7-2.3-1.1-1.6-1.7-4.4-1.7-8.4V11c0-4.2.6-7.1 1.9-8.7 1.3-1.6 3-2.4 5.2-2.4s3.8.6 5 1.7c1.1 1.1 1.8 3.1 2.1 6l-3.5.9c-.2-2.1-.6-3.5-1.1-4.3-.5-.8-1.3-1.2-2.4-1.2-1 0-1.9.5-2.5 1.5-.6 1-.9 2.9-.9 5.6V25c0 2.6.3 4.4.9 5.4.6 1 1.4 1.5 2.5 1.5 2.4 0 3.7-2.2 3.8-6.5v-5.9h-3.9zm26.2 14.8V19.1h-7.3v15.2h-3.8V.7h3.8V16h7.3V.7h3.8v33.7h-3.8zm25.7-15.3v15.2h-3.8V.7h11.5v3.1h-7.7v12.3h7v3.1h-7zM194 34.4V.7h3.8v33.7H194zM207.3.7l4.8 28.1L217 .7h3.8l-6.3 33.7h-4.8L203.4.7h3.9zm23 18.4v12.2h8.4v3.1h-12.2V.7h12.1v3.1h-8.2v12.3h7.5v3.1h-7.6zm25.5 7.7c0-2.6-.9-4.5-2.6-5.9l-3.8-2.8c-2.9-2.1-4.3-5.1-4.3-9.1 0-3.3.6-5.7 1.9-7 1.3-1.3 3-2 5.2-2s3.9.6 5.1 1.9 2 3.5 2.2 6.7l-3.7.8c-.1-4.1-1.3-6.2-3.6-6.2s-3.4 1.7-3.4 5.2c0 1.5.2 2.8.5 3.8s1 1.8 1.9 2.6l3.8 2.8c.9.6 1.6 1.3 2.2 1.8.5.6 1.1 1.5 1.6 2.8.5 1.3.7 2.8.7 4.5 0 3.1-.7 5.2-2 6.5-1.3 1.3-3.1 1.9-5.4 1.9-2.3 0-4.1-.7-5.3-2.2-1.3-1.5-2.1-4.1-2.4-7.9l3.6-.6c.1 2.7.5 4.7 1.2 5.8.7 1.2 1.6 1.7 2.8 1.7 2.6 0 3.8-1.7 3.8-5.1zM28.4 59.4l.3 1.7c.5.3 1.2.4 1.9.4s1.2-.1 1.7-.4c.5-.3.7-.7.7-1.2 0-.4-.2-.7-.5-.9-.3-.3-.7-.5-1.2-.6-.5-.1-1-.3-1.6-.6-.6-.2-1.1-.5-1.6-.8-.5-.3-.9-.7-1.2-1.3-.3-.6-.5-1.2-.5-2 0-1.3.5-2.4 1.4-3.1.9-.7 2.1-1.1 3.6-1.1.7 0 1.4.1 2.1.2.7.1 1.3.3 1.7.4l.6.2-.1 3.6h-1.8l-.5-1.7c-.6-.2-1.2-.3-1.7-.3-.7 0-1.2.1-1.6.4-.4.3-.5.6-.5 1s.2.7.5.9c.3.3.7.5 1.2.6s1 .3 1.6.6c.6.2 1.1.5 1.6.8.5.3.9.7 1.2 1.2.3.5.5 1.2.5 1.9 0 1.4-.5 2.6-1.5 3.4-1 .8-2.3 1.2-3.9 1.2-.7 0-1.4-.1-2.1-.2-.7-.1-1.3-.3-1.7-.4l-.6-.2v-3.8h2zm20.4-7.3v3.3h4v2.2h-4v3.8h3.5l.5-1.6h1.8v4H44.2V62l1.5-.5v-9.4l-1.5-.6v-1.6l4.6-.1h5.6v3.8h-1.8l-.6-1.5h-3.2zM68.3 62v1.7h-6V62l1.5-.5v-9.4l-1.5-.6v-1.6l4.6-.1h1.5c1.7 0 2.9.3 3.8 1 .9.7 1.3 1.7 1.3 3 0 1.8-.7 3-2.2 3.7.3.4.6.8.8 1.3l1.3 2.7 1.3.5v1.7H71L69.4 60c-.4-.8-.6-1.3-.8-1.5-.2-.2-.6-.3-1.1-.3h-.7v3.3l1.5.5zm-1.5-9.9v4.1H68c.8 0 1.4-.2 1.8-.5.4-.4.7-.9.7-1.5s-.2-1.1-.5-1.4c-.4-.4-.8-.5-1.4-.5h-1.8zm19.6 11.6l-4-11.7-1.3-.6v-1.6l6.1-.1v1.7l-1.5.6 1.8 5.7.6 2.4.6-2.3 2-5.8-1.5-.6v-1.6l5.9-.1v1.7l-1.4.6-4.2 11.6h-3.1zM107 52.1v3.3h4v2.2h-4v3.8h3.5l.5-1.6h1.8v4h-10.4V62l1.5-.5v-9.4l-1.5-.6v-1.6l4.6-.1h5.6v3.8h-1.8l-.5-1.5H107zm13.7 11.6V62l1.5-.5v-9.4l-1.5-.6v-1.6l4.6-.1h1.9c2 0 3.6.6 4.7 1.7 1.1 1.2 1.6 2.8 1.6 5.1 0 2.2-.6 4-1.8 5.3-1.2 1.3-2.8 1.9-4.8 1.9h-6.2zm4.6-11.6v9.3h1.6c1 0 1.8-.4 2.4-1.1.6-.7.8-2 .8-3.7 0-1.6-.3-2.8-.8-3.5-.5-.7-1.3-1.1-2.3-1.1h-1.7zm26.5 11.6V62l1.5-.5v-9.4l-1.5-.6v-1.6l4.6-.1h1.9c2 0 3.6.6 4.7 1.7 1.1 1.2 1.6 2.8 1.6 5.1 0 2.2-.6 4-1.8 5.3-1.2 1.3-2.8 1.9-4.8 1.9h-6.2zm4.5-11.6v9.3h1.6c1 0 1.8-.4 2.4-1.1.6-.7.8-2 .8-3.7 0-1.6-.3-2.8-.8-3.5-.5-.7-1.3-1.1-2.3-1.1h-1.7zm24.1-2.4l4.3 11.8 1.4.5v1.7h-6.3V62l1.5-.5-.5-1.5h-4.4l-.5 1.5 1.5.5v1.7h-6V62l1.4-.5 4.4-11.7 3.2-.1zm-1.8 3.5l-1.6 4.7h3.1l-1.5-4.7zM199 62v1.7h-6V62l1.5-.5v-9.4l-1.5-.6v-1.6l6-.1v1.7l-1.5.6v9.4l1.5.5zm11.8-9.9v9.3h3l.4-2.2h1.9v4.6h-9.9V62l1.5-.5v-9.4l-1.5-.6v-1.6l6-.1v1.7l-1.4.6zm21.1 9.9v1.7h-6V62l1.5-.5v-2.6l-3.6-6.9-1.3-.5v-1.6l5.6-.1v1.7l-1 .4 2 4.3 2.1-4.3-1.1-.4v-1.6l5.4-.1v1.7l-1.5.5-3.6 6.8v2.6l1.5.6z"/></svg>