<svg id="Layer_1" xmlns="http://www.w3.org/2000/svg" viewBox="0 0 296.1 50.5"><style>.st0{fill:#010101}</style><path class="st0" d="M5.9 25.2v1.6H.5v-1.6l1.3-.5v-8.5l-1.3-.5v-1.5l4.1-.1H6c1.5 0 2.7.3 3.5.9.8.6 1.2 1.5 1.2 2.7 0 1.6-.7 2.7-2 3.4.3.3.6.7.8 1.2l1.2 2.5 1.2.4v1.6H8.5L7 23.4c-.3-.7-.6-1.2-.8-1.4-.2-.2-.5-.3-1-.3h-.6v3l1.3.5zm-1.3-9v3.7h1c.7 0 1.3-.2 1.7-.5s.6-.8.6-1.4c0-.5-.2-1-.5-1.3s-.8-.5-1.3-.5H4.6zm17.9 0v3h3.6v2h-3.6v3.5h3.2l.4-1.5h1.7v3.6h-9.4v-1.6l1.3-.5v-8.5l-1.3-.5v-1.5l4.1-.1h5v3.5h-1.7l-.4-1.4h-2.9zm20-2.1l3.9 10.7 1.3.4v1.6H42v-1.6l1.3-.4-.4-1.3h-4l-.4 1.3 1.4.4v1.6h-5.4v-1.6l1.3-.4 4-10.7h2.7zm-1.6 3.1l-1.4 4.3h2.8l-1.4-4.3zm17-1v8.5h2.8l.4-2h1.7v4.1h-9v-1.6l1.3-.5v-8.5l-1.3-.5v-1.5l5.5-.1v1.6l-1.4.5zm23.8 32.6v-47h4.8V45h9.3v3.8H81.7zM120 14.3v21.9c0 5.1-.8 8.6-2.4 10.5s-3.9 2.9-7 2.9c-3 0-5.3-1-7-2.9s-2.4-5.5-2.4-10.5V14.3c0-5.1.8-8.6 2.4-10.5 1.6-1.9 3.9-2.9 7-2.9 3 0 5.3 1 7 2.9 1.6 1.9 2.4 5.4 2.4 10.5zm-4.8 22.8V13.4c0-5.8-1.5-8.6-4.6-8.6-1.5 0-2.6.6-3.4 1.9-.8 1.2-1.2 3.5-1.2 6.8v23.7c0 3.3.4 5.5 1.2 6.8.8 1.2 2 1.9 3.4 1.9 3.1-.1 4.6-3 4.6-8.8zm18 6.8c.8 1.2 1.8 1.8 3.2 1.8 1.4 0 2.4-.5 3.1-1.6.7-1.1 1.2-3.1 1.4-6l4.2.5c-.4 4.1-1.3 6.9-2.7 8.5-1.5 1.6-3.6 2.4-6.3 2.4-2.7 0-4.9-1-6.5-2.9-1.6-2-2.4-5.6-2.4-10.8V14.6c0-5.2.8-8.8 2.4-10.8 1.6-2 3.8-2.9 6.5-2.9s4.8.7 6.2 2.1c1.4 1.4 2.3 3.9 2.6 7.5l-4.4 1.1c-.2-2.6-.7-4.3-1.3-5.3-.7-1-1.6-1.5-2.9-1.5-1.3 0-2.3.6-3.1 1.9-.8 1.3-1.1 3.6-1.1 6.9v23.6c0 3.3.4 5.5 1.1 6.7zm33 4.9l-1.9-15.9h-8.5L154 48.8h-4.8l7.2-47h7.4l7.2 47h-4.8zm-6-41L156.6 29h7.1l-3.5-21.2zm17.1 41v-47h4.8V45h9.3v3.8h-14.1zM211 24.7v24h-4.8v-47h14.4v3.8H211v15.3h8.7v3.8H211zm34-10.4v21.9c0 5.1-.8 8.6-2.4 10.5s-3.9 2.9-7 2.9c-3 0-5.3-1-7-2.9s-2.4-5.5-2.4-10.5V14.3c0-5.1.8-8.6 2.4-10.5 1.6-1.9 3.9-2.9 7-2.9 3 0 5.3 1 7 2.9 1.6 1.9 2.4 5.4 2.4 10.5zm-4.7 22.8V13.4c0-5.8-1.5-8.6-4.6-8.6-1.5 0-2.6.6-3.4 1.9-.8 1.2-1.2 3.5-1.2 6.8v23.7c0 3.3.4 5.5 1.2 6.8.8 1.2 2 1.9 3.4 1.9 3-.1 4.6-3 4.6-8.8zm30.4-22.8v21.9c0 5.1-.8 8.6-2.4 10.5s-3.9 2.9-7 2.9c-3 0-5.3-1-7-2.9s-2.4-5.5-2.4-10.5V14.3c0-5.1.8-8.6 2.4-10.5 1.6-1.9 3.9-2.9 7-2.9 3 0 5.3 1 7 2.9 1.6 1.9 2.4 5.4 2.4 10.5zm-4.8 22.8V13.4c0-5.8-1.5-8.6-4.6-8.6-1.5 0-2.6.6-3.4 1.9-.8 1.2-1.2 3.5-1.2 6.8v23.7c0 3.3.4 5.5 1.2 6.8.8 1.2 2 1.9 3.4 1.9 3.1-.1 4.6-3 4.6-8.8zm12 11.7v-47h8.2c3 0 5.4 1 7 2.9 1.6 1.9 2.5 5.5 2.5 10.5v20.1c0 5.1-.8 8.6-2.5 10.5-1.6 1.9-4 2.9-7 2.9h-8.2zm12.9-12.4V14.2c0-5.7-1.6-8.6-4.7-8.6h-3.4V45h3.4c3.1 0 4.7-2.9 4.7-8.6zm-228 1.9c0 .2.2.3 0 .5l-.1.1h-2.9c-.3 0-.3.1-.6.1H59c-.1 0-.1-.1-.3-.1h-2.3c-.3 0-.3.1-.6.1s-.3-.1-.6-.1-.3.1-.6.1-.3-.1-.6-.1h-2.4c-.3 0-.3-.1-.6-.1h-2.4c-.3 0-.3-.1-.6-.1s-.3.1-.6.1h-6c-.2 0-.3 0-.4.1h-2.6c-.3 0-.3-.1-.6-.1h-.6c-.3 0-.3-.1-.6-.1H36c-.3 0-.3.1-.6.1h-.6c-.3 0-.3.1-.6.1s-.3-.1-.6-.1h-4.8c-.3 0-.3-.1-.6-.1h-.6c-.3 0-.3.1-.6.1s-.3-.1-.6-.1h-4.2c-.3 0-.3-.1-.6-.1H21c-.2 0-.3 0-.4.1h-.2c-.3 0-.3-.1-.6-.1s-.3.1-.6.1H19c-.1 0-.2-.1-.4-.1h-2c-.1 0-.2.1-.4.1h-.6c-.3 0-.3-.1-.6-.1s-.3.1-.6.1-.3-.1-.6-.1H12c-.3 0-.3-.1-.6-.1h-.8c-.1 0-.2.1-.4.1H8.4c-.3 0-.3.1-.5.1h-.1c-.3 0-.3-.1-.6-.1H1.9l-.1-.1c-.1-.1-.1-.1-.1-.2s0-.1.1-.2v-.8c0-.3-.1-.3-.1-.6v-.2c0-.1-.1-.2 0-.3v-.1l.1-.1.1-.1H2c.1 0 .2.1.4.1h1.2c.3 0 .3-.1.6-.1h.6c.3 0 .3-.1.6-.1H6c.2 0 .3.1.4.1h.2c.3 0 .3-.1.6-.1h.6c.3 0 .3.1.6.1h.2c.1 0 .2-.1.4-.1h.6c.3 0 .3 0 .5.1H15c.3 0 .3.1.6.1h1.2c.3 0 .3.1.6.1s.3-.1.6-.1h1.8c.3 0 .3.1.6.1h1.2c.3 0 .3.1.6.1h.2c.1 0 .2-.1.4-.1s.3 0 .4.1h.2c.3 0 .3-.1.6-.1h1.4c.1 0 .2.1.4.1h2.3c.3 0 .3 0 .5-.1h1.3c.2 0 .3 0 .4.1h2.6c.3 0 .3-.1.6-.1s.3.1.6.1.3-.1.6-.1h8.6c.1 0 .2-.1.4-.1h.2c.1 0 .2.1.4.1h2.4c.2 0 .3 0 .4.1h6.6c.3 0 .3.1.6.1h1.1c.3 0 .3.1.6.1s.3-.1.6-.1.3.1.6.1.3-.1.6-.1.3.1.6.1h1.8c.3 0 .3-.1.6-.1h1.5c.1 0 .1 0 .2.1s.1.2.1.3V38l.2.3z"/></svg>