<svg id="Layer_1" xmlns="http://www.w3.org/2000/svg" viewBox="0 0 278.5 84.8"><style>.st0{fill:#010101}</style><path class="st0" d="M169.7 83.1c0 .2.2.3 0 .5l-.1.1h-2.9c-.3 0-.3.1-.6.1h-.2c-.1 0-.1-.1-.3-.1h-2.3c-.3 0-.3.1-.6.1s-.3-.1-.6-.1-.3.1-.6.1-.3-.1-.6-.1h-2.4c-.3 0-.3-.1-.6-.1h-2.6c-.3 0-.3-.1-.6-.1s-.3.1-.6.1h-6c-.2 0-.3 0-.4.1h-2.6c-.3 0-.3-.1-.6-.1h-.6c-.3 0-.3-.1-.6-.1h-.6c-.3 0-.3.1-.6.1h-.6c-.3 0-.3.1-.6.1s-.3-.1-.6-.1h-4.8c-.3 0-.3-.1-.6-.1h-.6c-.3 0-.3.1-.6.1s-.3-.1-.6-.1h-4.2c-.3 0-.3-.1-.6-.1h-.6c-.2 0-.3 0-.4.1h-.2c-.3 0-.3-.1-.6-.1s-.3.1-.6.1h-.2c-.1 0-.2-.1-.4-.1h-2c-.1 0-.2.1-.4.1h-.6c-.3 0-.3-.1-.6-.1s-.3.1-.6.1-.3-.1-.6-.1h-1.8c-.3 0-.3-.1-.6-.1h-.8c-.1 0-.2.1-.4.1h-1.8c-.3 0-.3.1-.5.1h-.1c-.3 0-.3-.1-.6-.1h-5.3l-.1-.1c-.1-.1-.1-.1-.1-.2s0-.1.1-.2v-.8c0-.3-.1-.3-.1-.6v-.2c0-.1-.1-.2 0-.3v-.1c0-.1 0 0 .1-.1l.1-.1h.1c.1 0 .2.1.4.1h1.2c.3 0 .3-.1.6-.1h.6c.3 0 .3-.1.6-.1h.6c.2 0 .3.1.4.1h.2c.3 0 .3-.1.6-.1h.6c.3 0 .3.1.6.1h.2c.1 0 .2-.1.4-.1h.6c.3 0 .3 0 .5.1h4.9c.3 0 .3.1.6.1h1.2c.3 0 .3.1.6.1s.3-.1.6-.1h1.8c.3 0 .3.1.6.1h1.2c.3 0 .3.1.6.1h.2c.1 0 .2-.1.4-.1s.3 0 .4.1h.2c.3 0 .3-.1.6-.1h1.4c.1 0 .2.1.4.1h2.3c.3 0 .3 0 .5-.1h1.3c.2 0 .3 0 .4.1h2.6c.3 0 .3-.1.6-.1s.3.1.6.1.3-.1.6-.1h8.6c.1 0 .2-.1.4-.1h.2c.1 0 .2.1.4.1h2.4c.2 0 .3 0 .4.1h6.6c.3 0 .3.1.6.1h1.1c.3 0 .3.1.6.1s.3-.1.6-.1.3.1.6.1.3-.1.6-.1.3.1.6.1h1.8c.3 0 .3-.1.6-.1h1.5c.1 0 .1 0 .2.1s.1.2.1.3v1.3c.3.2.3.2.4.3zM21.2 80.4c-1.2.4-2.4.7-3.7 1.1-1.1-3.6-2.2-7.2-3.3-10.7C9.9 64.3 5.5 57.9 1 51.5c1.3-.4 2.6-.8 4-1.3 3.3 5 6.6 10.1 9.7 15.1-.2-6-.3-12-.3-18 1.3-.4 2.7-.8 4-1.1-.3 7.9-.4 15.7-.4 23.5 1.1 3.6 2.2 7.1 3.2 10.7zm23.9-30.5c1 4.4 1.9 8.8 2.9 13.2.9 4 .8 6.9-.1 8.7-.9 1.8-2.6 3-5 3.6-2.4.6-4.4.3-6.1-.9-1.7-1.2-3-3.7-4.1-7.7-1.1-4.4-2.3-8.7-3.4-13.1-1-3.9-1-6.8 0-8.7 1-1.9 2.8-3.1 5.4-3.7 2.6-.6 4.8-.3 6.5.9 1.8 1.2 3 3.7 3.9 7.7zm-.8 14.8c-1.1-4.9-2.2-9.7-3.4-14.6-1-4.5-2.9-6.4-5.5-5.8-1.3.3-2.1 1-2.6 2.2-.5 1.1-.4 3 .3 5.5 1.2 4.8 2.4 9.7 3.6 14.5.6 2.5 1.4 4.2 2.3 5 .9.8 1.9 1.1 3.1.8 2.6-.6 3.3-3.1 2.2-7.6zm21.3-29c1.4-.2 2.7-.5 4.1-.7 1.2 7.8 2.5 15.5 3.7 23.3.6 4 .4 6.9-.6 8.6-1.1 1.7-2.8 2.8-5.1 3.2-2.4.4-4.3 0-5.9-1.3-1.6-1.3-2.8-3.9-3.6-7.9l-4.5-23.1c1.4-.3 2.7-.5 4.1-.8 1.5 8 3 15.9 4.4 23.9.5 2.5 1.1 4.3 2 5.1.8.9 1.8 1.2 3 1 1.1-.2 2-.9 2.5-2s.5-2.9.1-5.5c-1.5-7.8-2.9-15.8-4.2-23.8zm19.9 31c-1.5-11.1-2.9-22.2-4.4-33.3 2.2-.3 4.3-.6 6.5-.8 2.6-.3 4.7.2 6.3 1.6 1.6 1.3 2.6 4 2.9 7.9v.2c.5 4.8-.5 8-2.8 9.6 1.9 4.4 3.7 8.8 5.5 13.2-1.3.1-2.7.3-4 .4-1.7-4.1-3.5-8.2-5.3-12.4l-2.4.3c.5 4.3 1 8.5 1.6 12.8-1.3.2-2.6.3-3.9.5zm7.3-23.6c-.1-.5-.1-1-.2-1.4-.3-2.4-.8-4.1-1.6-5-.8-.9-1.8-1.2-3.1-1.1-.8.1-1.5.2-2.3.3.6 4.8 1.2 9.7 1.8 14.5.7-.1 1.5-.2 2.2-.3 2.6-.2 3.7-2.6 3.2-7zm38.5 12.6c-.1-2.6-1-4.5-2.8-5.8-1.4-.9-2.7-1.8-4.1-2.7-3.1-1.9-4.8-4.9-5-8.9-.2-3.3.4-5.7 1.7-7.1 1.3-1.4 3.2-2.1 5.6-2.2 2.4-.1 4.3.5 5.6 1.7 1.4 1.2 2.2 3.4 2.5 6.7l-3.9.9c-.2-4.1-1.6-6.1-4-6-2.5.1-3.6 1.9-3.5 5.4.1 1.5.3 2.8.7 3.7.4.9 1.1 1.8 2.2 2.5 1.4.9 2.7 1.8 4.1 2.7 1 .6 1.7 1.2 2.3 1.8.6.6 1.1 1.5 1.7 2.7.5 1.3.8 2.7.8 4.5 0 3.1-.6 5.2-1.9 6.5-1.3 1.3-3.1 1.9-5.4 2-2.3.1-4.1-.6-5.5-2-1.4-1.4-2.3-4-2.8-7.8 1.2-.3 2.5-.5 3.7-.8.2 2.7.7 4.6 1.4 5.8.7 1.1 1.7 1.7 2.9 1.6 2.5-.1 3.7-1.8 3.7-5.2zm13.9 7.4c.1-11.2.3-22.4.4-33.6 1.4 0 2.8 0 4.2.1-.2 10.2-.4 20.3-.7 30.5 2.5.1 5.1.1 7.6.2 0 1-.1 2-.1 3.1l-11.4-.3zm25-14.2c-.3 4-.6 8.1-.8 12.1 2.8.2 5.7.4 8.5.7-.1 1-.2 2-.3 3.1-4.1-.4-8.2-.7-12.3-.9.7-11.2 1.4-22.4 2-33.5 4.4.3 8.8.6 13.2 1-.1 1-.2 2-.3 3.1-3-.3-5.9-.5-8.9-.7-.3 4.1-.6 8.1-.9 12.2 2.6.2 5.3.4 7.9.6-.1 1-.2 2-.3 3.1-2.5-.4-5.1-.6-7.8-.8zm23.1 2.3c-.5 4-1 8-1.5 12.1 2.8.4 5.7.7 8.5 1.1-.1 1-.3 2-.4 3-4.1-.6-8.2-1.1-12.3-1.6 1.3-11.1 2.5-22.3 3.8-33.4 4.4.5 8.8 1.1 13.1 1.7-.1 1-.3 2-.4 3-3-.4-5.9-.8-8.9-1.2-.5 4-1 8.1-1.5 12.1 2.6.3 5.3.7 7.9 1-.1 1-.3 2-.4 3-2.7-.2-5.3-.5-7.9-.8zm23.8-15.1c.1 9.5.2 19 .1 28.5 3.3-8.9 6.8-17.7 10.3-26.6 1.4.3 2.8.6 4.1.8-4.5 10.5-8.9 21.1-13.1 31.7l-4.8-.9c-.1-11.4-.4-22.8-.8-34.2 1.4.2 2.8.5 4.2.7zm23.6 23.7c-.9 3.9-1.9 7.9-2.8 11.8 2.8.7 5.6 1.4 8.3 2.1-.3 1-.5 2-.8 3-4-1-8.1-2-12.1-3l7.5-32.7c4.3 1 8.6 2 12.9 3.2-.3 1-.5 2-.8 3-2.9-.8-5.8-1.5-8.7-2.2-.9 4-1.9 7.9-2.8 11.9 2.6.6 5.2 1.3 7.8 1.9-.3 1-.5 2-.8 3-2.6-.8-5.1-1.4-7.7-2zm26.8 15.3c.8-2.4.5-4.6-.8-6.4-1-1.3-2-2.6-3.1-3.9-2.4-2.8-3-6.2-1.9-10 .9-3.2 2.2-5.2 3.9-6.1 1.7-.9 3.7-1 6.1-.3 2.3.7 4 1.9 4.9 3.5.9 1.6 1 4 .3 7.1-1.3-.2-2.7-.3-4-.4 1.1-3.9.5-6.3-1.9-7-2.4-.7-4.1.6-5.1 3.9-.4 1.5-.6 2.7-.5 3.7.1 1 .5 2 1.3 3.1l3 3.9c.7.9 1.3 1.7 1.6 2.4.4.7.6 1.8.7 3.1.1 1.4-.1 2.9-.6 4.5-1 2.9-2.3 4.8-4 5.5-1.7.8-3.6.8-5.8.1-2.2-.7-3.8-1.9-4.6-3.7-.9-1.8-.9-4.5-.2-8.2 1.3.1 2.5.3 3.8.4-.6 2.6-.8 4.6-.5 5.9.3 1.3 1.1 2.1 2.2 2.5 2.5.9 4.2-.3 5.2-3.6zM91 12.6v1.6h-5.5v-1.6l1.4-.5V3.5L85.5 3V1.5l4.2-.1h1.4c1.5 0 2.7.3 3.5.9.8.6 1.2 1.5 1.2 2.8 0 1.6-.7 2.8-2.1 3.4.3.4.6.7.8 1.2l1.2 2.5 1.2.4v1.6h-3.4L92 10.8c-.3-.7-.6-1.2-.8-1.4-.2-.2-.5-.3-1-.3h-.6v3l1.4.5zm-1.3-9.1v3.7h1c.7 0 1.3-.2 1.7-.5s.6-.7.6-1.4c0-.5-.2-1-.5-1.3-.3-.3-.8-.5-1.3-.5h-1.5zm19.9-2.3c1.8 0 3.2.6 4.2 1.7s1.5 2.7 1.5 4.7-.6 3.7-1.7 4.9c-1.1 1.2-2.6 1.9-4.4 1.9s-3.2-.6-4.2-1.7-1.5-2.7-1.5-4.9c0-2.1.5-3.7 1.6-4.9 1.2-1.1 2.7-1.7 4.5-1.7zm-.1 2.2c-.9 0-1.7.3-2.1 1-.5.7-.7 1.8-.7 3.4 0 1.5.2 2.6.7 3.3.4.7 1.1 1.1 2 1.1 1 0 1.7-.3 2.2-1 .5-.7.8-1.8.8-3.4 0-1.5-.2-2.6-.7-3.2-.6-.8-1.3-1.2-2.2-1.2zm17 .1V12h2.8l.4-2.1h1.7v4.2h-9.1v-1.6l1.4-.5V3.5l-1.3-.5V1.5l5.5-.1V3l-1.4.5zm15.3 0V12h2.8l.4-2h1.7v4.2h-9.1v-1.6l1.4-.5V3.5l-1.4-.5V1.5l5.5-.1V3l-1.3.5zm25 0v5.8c0 1.1.2 1.8.5 2.2.4.4 1 .7 1.8.7.9 0 1.5-.2 1.9-.7.3-.5.5-1.3.5-2.4V3.5L170 3V1.5l5.6-.1V3l-1.4.5V9c0 1.8-.4 3.2-1.2 4.1-.8.9-2.1 1.3-4 1.3-1.8 0-3.1-.4-3.9-1.2-.8-.8-1.2-2.1-1.2-3.9V3.5l-1.3-.5V1.5l5.6-.1V3l-1.4.5zm21.1 9.1v1.6h-5.5v-1.6l1.4-.5V3.5l-1.4-.5V1.5l4.2-.1h1.7c1.4 0 2.5.3 3.2 1s1.2 1.6 1.2 2.8c0 1.5-.4 2.6-1.3 3.4s-2.2 1.1-3.8 1.1h-1v2.4l1.3.5zm-1.3-9.1v4.1h1c.8 0 1.3-.2 1.8-.5.4-.4.6-.9.6-1.5s-.2-1.1-.5-1.5c-.3-.4-.8-.6-1.4-.6h-1.5z"/></svg>