<svg id="Layer_1" xmlns="http://www.w3.org/2000/svg" viewBox="0 0 27.6 22.7"><style>.st0,.st1{fill-rule:evenodd;clip-rule:evenodd;fill:#333}.st1{fill:#d02027}</style><path class="st0" d="M26.8 1.8c-2.4.5-3.6 1.3-4.7 3.3 1.2 1.3.6 3.5.6 3.5-.9-1.8-2.3-2.9-4.5-2.7 0 0 1.2-1.8 2.9-1.4C22.2 2.2 24 .8 26.5.3c.4-.1.8.1.9.5.2.4-.1.9-.6 1z"/><path class="st1" d="M18.9 10.1c-.2-.1-.6-.4-1.4 0-.8.4-2 2.1-2 2.1-3.9 5.7-6.7 6.8-7.9 7.2l-.5-.1c1.2-.8 3.6-3 4.6-4.4 1.1-1.5 3.4-4.7 4.6-5.9.6-.5 1.3-.6 1.9-.6.8 0 1.4.9.9 1.6-.1.1-.2.1-.2.1zM18.2 7c-4.5-.9-6.4 6.1-10.6 10-2.4 2.2-4.9 3.2-6.7 3.6-.7.2-.8 1.3 0 1.4 1.3.3 3.2.5 6 .2 3.4-.4 18.3-6.7 15-12.8-.8-1-1.9-2-3.7-2.4z"/></svg>