<svg id="Layer_1" xmlns="http://www.w3.org/2000/svg" viewBox="0 0 16.4 20.2"><style>.st0{fill:#668e3d}</style><path class="st0" d="M3.8 5.3s0 .1-.1.2c0 .1-.1.1-.1.2-.1 0-.2.1-.2.2-.1.2-.3.5-.4.8-.1.1-.1.3-.2.5-.1.1-.2.3-.2.5-.6 1.6-1.2 3.9-1.3 6.9-.1.3-.2.6-.3 1-.2.5-.3 1-.4 1.5-.1.5-.2 1-.2 1.4-.1.4-.1.8-.1 1v.4l2-.2v-.3c0-.2-.1-.5-.1-.8v-1.2c0-.4.1-.9.1-1.4 0-.3.1-.6.2-.9.2 0 .4.1.6.1h.1C14.4 17.4 16.2.5 16.2.5 10.1-.9 5.6 2.4 3.8 5.3zM2.1 9.2V9v.2zm6.5-3.4c-.6.6-1.3 1.3-2 2.2-1.2 1.4-2.4 3.3-3.3 5.4h-.1c-.2 0-.4-.1-.6-.2.2-2 1.1-4 2.4-5.5.4-.5.9-.9 1.4-1.3 1.1-.8 2.3-1.5 3.6-1.8-.2.1-.7.5-1.4 1.2z"/></svg>